<svg width="306" height="238" viewBox="0 0 306 238" fill="none" xmlns="http://www.w3.org/2000/svg">
<g clip-path="url(#clip0_239_460)">
<path d="M305.99 223.807C305.99 224.124 305.356 224.379 304.566 224.379H1.4241C0.634208 224.379 0 224.124 0 223.807C0 223.49 0.634208 223.236 1.4241 223.236H304.566C305.356 223.236 305.99 223.491 305.99 223.807Z" fill="#D6D6E3"/>
<path d="M134.434 85.7349L120.196 97.1254L115.891 97.4386L114.311 97.5534L87.7641 99.4992L60.2384 97.4861L56.1424 97.187L50.9219 96.8071L40.0061 86.3645C40.0061 86.3645 47.7329 78.0873 54.5007 72.5011C57.168 70.294 59.688 68.5095 61.5248 67.8072L61.8381 67.6982C62.9933 67.2476 74.308 66.0683 75.1319 65.14C80.476 59.6299 75.1319 46.4928 75.1319 46.4928C75.1319 46.4928 98.7059 34.3143 95.8581 50.2896C93.0103 66.2649 100.961 63.9006 101.29 64.0517L110.887 64.3382L112.638 65.1415L117.104 67.1872L127.18 71.8099C135.089 75.4502 134.434 85.7349 134.434 85.7349Z" fill="#ED9DA0"/>
<path d="M82.8817 54.82C94.595 54.82 104.091 45.3245 104.091 33.6112C104.091 21.8979 94.595 12.4023 82.8817 12.4023C71.1684 12.4023 61.6729 21.8979 61.6729 33.6112C61.6729 45.3245 71.1684 54.82 82.8817 54.82Z" fill="#ED9DA0"/>
<path d="M92.9703 6.13344C97.6419 7.77519 100.315 8.71502 102.763 11.0736C106.898 15.0582 107.582 20.3832 108.215 25.3314C108.713 29.2021 109.353 34.2057 107.084 39.9247C106.31 41.8755 104.876 48.3522 97.6951 49.4493C96.2848 49.665 104.212 40.7758 103.903 30.7252C103.712 24.4826 94.1695 17.7385 88.5037 16.5263C87.1422 16.2482 85.7367 16.2675 84.3833 16.5827C83.0299 16.8979 81.7606 17.5018 80.6621 18.3528C75.8998 22.2625 76.1026 38.4295 71.0809 41.8086C69.0154 43.1986 70.3924 33.4147 68.9366 34.9998C66.0654 38.1303 67.9068 42.9209 68.4232 44.7497C70.8713 53.4102 73.4342 47.0066 75.8222 54.4013C78.403 62.3855 57.5025 69.0688 56.7321 70.8521C55.3933 73.9535 53.5622 86.4261 48.3087 88.9786C41.6404 92.2189 55.6197 88.9327 52.5198 92.5505C50.7871 94.5714 51.7246 96.7146 48.5941 103.005C47.5724 105.059 47.0583 106.086 46.6089 106.049C44.4668 105.877 41.0027 88.7438 46.6089 72.788C48.9609 66.0917 51.2652 59.5323 57.4397 54.4009C60.706 51.6885 63.4452 50.7127 64.2244 47.5451C65.3382 43.0188 60.7133 41.0887 59.7872 33.9495C59.1534 29.0667 58.7081 22.0835 60.4337 17.6073C62.0616 13.3802 63.475 9.71147 67.1739 6.38475C68.0617 5.58645 75.2343 0.154752 82.8386 0.00174681C86.3394 -0.0686357 88.9118 4.70437 92.9703 6.13076V6.13344Z" fill="#090814"/>
<path d="M239.051 222.252L181.861 221.973L176.178 208.645L196.272 207.186L192.77 192.574L232.513 187.423L194.456 174.193L197.818 173.394L259.013 183.378L255.642 206.182L250.825 218.715L239.051 222.252Z" fill="#87D800"/>
<path d="M271.679 211.632C271.679 211.632 267.892 216.255 270.898 223.244L240.656 236.361L237.754 236.969L236.417 231.121L237.311 223.741V219.707L271.679 211.632Z" fill="#D5D6DB"/>
<path d="M176.178 208.644L218.036 201.013L273.501 209.849L239.051 222.252L176.178 208.644Z" fill="#87D800"/>
<path d="M176.178 208.643C176.178 208.643 172.264 216.06 176.775 222.911L238.847 236.361C238.847 236.361 234.994 230.453 239.046 222.253L176.178 208.643Z" fill="#87D800"/>
<path opacity="0.1" d="M176.178 208.643C176.178 208.643 172.264 216.06 176.775 222.911L238.847 236.361C238.847 236.361 234.994 230.453 239.046 222.253L176.178 208.643Z" fill="#084734"/>
<path d="M238.847 236.36L273.5 221.573C273.5 221.573 275.438 221.991 274.185 223.409C272.932 224.828 239.515 237.779 239.515 237.779L176.775 222.91L238.847 236.36Z" fill="#87D800"/>
<path opacity="0.1" d="M238.847 236.36L273.5 221.573C273.5 221.573 275.438 221.991 274.185 223.409C272.932 224.828 239.515 237.779 239.515 237.779L176.775 222.91L238.847 236.36Z" fill="#084734"/>
<path opacity="0.1" d="M252.185 223.677L237.196 228.678L237.249 228.837L252.238 223.836L252.185 223.677Z" fill="#084734"/>
<path opacity="0.1" d="M255.187 223.18L237.191 230.023L237.25 230.18L255.246 223.337L255.187 223.18Z" fill="#084734"/>
<path opacity="0.1" d="M257.944 223.156L237.291 231.609L237.354 231.764L258.007 223.311L257.944 223.156Z" fill="#084734"/>
<path opacity="0.1" d="M260.942 222.432L237.532 233.007L237.601 233.16L261.011 222.585L260.942 222.432Z" fill="#084734"/>
<path opacity="0.1" d="M263.453 222.421L237.718 233.688L237.785 233.841L263.52 222.574L263.453 222.421Z" fill="#084734"/>
<path opacity="0.1" d="M268.972 221.499L238.106 234.83L238.173 234.984L269.038 221.653L268.972 221.499Z" fill="#084734"/>
<path d="M273.5 209.849C273.5 209.849 275.021 210.461 274.128 211.409C273.236 212.358 239.046 222.251 239.046 222.251L273.5 209.849Z" fill="#87D800"/>
<path d="M288.269 195.562C288.269 195.562 284.482 200.183 287.49 207.174L257.248 220.29L254.346 220.902L253.009 215.054L253.916 207.676V203.637L288.269 195.562Z" fill="#D5D6DB"/>
<path d="M192.77 192.572L234.627 184.943L290.091 193.779L255.641 206.182L192.77 192.572Z" fill="#090814"/>
<path d="M192.763 192.573C192.763 192.573 188.846 199.99 193.358 206.841L255.43 220.291C255.43 220.291 251.579 214.378 255.635 206.181L192.763 192.573Z" fill="#3A3768"/>
<path d="M192.763 192.573C192.763 192.573 188.846 199.99 193.358 206.841L255.43 220.291C255.43 220.291 251.579 214.378 255.635 206.181L236.006 201.932L192.763 192.573Z" fill="#090814"/>
<path d="M255.437 220.29L290.092 205.503C290.092 205.503 292.029 205.921 290.776 207.339C289.522 208.757 256.105 221.708 256.105 221.708L193.365 206.839L255.437 220.29Z" fill="#3A3768"/>
<path d="M255.437 220.29L290.092 205.503C290.092 205.503 292.029 205.921 290.776 207.339C289.522 208.757 256.105 221.708 256.105 221.708L193.365 206.839L255.437 220.29Z" fill="#090814"/>
<path opacity="0.1" d="M252.596 207.675C252.596 207.675 249.254 211.685 252.596 217.701V207.675Z" fill="#084734"/>
<path opacity="0.1" d="M268.776 207.609L253.787 212.61L253.84 212.768L268.829 207.768L268.776 207.609Z" fill="#084734"/>
<path opacity="0.1" d="M271.78 207.111L253.784 213.955L253.843 214.111L271.839 207.268L271.78 207.111Z" fill="#084734"/>
<path opacity="0.1" d="M274.535 207.084L253.882 215.538L253.946 215.692L274.598 207.239L274.535 207.084Z" fill="#084734"/>
<path opacity="0.1" d="M277.535 206.362L254.125 216.937L254.194 217.089L277.604 206.514L277.535 206.362Z" fill="#084734"/>
<path opacity="0.1" d="M280.044 206.348L254.308 217.614L254.375 217.767L280.111 206.501L280.044 206.348Z" fill="#084734"/>
<path opacity="0.1" d="M285.563 205.426L254.698 218.757L254.764 218.91L285.629 205.579L285.563 205.426Z" fill="#084734"/>
<path d="M290.092 193.779C290.092 193.779 291.611 194.391 290.72 195.338C289.829 196.285 255.643 206.18 255.643 206.18L290.092 193.779Z" fill="#3A3768"/>
<path d="M289.839 177.177C289.839 177.177 286.052 185.477 289.059 192.465L258.816 201.906L255.921 202.518L254.584 196.67L255.478 189.29V185.252L289.839 177.177Z" fill="#D5D6DB"/>
<path d="M194.345 174.19L236.204 166.559L291.668 175.395L257.218 187.796L194.345 174.19Z" fill="#87D800"/>
<path d="M194.345 174.188C194.345 174.188 190.424 181.605 194.935 188.456L257.007 201.907C257.007 201.907 253.154 195.993 257.211 187.798L194.345 174.188Z" fill="#87D800"/>
<path opacity="0.1" d="M194.345 174.188C194.345 174.188 190.424 181.605 194.935 188.456L257.007 201.907C257.007 201.907 253.154 195.993 257.211 187.798L194.345 174.188Z" fill="#084734"/>
<path d="M257.014 201.906L291.667 190.795C291.667 190.795 293.606 191.212 292.352 192.631C291.099 194.049 257.682 203.324 257.682 203.324L194.942 188.456L257.014 201.906Z" fill="#87D800"/>
<path opacity="0.1" d="M257.014 201.906L291.667 190.795C291.667 190.795 293.606 191.212 292.352 192.631C291.099 194.049 257.682 203.324 257.682 203.324L194.942 188.456L257.014 201.906Z" fill="#084734"/>
<path opacity="0.1" d="M270.354 189.224L255.365 194.225L255.418 194.383L270.407 189.382L270.354 189.224Z" fill="#084734"/>
<path opacity="0.1" d="M273.356 188.727L255.361 195.57L255.42 195.726L273.416 188.883L273.356 188.727Z" fill="#084734"/>
<path opacity="0.1" d="M276.11 188.701L255.457 197.155L255.52 197.309L276.173 188.856L276.11 188.701Z" fill="#084734"/>
<path opacity="0.1" d="M279.112 187.976L255.702 198.551L255.771 198.704L279.181 188.129L279.112 187.976Z" fill="#084734"/>
<path opacity="0.1" d="M281.621 187.965L255.886 199.231L255.953 199.385L281.689 188.118L281.621 187.965Z" fill="#084734"/>
<path opacity="0.1" d="M287.141 187.044L256.275 200.375L256.342 200.528L287.207 187.197L287.141 187.044Z" fill="#084734"/>
<path d="M291.667 175.394C291.667 175.394 293.188 176.006 292.295 176.955C291.403 177.903 257.219 187.797 257.219 187.797L291.667 175.394Z" fill="#87D800"/>
<path opacity="0.1" d="M274.516 170.97C274.516 170.97 268.556 171.873 267.443 173.097L274.516 170.97Z" fill="#084734"/>
<path opacity="0.1" d="M260.186 176.84C260.789 176.387 261.431 175.988 262.104 175.648C263.081 175.121 264.029 174.541 264.944 173.913" fill="#084734"/>
<path d="M115.463 142.963C115.463 142.963 122.724 161.947 126.853 160.049C130.982 158.151 129.862 150.082 130.65 147.871C131.438 145.659 132.311 128.886 132.311 128.886C132.311 128.886 132.71 117.021 133.497 114.619C134.228 112.411 134.821 101.282 134.921 99.5307V99.2982L134.138 85.5346L129.705 84.4287L119.425 88.2282L118.002 96.3582L117.446 99.533L117.209 100.886L115.463 142.963Z" fill="#ED9DA0"/>
<path d="M58.6766 143.794C58.6766 143.794 51.415 162.778 47.2861 160.88C43.1573 158.981 44.2772 150.913 43.4893 148.701C42.7013 146.489 41.828 129.717 41.828 129.717C41.828 129.717 41.4294 117.852 40.6422 115.449C39.9112 113.242 39.318 102.113 39.2185 100.361V100.129L40.0065 86.3651L44.4394 85.2593L54.7195 89.0561L56.1432 97.186L56.6986 100.361L56.9358 101.713L58.6766 143.794Z" fill="#ED9DA0"/>
<path d="M55.8288 162.701C55.8288 162.701 50.29 168.79 52.3452 169.896C54.4005 171.002 67.694 191.728 67.694 191.728C67.694 191.728 111.358 197.106 119.594 189.037C127.83 180.969 127.662 166.555 127.662 166.555C127.662 166.555 121.045 167.979 120.325 167.205C119.605 166.432 115.641 162.701 115.641 162.701C115.641 162.701 59.6252 159.303 55.8288 162.701Z" fill="#090814"/>
<path opacity="0.1" d="M134.466 100.837H39.2175V100.604L40.0055 86.8405C40.0055 86.8405 47.7323 78.5633 54.5001 72.9771L114.301 70.6055L117.082 67.6724L127.157 72.2939C135.069 75.9278 134.433 86.2139 134.433 86.2139C134.433 86.2139 135.515 98.1315 134.466 100.837Z" fill="#084734"/>
<path d="M134.466 100.362H39.2175V100.129L40.0055 86.3654C40.0055 86.3654 47.7323 78.0882 54.5001 72.502L114.301 70.1304L117.082 67.1973L127.157 71.8188C135.069 75.4527 134.433 85.7388 134.433 85.7388C134.433 85.7388 135.515 97.6564 134.466 100.362Z" fill="#D6D6E3"/>
<path d="M112.616 65.1289L114.206 89.3764L115.909 97.4448L117.21 103.615C117.21 103.615 120.532 151.075 119.581 153.449C118.631 155.822 120.056 157.72 120.255 158.982C120.455 160.245 120.056 163.415 120.213 164.839C120.369 166.263 120.213 166.894 116.579 166.386C112.945 165.879 107.874 164.996 107.874 164.996C107.874 164.996 95.0601 165.945 90.6317 164.365C86.2034 162.784 77.8175 162.78 77.8175 162.78C77.8175 162.78 65.1597 163.098 61.0496 162.623C56.9395 162.149 54.7183 167.687 52.0323 166.102C49.3463 164.517 55.193 149.178 57.0918 144.745C58.9906 140.312 54.5622 129.083 54.5622 129.083L60.2575 97.4872L61.5247 90.3254V67.8095L61.838 67.7005C62.9932 67.2499 64.166 67.5992 64.9884 66.6708L66.271 88.2602L110.884 89.8454V64.3447" fill="#D6D6E3"/>
<path d="M107.737 224.191L126.565 224.794L123.864 210.833L109.441 212.204L107.737 224.191Z" fill="#ED9DA0"/>
<path d="M166.075 191.098C164.808 192.678 159.905 195.526 159.431 196.475C158.956 197.424 153.104 200.272 150.095 200.746C147.086 201.221 137.599 203.281 135.857 204.387C134.609 205.184 124.589 207.709 118.007 209.109C116.224 209.531 114.419 209.856 112.601 210.082C109.753 210.239 78.5906 199.64 78.5906 199.64L84.5991 193.47L84.9315 193.355C86.6306 192.781 94.4806 190.128 98.8374 188.865C103.745 187.442 109.44 181.589 109.44 181.589C109.44 181.589 117.822 178.742 118.932 178.424C120.043 178.106 116.085 167.351 116.085 167.351C116.085 167.351 134.276 164.827 141.395 162.684C148.515 160.542 164.969 161.336 167.974 169.723C170.978 178.109 167.362 189.517 166.075 191.098Z" fill="#090814"/>
<path d="M83.1743 217.832C83.1743 217.832 79.5404 221.629 75.8985 221.316C72.2566 221.003 59.5292 222.265 59.5292 222.265C57.2224 223.185 55.0623 224.437 53.1171 225.981C50.1412 228.326 42.9939 227.167 42.9939 227.167C42.9939 227.167 44.5745 211.981 44.0902 210.081C43.6059 208.182 47.218 204.923 47.218 204.923L51.4895 203.836L62.3105 201.064L77.816 206.442L83.1743 217.832Z" fill="#090814"/>
<path opacity="0.1" d="M118.004 209.109C116.221 209.531 114.417 209.855 112.599 210.082C109.751 210.238 78.5881 199.639 78.5881 199.639L84.5967 193.469L84.929 193.354C85.8784 194.024 86.6565 194.598 87.2119 195.034C89.8271 197.094 92.3517 194.403 93.3011 194.403C94.2505 194.403 102.474 201.206 102.474 201.206C102.474 201.206 110.068 202.948 111.335 204.528C112.602 206.108 117.03 205.795 117.818 206.899C118.055 207.244 118.083 208.084 118.004 209.109Z" fill="#084734"/>
<path d="M59.531 167.999C59.531 167.999 51.852 168.44 47.4237 166.575C42.9953 164.71 28.2827 160.405 24.0112 163.429C19.7397 166.452 9.45501 169.124 14.2009 181.15C18.9467 193.177 21.1626 193.49 21.1626 193.49C22.6311 194.592 23.913 195.922 24.9594 197.43C26.3832 199.647 39.6724 204.706 42.9946 204.706C46.3167 204.706 52.1688 204.706 60.3936 210.401C68.6184 216.097 76.0568 216.731 76.0568 216.731C76.0568 216.731 86.4994 221.003 89.7507 221.952C93.0021 222.901 107.857 227.011 111.341 225.748C114.824 224.486 117.036 216.568 117.036 216.568C117.036 216.568 118.616 209.449 117.824 208.344C117.031 207.239 112.603 207.552 111.341 205.973C110.078 204.394 102.48 202.65 102.48 202.65C102.48 202.65 94.2736 195.845 93.3246 195.845C92.3756 195.845 89.8506 198.531 87.2353 196.476C82.0261 192.617 76.5531 189.128 70.8565 186.033C64.8468 182.868 59.531 167.999 59.531 167.999Z" fill="#090814"/>
<path opacity="0.1" d="M44.092 172.588C45.4593 172.308 46.8726 172.349 48.2219 172.705C49.5711 173.061 50.8199 173.724 51.8708 174.643C55.6677 177.808 68.444 184.163 68.444 184.163" fill="#084734"/>
<path opacity="0.1" d="M139.022 172.389C139.022 172.389 122.093 174.952 118.932 178.43L139.022 172.389Z" fill="#084734"/>
<path d="M158.481 224.794H157.736C155.058 224.699 145.989 224.414 144.243 224.794C142.188 225.269 114.973 224.794 114.973 224.794L120.294 223.688C120.294 223.688 118.319 216.769 119.572 216.194C119.572 216.194 112.453 211.505 117.821 208.339C123.189 205.174 128.975 206.507 128.975 206.507L142.449 201.942L145.035 201.062C145.035 201.062 160.221 201.855 164.333 212.296C168.444 222.738 158.481 224.794 158.481 224.794Z" fill="#090814"/>
<path d="M42.9143 86.6041L51.3147 79.0104C51.3147 79.0104 83.8869 76.8749 85.2348 87.9475C85.2348 87.9475 96.7822 74.82 121.068 77.7436L131.343 85.9259L102.942 98.389L75.3438 107.962L55.0163 98.8637L42.9143 86.6041Z" fill="#F2F2F2"/>
<path d="M39.1985 86.6035L42.9165 131.06L82.3089 133.039L80.5987 88.7724L80.5654 88.0272L39.1985 86.6035Z" fill="#87D800"/>
<path d="M133.147 85.6543L92.5112 91.7481V136.402L132.221 130.665L133.147 85.6543Z" fill="#87D800"/>
<path opacity="0.3" d="M123.564 96.5518L101.614 98.9914L102.093 106.471L123.55 104.127L123.564 96.5518Z" fill="white"/>
<path d="M45.0508 154.866L47.2862 160.879C47.2862 160.879 50.6083 163.727 54.2441 162.303C57.8799 160.879 61.0502 160.172 62.6304 158.786C64.2105 157.4 66.4272 150.438 66.4272 150.438C66.4272 150.438 68.6435 142.844 70.8552 140.946C73.0669 139.047 78.9235 112.892 70.8552 115.45C62.7868 118.008 56.6169 141.738 56.6169 141.738C56.6169 141.738 55.1932 143.475 53.1379 143.637C51.0827 143.798 46.968 143.319 46.1762 145.061C45.3844 146.802 42.6777 151.388 45.0508 154.866Z" fill="#ED9DA0"/>
<path d="M92.511 91.7439C90.4305 92.2127 88.2692 92.1882 86.1999 91.6723C84.1306 91.1564 82.2107 90.1635 80.5938 88.7729L82.307 133.035C82.307 133.035 86.341 137.401 92.511 136.404V91.7439Z" fill="#87D800"/>
<path opacity="0.1" d="M92.511 91.7439C90.4305 92.2127 88.2692 92.1882 86.1999 91.6723C84.1306 91.1564 82.2107 90.1635 80.5938 88.7729L82.307 133.035C82.307 133.035 86.341 137.401 92.511 136.404V91.7439Z" fill="#084734"/>
<path opacity="0.1" d="M93.46 86.7556C93.46 86.7556 109.991 81.7011 114.3 82.4129L93.46 86.7556Z" fill="#084734"/>
<path opacity="0.1" d="M74.9698 84.5493C74.9698 84.5493 58.9471 80.7525 56.2703 81.8296L74.9698 84.5493Z" fill="#084734"/>
<path opacity="0.1" d="M103.883 87.3862C103.883 87.3862 114.937 83.3316 118.933 85.2598L103.883 87.3862Z" fill="#084734"/>
<path opacity="0.1" d="M98.3154 189.062C100.028 187.775 101.852 186.643 103.764 185.678C106.611 184.306 111.832 180.747 111.832 180.747" fill="#084734"/>
<path opacity="0.1" d="M56.2697 140.628C56.2697 140.628 49.3356 146.3 47.2524 146.798C45.1692 147.297 43.8828 151.72 43.8828 151.72" fill="#084734"/>
<path d="M129.071 154.022L126.86 160.049C126.86 160.049 123.538 162.897 119.898 161.473C116.258 160.049 113.097 159.342 111.512 157.956C109.927 156.57 107.715 149.608 107.715 149.608C107.715 149.608 105.503 142.014 103.287 140.116C101.071 138.217 95.2186 112.062 103.287 114.62C111.355 117.178 117.525 140.908 117.525 140.908C117.525 140.908 118.949 142.645 121.004 142.807C123.06 142.968 127.174 142.489 127.966 144.231C128.758 145.972 131.443 150.557 129.071 154.022Z" fill="#ED9DA0"/>
<path opacity="0.1" d="M119.321 141.149C119.321 141.149 125.43 146.122 127.271 146.56C129.112 146.997 130.242 150.875 130.242 150.875" fill="#084734"/>
</g>
<defs>
<clipPath id="clip0_239_460">
<rect width="305.99" height="237.781" fill="white"/>
</clipPath>
</defs>
</svg>
