<svg width="380" height="298" viewBox="0 0 380 298" fill="none" xmlns="http://www.w3.org/2000/svg">
<g clip-path="url(#clip0_239_338)">
<path d="M106.895 139.858L130.234 120.147C131.032 119.472 131.53 118.507 131.617 117.466C131.705 116.424 131.376 115.39 130.703 114.591L126.41 109.504C125.734 108.706 124.77 108.209 123.729 108.121C122.687 108.033 121.653 108.362 120.854 109.036L97.5149 128.747C96.717 129.422 96.2196 130.386 96.1319 131.428C96.0441 132.469 96.3731 133.503 97.0467 134.302L101.343 139.39C102.018 140.187 102.981 140.683 104.022 140.771C105.063 140.859 106.096 140.53 106.895 139.858Z" fill="#3F3D56"/>
<path d="M129.011 115.001C129.374 115.432 129.551 115.989 129.504 116.55C129.456 117.111 129.189 117.631 128.759 117.995L105.42 137.706C104.989 138.069 104.432 138.246 103.871 138.199C103.31 138.151 102.79 137.883 102.426 137.453L98.1302 132.366C97.7673 131.936 97.5901 131.379 97.6374 130.817C97.6847 130.256 97.9527 129.737 98.3825 129.373L121.721 109.662C122.152 109.299 122.709 109.122 123.271 109.169C123.832 109.216 124.351 109.484 124.715 109.914L129.011 115.001Z" fill="#87D800"/>
<path d="M104.682 130.832C104.575 130.743 104.489 130.63 104.433 130.502C104.376 130.374 104.351 130.235 104.358 130.096L104.532 126.432C104.535 126.313 104.561 126.195 104.61 126.086C104.659 125.976 104.73 125.878 104.817 125.797C104.905 125.715 105.008 125.652 105.12 125.611C105.233 125.57 105.352 125.551 105.472 125.557C105.591 125.562 105.708 125.592 105.816 125.643C105.924 125.695 106.021 125.768 106.1 125.857C106.18 125.946 106.241 126.051 106.279 126.164C106.318 126.277 106.333 126.397 106.325 126.517L106.213 128.915L112.598 126.993C112.825 126.928 113.068 126.956 113.275 127.069C113.482 127.182 113.636 127.372 113.704 127.598C113.772 127.824 113.748 128.067 113.638 128.276C113.528 128.485 113.34 128.641 113.115 128.713L105.513 131C105.376 131.041 105.23 131.049 105.089 131.022C104.948 130.996 104.815 130.936 104.702 130.848L104.682 130.832Z" fill="white"/>
<path d="M118.47 114C118.423 113.964 118.386 113.916 118.363 113.861C118.341 113.806 118.333 113.745 118.341 113.686C118.349 113.627 118.372 113.571 118.408 113.524C118.445 113.477 118.493 113.44 118.548 113.418C119.404 113.097 120.331 113.012 121.231 113.171C122.131 113.331 122.972 113.729 123.666 114.324C124.593 115.01 125.277 115.973 125.617 117.075C125.801 117.71 125.868 118.373 125.816 119.032C125.813 119.077 125.802 119.12 125.783 119.16C125.763 119.2 125.736 119.236 125.703 119.265C125.67 119.295 125.631 119.317 125.589 119.332C125.547 119.346 125.503 119.352 125.459 119.35L125.457 119.351C125.366 119.345 125.282 119.303 125.222 119.235C125.162 119.166 125.131 119.077 125.137 118.986C125.21 118.193 125.074 117.395 124.744 116.67C124.414 115.946 123.9 115.32 123.253 114.855C121.275 113.318 119.484 113.779 118.807 114.047C118.752 114.071 118.691 114.079 118.632 114.07C118.573 114.062 118.517 114.038 118.47 114Z" fill="white"/>
<path d="M118.938 122.766C118.915 122.749 118.895 122.729 118.877 122.707C117.558 121.024 118.232 118.893 118.259 118.807L118.267 118.788C118.29 118.73 118.844 117.341 119.864 117.066C120.109 117.008 120.365 117.01 120.609 117.071C120.853 117.133 121.079 117.253 121.267 117.42C121.46 117.547 121.618 117.719 121.728 117.921C121.839 118.123 121.898 118.35 121.902 118.58C121.875 118.94 121.775 119.291 121.608 119.61C121.31 120.289 121.182 120.667 121.755 121.161C121.857 121.245 121.979 121.302 122.109 121.327C122.239 121.351 122.373 121.342 122.498 121.3C122.801 121.186 123.072 121.002 123.288 120.763C123.505 120.523 123.661 120.236 123.744 119.923C123.955 119.196 123.948 118.422 123.723 117.698C123.499 116.975 123.066 116.333 122.48 115.853C121.825 115.333 121.008 115.061 120.172 115.085C119.479 115.111 118.807 115.33 118.232 115.717C117.213 116.421 116.462 118.187 116.457 118.202C116.44 118.242 116.415 118.279 116.384 118.31C116.352 118.341 116.315 118.366 116.274 118.382C116.233 118.399 116.189 118.407 116.145 118.407C116.101 118.406 116.058 118.397 116.017 118.38L116.015 118.377C115.932 118.342 115.866 118.275 115.832 118.192C115.797 118.108 115.797 118.015 115.831 117.931C115.865 117.852 116.663 115.97 117.84 115.156C118.422 114.761 119.091 114.514 119.79 114.438C120.489 114.362 121.196 114.458 121.849 114.719C122.502 114.979 123.081 115.396 123.535 115.932C123.99 116.468 124.306 117.108 124.456 117.795C124.631 118.563 124.61 119.362 124.396 120.12C124.282 120.54 124.067 120.926 123.77 121.244C123.473 121.562 123.103 121.803 122.692 121.945C122.458 122.019 122.208 122.033 121.968 121.984C121.727 121.936 121.502 121.827 121.315 121.667C120.335 120.824 120.71 119.961 120.984 119.331C121.265 118.685 121.38 118.359 120.853 117.949C120.747 117.848 120.618 117.775 120.477 117.734C120.336 117.694 120.188 117.688 120.044 117.717C119.698 117.855 119.409 118.107 119.224 118.43L119.219 118.439C118.989 118.787 118.842 119.182 118.787 119.595C118.707 120.064 118.721 120.544 118.828 121.008C118.935 121.471 119.133 121.909 119.41 122.295C119.438 122.329 119.459 122.369 119.471 122.411C119.483 122.454 119.487 122.498 119.482 122.542C119.477 122.586 119.463 122.628 119.442 122.667C119.421 122.706 119.392 122.74 119.357 122.767L119.355 122.769C119.295 122.814 119.221 122.839 119.146 122.838C119.071 122.838 118.997 122.812 118.938 122.766Z" fill="white"/>
<path d="M116.93 121.013C116.893 120.984 116.863 120.949 116.84 120.908C116.817 120.867 116.803 120.822 116.798 120.776C116.675 119.609 116.932 118.433 117.531 117.425L117.537 117.421C117.781 116.993 118.111 116.62 118.504 116.324C118.898 116.028 119.349 115.816 119.828 115.7C120.23 115.636 120.641 115.661 121.033 115.772C121.425 115.884 121.788 116.079 122.097 116.345C122.511 116.65 122.831 117.066 123.018 117.544C123.205 118.023 123.253 118.545 123.155 119.05C123.073 119.552 122.9 120.035 122.644 120.475C122.596 120.552 122.519 120.607 122.431 120.627C122.343 120.648 122.25 120.632 122.173 120.584C122.096 120.536 122.041 120.46 122.021 120.371C122 120.283 122.016 120.19 122.064 120.113C122.276 119.744 122.42 119.339 122.487 118.918C122.562 118.537 122.526 118.141 122.383 117.779C122.241 117.417 121.998 117.104 121.683 116.876C121.449 116.67 121.173 116.518 120.875 116.43C120.576 116.342 120.263 116.32 119.955 116.365C119.571 116.464 119.211 116.639 118.896 116.879C118.58 117.12 118.316 117.42 118.119 117.764C117.589 118.652 117.362 119.688 117.472 120.717C117.477 120.76 117.472 120.805 117.46 120.847C117.447 120.889 117.426 120.928 117.398 120.962C117.37 120.996 117.336 121.024 117.297 121.045C117.258 121.065 117.216 121.078 117.172 121.082L117.167 121.083C117.082 121.09 116.998 121.065 116.93 121.013Z" fill="white"/>
<path d="M119.747 119.174C119.885 119.371 120.157 119.419 120.353 119.281C120.55 119.143 120.598 118.871 120.46 118.674C120.322 118.477 120.051 118.43 119.854 118.568C119.657 118.706 119.609 118.977 119.747 119.174Z" fill="white"/>
<path d="M103.32 275.964H94.0996V288.117H103.32V275.964Z" fill="#ED9DA0"/>
<path d="M95.6737 296.505H115.274C116.959 296.503 118.622 296.124 120.142 295.396L123.755 293.659C124.153 293.468 124.482 293.159 124.7 292.776C124.918 292.392 125.014 291.95 124.975 291.511C124.936 291.071 124.763 290.654 124.481 290.314C124.198 289.975 123.819 289.73 123.393 289.612L115.938 287.55L103.186 280.848L103.177 280.895C102.94 282.103 102.569 283.928 102.522 284.039C101.214 285.538 99.8704 286.227 98.5284 286.091C96.1879 285.854 94.6319 283.15 94.6167 283.124L94.6049 283.103L94.5812 283.106C94.3434 283.115 94.111 283.18 93.9021 283.294C93.6931 283.408 93.5132 283.568 93.3763 283.763C92.8421 284.57 93.168 285.808 93.2216 285.996C92.5822 286.62 92.2952 290.115 92.2729 290.397C91.3484 291.377 90.9091 292.319 90.967 293.196C91.0165 293.618 91.1549 294.026 91.373 294.391C91.5912 294.756 91.8841 295.071 92.2326 295.315C93.21 296.093 94.4243 296.513 95.6737 296.506V296.505Z" fill="#090814"/>
<path d="M29.8889 282.091L38.7427 284.667L42.1374 272.997L33.2837 270.422L29.8889 282.091Z" fill="#ED9DA0"/>
<path d="M29.0594 290.584L47.8795 296.059C49.4983 296.528 51.2014 296.628 52.8642 296.354L56.819 295.696C57.2537 295.622 57.6558 295.418 57.9716 295.11C58.2875 294.803 58.5021 294.406 58.5869 293.973C58.6717 293.541 58.6228 293.092 58.4465 292.688C58.2703 292.284 57.9751 291.943 57.6002 291.711L51.0193 287.648L40.6454 277.651L40.6231 277.693C40.0586 278.784 39.1905 280.435 39.116 280.528C37.442 281.602 35.9591 281.889 34.7087 281.382C32.5266 280.501 31.7889 277.471 31.7813 277.44L31.7756 277.417L31.7524 277.413C31.5214 277.356 31.2803 277.353 31.0478 277.404C30.8154 277.455 30.5978 277.558 30.4118 277.707C29.6737 278.332 29.641 279.613 29.64 279.807C28.8512 280.229 27.6002 283.504 27.4997 283.768C26.3379 284.451 25.6534 285.232 25.4641 286.092C25.394 286.512 25.4134 286.942 25.5211 287.353C25.6287 287.764 25.8223 288.149 26.0889 288.48C26.81 289.5 27.8584 290.243 29.0599 290.585L29.0594 290.584Z" fill="#090814"/>
<path d="M59.5432 57.5547C59.5439 54.7841 60.3124 52.0679 61.7634 49.7076C63.2144 47.3474 65.2911 45.4355 67.763 44.1841C70.2349 42.9328 73.0053 42.391 75.7665 42.6189C78.5276 42.8469 81.1716 43.8356 83.4049 45.4753C85.6382 47.115 87.3733 49.3416 88.4176 51.9079C89.462 54.4741 89.7747 57.2795 89.321 60.0127C88.8673 62.7459 87.665 65.2999 85.8476 67.3911C84.0302 69.4823 81.6688 71.029 79.0255 71.8593L76.1276 91.0109L61.3548 78.702C63.3693 76.0515 65.019 73.1426 66.2598 70.0533C64.1952 68.6876 62.5013 66.8314 61.3298 64.6507C60.1582 62.4701 59.5455 60.033 59.5465 57.5575L59.5432 57.5547Z" fill="#ED9DA0"/>
<path d="M53.6275 131.542L51.4635 101.247C51.2757 98.6202 51.6077 95.9817 52.4407 93.4829L58.8551 74.2458L77.7435 80.3126L85.7128 98.5459L90.0533 106.504C91.0153 108.268 91.3804 110.296 91.0941 112.284C90.8077 114.273 89.8853 116.115 88.4647 117.536L85.7133 120.288L89.5491 134.356L89.1454 134.342L89.6866 134.412C89.6866 134.412 115.332 211.563 114.412 277.176H81.4948L79.5408 201.012L73.8233 280.133L30.447 277.635L53.6261 131.542H53.6275Z" fill="#E6E6E6"/>
<path d="M54.7304 77.252C54.7304 77.252 55.4306 82.5649 61.9162 82.7366L75.0718 83.0886C75.0718 83.0886 63.9507 56.024 68.5255 59.0727C73.1004 62.1215 85.2926 49.3392 85.2926 49.3392L88.8907 56.0871C88.8907 56.0871 97.4848 52.9742 87.96 45.3521C87.96 45.3521 76.5931 36.5635 64.5261 41.8418C52.4591 47.1201 54.7304 77.252 54.7304 77.252Z" fill="#090814"/>
<path d="M107.931 137.514C108.105 134.132 104.936 131.22 100.85 131.008C99.7851 130.934 98.7158 131.072 97.7046 131.415C96.6934 131.757 95.7606 132.298 94.9605 133.005L94.8656 133L70.6429 130.492L72.4597 106.451C73.1319 101.802 71.8265 97.1142 67.2469 96.0625C65.92 95.7572 64.5413 95.7558 63.2138 96.0586C61.8864 96.3613 60.6446 96.9603 59.5813 97.8107C58.518 98.6611 57.6607 99.7409 57.0737 100.969C56.4866 102.198 56.185 103.543 56.1913 104.905L56.3298 135.186C56.334 136.209 56.54 137.222 56.9361 138.165C57.3322 139.109 57.9105 139.965 58.6379 140.684C59.3653 141.404 60.2275 141.973 61.1752 142.359C62.1229 142.745 63.1374 142.94 64.1606 142.933L94.5601 140.662C95.283 141.448 96.1551 142.082 97.1256 142.527C98.096 142.973 99.1454 143.22 100.213 143.256C104.299 143.468 107.755 140.897 107.928 137.516L107.931 137.514Z" fill="#ED9DA0"/>
<path d="M74.7918 95.8367L73.3326 123.265L53.0591 121.889L56.6444 93.3638" fill="#E6E6E6"/>
<path d="M149.753 297.072L0.653212 297.238C0.479971 297.238 0.313822 297.169 0.191322 297.047C0.0688227 296.924 0 296.758 0 296.585C0 296.412 0.0688227 296.245 0.191322 296.123C0.313822 296 0.479971 295.932 0.653212 295.932L149.753 295.765C149.927 295.765 150.093 295.834 150.215 295.957C150.338 296.079 150.407 296.245 150.407 296.419C150.407 296.592 150.338 296.758 150.215 296.881C150.093 297.003 149.927 297.072 149.753 297.072V297.072Z" fill="#E6E6E6"/>
<path d="M348.822 98.9381H135.429C133.518 98.9267 131.69 98.1578 130.345 96.8001C129.001 95.4424 128.25 93.6067 128.257 91.6959V7.24125C128.25 5.3307 129.001 3.49544 130.346 2.13804C131.69 0.78063 133.518 0.0119069 135.429 0.000488281H348.822C350.732 0.012032 352.56 0.780873 353.905 2.13837C355.249 3.49586 356 5.33117 355.993 7.24172V91.6959C356 93.6065 355.249 95.4418 353.905 96.7993C352.56 98.1568 350.732 98.9256 348.822 98.9372V98.9381Z" fill="#090814"/>
<path d="M348.043 98.1042H136.21C134.323 98.1021 132.513 97.3513 131.178 96.0167C129.844 94.682 129.093 92.8724 129.091 90.9849V7.95235C129.093 6.06492 129.844 4.25546 131.179 2.92089C132.513 1.58632 134.323 0.83563 136.21 0.833496H348.043C349.93 0.835631 351.74 1.58639 353.075 2.92106C354.409 4.25573 355.16 6.06531 355.162 7.95282V90.9849C355.16 92.8724 354.409 94.682 353.075 96.0167C351.74 97.3513 349.93 98.1021 348.043 98.1042Z" fill="#F2F2F2"/>
<path d="M298.638 93.564H169.834C160.236 93.5537 151.034 89.7362 144.247 82.9491C137.459 76.1619 133.642 66.9596 133.632 57.3611V41.5808C133.642 31.9823 137.459 22.7798 144.246 15.9926C151.034 9.20534 160.236 5.38774 169.834 5.37744H314.416C324.015 5.38774 333.217 9.20534 340.004 15.9926C346.792 22.7798 350.609 31.9823 350.619 41.5808C350.604 55.3624 345.122 68.5751 335.377 78.3204C325.632 88.0657 312.42 93.5478 298.638 93.564Z" fill="white"/>
<path d="M265.413 29.1467H180.272C180.028 29.1506 179.786 29.106 179.56 29.0155C179.334 28.925 179.128 28.7904 178.954 28.6195C178.78 28.4486 178.643 28.2449 178.548 28.0202C178.454 27.7955 178.406 27.5543 178.406 27.3107C178.406 27.067 178.454 26.8258 178.548 26.6011C178.643 26.3764 178.78 26.1727 178.954 26.0018C179.128 25.8309 179.334 25.6963 179.56 25.6058C179.786 25.5153 180.028 25.4707 180.272 25.4746H265.413C265.656 25.4707 265.898 25.5153 266.124 25.6058C266.351 25.6963 266.556 25.8309 266.73 26.0018C266.904 26.1727 267.042 26.3764 267.136 26.6011C267.23 26.8258 267.278 27.067 267.278 27.3107C267.278 27.5543 267.23 27.7955 267.136 28.0202C267.042 28.2449 266.904 28.4486 266.73 28.6195C266.556 28.7904 266.351 28.925 266.124 29.0155C265.898 29.106 265.656 29.1506 265.413 29.1467Z" fill="#E6E6E6"/>
<path d="M308.512 48.7365H180.272C180.028 48.7404 179.786 48.6959 179.56 48.6053C179.334 48.5148 179.128 48.3802 178.954 48.2093C178.78 48.0385 178.643 47.8347 178.548 47.61C178.454 47.3853 178.406 47.1441 178.406 46.9005C178.406 46.6569 178.454 46.4157 178.548 46.191C178.643 45.9663 178.78 45.7625 178.954 45.5916C179.128 45.4208 179.334 45.2862 179.56 45.1956C179.786 45.1051 180.028 45.0605 180.272 45.0644H308.512C308.756 45.0605 308.998 45.1051 309.224 45.1956C309.45 45.2862 309.656 45.4208 309.83 45.5916C310.003 45.7625 310.141 45.9663 310.236 46.191C310.33 46.4157 310.378 46.6569 310.378 46.9005C310.378 47.1441 310.33 47.3853 310.236 47.61C310.141 47.8347 310.003 48.0385 309.83 48.2093C309.656 48.3802 309.45 48.5148 309.224 48.6053C308.998 48.6959 308.756 48.7404 308.512 48.7365Z" fill="#E6E6E6"/>
<path d="M308.512 68.3261H180.272C179.79 68.3184 179.33 68.1216 178.992 67.7781C178.654 67.4346 178.465 66.972 178.465 66.4901C178.465 66.0082 178.654 65.5456 178.992 65.2021C179.33 64.8587 179.79 64.6618 180.272 64.6541H308.512C308.994 64.6618 309.454 64.8587 309.792 65.2021C310.13 65.5456 310.319 66.0082 310.319 66.4901C310.319 66.972 310.13 67.4346 309.792 67.7781C309.454 68.1216 308.994 68.3184 308.512 68.3261Z" fill="#E6E6E6"/>
<path d="M308.512 68.3261H180.272C179.79 68.3184 179.33 68.1216 178.992 67.7781C178.654 67.4346 178.465 66.972 178.465 66.4901C178.465 66.0082 178.654 65.5456 178.992 65.2021C179.33 64.8587 179.79 64.6618 180.272 64.6541H308.512C308.994 64.6618 309.454 64.8587 309.792 65.2021C310.13 65.5456 310.319 66.0082 310.319 66.4901C310.319 66.972 310.13 67.4346 309.792 67.7781C309.454 68.1216 308.994 68.3184 308.512 68.3261Z" fill="#E6E6E6"/>
<path d="M244.392 78.6631C260.515 78.6631 273.585 65.5931 273.585 49.4705C273.585 33.3478 260.515 20.2778 244.392 20.2778C228.269 20.2778 215.199 33.3478 215.199 49.4705C215.199 65.5931 228.269 78.6631 244.392 78.6631Z" fill="#87D800"/>
<mask id="mask0_239_338" style="mask-type:luminance" maskUnits="userSpaceOnUse" x="215" y="20" width="59" height="59">
<path d="M244.392 78.6631C260.515 78.6631 273.585 65.5931 273.585 49.4705C273.585 33.3478 260.515 20.2778 244.392 20.2778C228.269 20.2778 215.199 33.3478 215.199 49.4705C215.199 65.5931 228.269 78.6631 244.392 78.6631Z" fill="white"/>
</mask>
<g mask="url(#mask0_239_338)">
<path d="M261.623 55.5808L235.51 55.9072C235.019 55.9072 234.549 55.7123 234.202 55.3653C233.855 55.0184 233.66 54.5478 233.66 54.0572V45.4303C233.649 43.616 233.997 41.8176 234.684 40.1384C235.371 38.4591 236.383 36.9323 237.662 35.6456C238.942 34.359 240.462 33.3379 242.138 32.6412C243.813 31.9444 245.609 31.5857 247.423 31.5857C249.238 31.5857 251.034 31.9444 252.709 32.6412C254.384 33.3379 255.905 34.359 257.184 35.6456C258.464 36.9323 259.476 38.4591 260.163 40.1384C260.85 41.8176 261.198 43.616 261.187 45.4303L263.471 53.7318C263.471 54.2224 263.276 54.693 262.929 55.0399C262.582 55.3869 262.112 55.5818 261.621 55.5818L261.623 55.5808Z" fill="#090814"/>
<path d="M247.311 55.8171C252.575 55.8171 256.842 51.5497 256.842 46.2856C256.842 41.0215 252.575 36.7542 247.311 36.7542C242.046 36.7542 237.779 41.0215 237.779 46.2856C237.779 51.5497 242.046 55.8171 247.311 55.8171Z" fill="#FFB9B9"/>
<path d="M252.089 53.6504C252.089 53.6504 251.921 60.5368 252.593 60.7047C253.265 60.8727 243.355 63.5599 243.355 63.5599L242.347 54.1542L252.089 53.6504Z" fill="#FFB9B9"/>
<path d="M232.32 96.7621C234.037 97.2208 251.01 104.215 259.065 97.1283L265.385 65.9262L257.814 63.5382L255.171 60.3253C254.885 59.9769 254.524 59.6974 254.116 59.5076C253.707 59.3178 253.26 59.2226 252.81 59.2291L243.417 59.3548C243.002 59.3608 242.592 59.4527 242.214 59.6246C241.835 59.7965 241.497 60.0448 241.219 60.3538L238.21 63.709L231.415 65.2906L232.32 96.7621Z" fill="#F2F2F2"/>
<path d="M262.505 68.3603L264.561 65.6194C264.561 65.6194 268.331 66.6099 270.247 72.0124C272.162 77.415 280.01 120.576 280.01 120.576L271.558 124.5L260.114 86.355L262.505 68.3603Z" fill="#F2F2F2"/>
<path d="M234.434 67.755L231.588 65.2537C231.588 65.2537 228.607 66.006 226.691 71.4081C224.776 76.8102 200.328 113.028 200.328 113.028L208.779 116.952L236.824 85.7488L234.434 67.755Z" fill="#F2F2F2"/>
<path d="M257.243 45.6571H243.92C243.67 45.6568 243.428 45.5651 243.24 45.3991C243.052 45.2332 242.932 45.0044 242.901 44.7558L242.728 43.3758C242.711 43.2435 242.651 43.1203 242.558 43.0247C242.465 42.9291 242.344 42.8662 242.212 42.8456C242.08 42.825 241.945 42.8476 241.827 42.9102C241.709 42.9728 241.615 43.0719 241.558 43.1927L240.684 45.0627C240.601 45.2395 240.47 45.389 240.305 45.4939C240.14 45.5988 239.949 45.6547 239.754 45.6552H237.73C237.458 45.6556 237.197 45.5479 237.004 45.3558C236.812 45.1638 236.703 44.9031 236.703 44.631C236.703 44.5973 236.704 44.5635 236.707 44.53L237.505 36.1953C237.522 36.0171 237.585 35.8464 237.688 35.6998C237.791 35.5532 237.93 35.4358 238.092 35.359C240.953 33.9536 244.1 33.2237 247.288 33.2256C250.476 33.2275 253.621 33.9611 256.481 35.3699C256.636 35.4427 256.77 35.5529 256.872 35.6905C256.973 35.8282 257.039 35.989 257.063 36.1583L258.258 44.4821C258.279 44.6277 258.268 44.7763 258.227 44.9175C258.186 45.0587 258.114 45.1894 258.018 45.3006C257.921 45.4118 257.802 45.5009 257.668 45.562C257.534 45.623 257.389 45.6544 257.241 45.6542L257.243 45.6571Z" fill="#090814"/>
</g>
<path d="M355.925 122.53C368.942 122.53 379.494 111.978 379.494 98.9608C379.494 85.9438 368.942 75.3914 355.925 75.3914C342.908 75.3914 332.355 85.9438 332.355 98.9608C332.355 111.978 342.908 122.53 355.925 122.53Z" fill="#87D800"/>
<path d="M353.555 108.622C353.238 108.622 352.926 108.548 352.643 108.407C352.36 108.265 352.114 108.059 351.925 107.806L346.925 101.143C346.63 100.709 346.514 100.179 346.6 99.6611C346.686 99.1436 346.969 98.6792 347.388 98.3644C347.808 98.0497 348.333 97.9088 348.854 97.971C349.375 98.0332 349.852 98.2937 350.186 98.6984L353.455 103.057L361.851 90.4615C362.162 90.0383 362.624 89.7512 363.141 89.66C363.658 89.5687 364.19 89.6803 364.627 89.9716C365.064 90.2628 365.372 90.7113 365.486 91.2236C365.601 91.736 365.513 92.2728 365.242 92.7224L355.247 107.712C355.066 107.984 354.823 108.207 354.538 108.365C354.253 108.523 353.934 108.61 353.608 108.619L353.555 108.622Z" fill="white"/>
<path d="M151.097 136.494L150.789 137.514C154.106 139.027 157.483 140.493 160.823 141.877L161.019 140.808C157.715 139.44 154.377 137.99 151.097 136.494ZM171.016 144.725L170.932 145.838C174.296 147.088 177.707 148.278 181.072 149.384L181.04 148.23C177.712 147.137 174.337 145.958 171.014 144.724L171.016 144.725ZM191.07 151.313L191.214 152.501C194.571 153.461 197.964 154.36 201.298 155.172L201.042 153.954C197.743 153.152 194.387 152.265 191.068 151.314L191.07 151.313ZM210.918 156.142L211.285 157.384C214.576 158.041 217.889 158.63 221.133 159.133L220.657 157.87C217.449 157.373 214.173 156.789 210.918 156.141L210.918 156.142ZM230.218 159.136L230.802 160.413C233.977 160.757 237.156 161.03 240.252 161.217L239.563 159.932C236.501 159.746 233.356 159.475 230.217 159.136L230.218 159.136ZM248.656 160.257L249.448 161.543C252.45 161.573 255.445 161.524 258.348 161.395L257.465 160.111C254.587 160.236 251.626 160.285 248.656 160.256L248.656 160.257ZM265.933 159.493L266.918 160.774C269.705 160.488 272.465 160.118 275.123 159.675L274.049 158.407C271.42 158.845 268.688 159.211 265.934 159.492L265.933 159.493ZM281.767 156.856L282.929 158.107C285.449 157.509 287.931 156.826 290.302 156.075L289.059 154.847C286.715 155.589 284.26 156.265 281.767 156.856ZM295.889 152.384L297.21 153.585C299.421 152.684 301.58 151.695 303.625 150.645L302.234 149.476C300.212 150.514 298.079 151.491 295.891 152.382L295.889 152.384ZM308.059 146.146L309.517 147.276C311.364 146.099 313.15 144.831 314.87 143.475L313.358 142.391C311.69 143.703 309.907 144.967 308.059 146.144L308.059 146.146ZM318.084 138.228L319.655 139.268C321.138 137.815 322.539 136.281 323.852 134.673L322.234 133.683C320.936 135.274 319.55 136.791 318.084 138.227L318.084 138.228Z" fill="#090814"/>
<path d="M147.571 130.845L147.869 131.855L142.894 133.318L144.714 138.174L143.725 138.542L141.507 132.625L147.571 130.845Z" fill="#090814"/>
<path d="M322.763 127.394L323.081 128.398L328.023 126.824L329.234 131.866L330.259 131.617L328.784 125.473L322.763 127.394Z" fill="#090814"/>
</g>
<defs>
<clipPath id="clip0_239_338">
<rect width="379.495" height="297.239" fill="white"/>
</clipPath>
</defs>
</svg>
