<svg width="442" height="293" viewBox="0 0 442 293" fill="none" xmlns="http://www.w3.org/2000/svg">
<g clip-path="url(#clip0_239_389)">
<path d="M423.84 195.491C420.655 198.971 416.705 201.561 412.419 203.573H412.413C412.01 203.764 411.607 203.95 411.198 204.126H411.193L411.188 204.131L411.183 204.126H411.178L411.177 204.128L411.176 204.129L411.175 204.131L411.173 204.131H411.167L411.162 204.126C411.157 204.131 411.157 204.131 411.152 204.126L411.147 204.131L411.141 204.126H411.136C411.131 204.131 411.131 204.131 411.126 204.126H411.121C408.252 205.367 405.306 206.42 402.3 207.28C384.628 212.293 366.054 213.263 347.956 210.118C347.61 210.056 347.268 209.994 346.922 209.932V167.996C347.263 167.851 347.61 167.707 347.956 167.567C350.216 166.631 352.503 165.771 354.817 164.987C358.147 163.85 361.523 162.874 364.945 162.061C376.112 159.358 387.634 158.426 399.09 159.3C401.173 159.455 403.252 159.679 405.325 159.972C409.663 160.577 414.213 161.632 418.214 163.462H418.219C418.804 163.736 419.378 164.02 419.946 164.325C423.504 166.254 426.502 168.906 428.332 172.541C428.99 173.846 429.463 175.236 429.739 176.672V176.682C429.842 177.179 429.915 177.68 429.971 178.176C430.623 184.298 428.084 190.849 423.84 195.491Z" fill="#F2F2F2"/>
<path d="M429.971 178.176C429.921 178.189 429.869 178.196 429.816 178.197C420.96 178.585 412.115 179.16 403.283 179.924H403.267C403.231 179.929 403.2 179.929 403.164 179.934C394.095 180.72 385.046 181.704 376.015 182.886C375.633 182.938 375.255 182.99 374.877 183.036C368.632 183.869 362.398 184.793 356.177 185.808C353.431 186.257 350.691 186.726 347.956 187.214C347.61 187.276 347.268 187.333 346.922 187.4V185.834C347.268 185.766 347.615 185.709 347.956 185.647C357.066 184.034 366.207 182.626 375.379 181.423C377.685 181.113 379.994 180.82 382.307 180.544C388.987 179.738 395.677 179.042 402.378 178.456C402.869 178.414 403.355 178.373 403.846 178.332C412.424 177.603 421.013 177.049 429.615 176.672C429.656 176.67 429.698 176.673 429.739 176.682C430.566 176.755 430.742 177.995 429.971 178.176Z" fill="white"/>
<path d="M411.579 202.602C400.546 202.683 389.676 198.005 381.872 190.261C379.67 188.068 377.73 185.627 376.09 182.987C375.564 182.143 374.333 183.073 374.854 183.91C380.915 193.63 391.011 200.554 402.142 203.1C405.303 203.817 408.536 204.163 411.777 204.131C412.767 204.124 412.562 202.595 411.579 202.602Z" fill="white"/>
<path d="M364.945 162.061C364.898 162.206 364.814 162.337 364.7 162.439C364.587 162.542 364.449 162.613 364.299 162.645C361.771 163.308 359.328 164.262 357.02 165.489C353.649 167.269 350.588 169.582 347.956 172.339C347.817 172.479 347.682 172.619 347.553 172.763C347.336 172.991 347.129 173.224 346.922 173.461V171.207C347.253 170.856 347.599 170.509 347.956 170.178C350.035 168.188 352.337 166.446 354.817 164.987C358.147 163.85 361.523 162.874 364.945 162.061Z" fill="white"/>
<path d="M419.129 163.054C412.111 166.071 406.238 171.248 402.366 177.834C402.288 178.022 402.287 178.234 402.364 178.423C402.44 178.612 402.588 178.763 402.776 178.844C402.965 178.918 403.175 178.917 403.363 178.841C403.551 178.765 403.703 178.619 403.786 178.434C407.482 172.214 413.057 167.329 419.708 164.483C420.621 164.093 420.043 162.664 419.129 163.054Z" fill="white"/>
<path d="M440.286 119.143C439.086 123.703 436.786 127.834 433.927 131.603L433.922 131.608C433.658 131.96 433.384 132.317 433.1 132.658V132.663C431.114 135.109 428.971 137.421 426.683 139.586C418.459 147.423 409.17 154.06 399.09 159.3C383.233 167.583 365.509 172.479 347.956 172.758C347.822 172.763 347.687 172.763 347.553 172.763C347.341 172.768 347.129 172.768 346.922 172.768V149.27C347.258 148.629 347.604 147.988 347.956 147.352C352.518 139.144 358.08 131.534 364.517 124.696C364.672 124.525 364.832 124.354 364.992 124.189C367.412 121.635 369.948 119.203 372.603 116.894C382.813 107.916 394.613 100.928 407.393 96.2905C411.514 94.8118 416.033 93.6278 420.427 93.3952C421.073 93.359 421.715 93.3435 422.361 93.3486C426.409 93.4055 430.292 94.362 433.606 96.73C434.793 97.5823 435.858 98.593 436.77 99.7339C437.091 100.132 437.386 100.54 437.67 100.959V100.964C441.093 106.083 441.889 113.058 440.286 119.143Z" fill="#F2F2F2"/>
<path d="M437.67 100.959V100.964C437.632 100.998 437.59 101.027 437.546 101.052C429.894 105.504 422.338 110.117 414.88 114.893C414.869 114.898 414.864 114.903 414.854 114.908C414.824 114.929 414.793 114.948 414.761 114.965C407.093 119.877 399.534 124.954 392.084 130.197C391.774 130.414 391.458 130.636 391.143 130.858C385.999 134.493 380.908 138.205 375.87 141.995C366.357 149.161 357.052 156.592 347.956 164.289C347.61 164.579 347.268 164.873 346.922 165.168V163.157C347.263 162.862 347.61 162.567 347.956 162.278C351.441 159.336 354.957 156.436 358.503 153.576C359.563 152.723 360.628 151.87 361.693 151.028C371.155 143.494 380.829 136.242 390.714 129.271H390.719C392.663 127.901 394.611 126.543 396.561 125.197C402.104 121.381 407.709 117.657 413.375 114.024C413.783 113.761 414.197 113.497 414.611 113.233C421.865 108.601 429.213 104.12 436.657 99.7906C436.693 99.7685 436.731 99.7495 436.77 99.7337C437.546 99.4235 438.275 100.447 437.67 100.959Z" fill="white"/>
<path d="M432.732 131.134C422.999 136.331 411.2 137.237 400.691 134.005C397.723 133.086 394.87 131.825 392.192 130.249C391.334 129.746 390.676 131.142 391.527 131.64C401.409 137.433 413.566 138.875 424.606 135.959C427.738 135.125 430.762 133.929 433.617 132.396C434.49 131.93 433.598 130.671 432.732 131.134Z" fill="white"/>
<path d="M359.91 150.051C359.429 147.345 359.263 144.591 359.418 141.847C359.766 135.587 361.683 129.515 364.992 124.19C367.414 121.637 369.952 119.205 372.604 116.894C372.629 117.045 372.614 117.2 372.561 117.343C372.508 117.487 372.418 117.614 372.301 117.713C370.371 119.474 368.651 121.454 367.176 123.611C361.909 131.299 359.853 140.741 361.447 149.923C361.472 150.028 361.471 150.137 361.443 150.24C361.414 150.343 361.36 150.438 361.284 150.514C361.174 150.611 361.04 150.676 360.896 150.705C360.752 150.733 360.604 150.724 360.465 150.677C360.326 150.63 360.201 150.548 360.104 150.438C360.007 150.328 359.94 150.195 359.91 150.051Z" fill="white"/>
<path d="M421.047 92.6055C416.233 98.5369 413.437 105.85 413.067 113.48C413.085 113.683 413.183 113.871 413.339 114.003C413.495 114.135 413.696 114.2 413.9 114.184C414.101 114.163 414.287 114.064 414.418 113.909C414.549 113.754 414.616 113.555 414.604 113.352C414.987 106.128 417.655 99.2116 422.223 93.6014C422.85 92.8321 421.675 91.8347 421.047 92.6055Z" fill="white"/>
<path d="M367.505 109.593V109.599C367.469 110.043 367.427 110.483 367.381 110.922V110.933C367.021 114.061 366.46 117.162 365.7 120.218C365.339 121.718 364.945 123.207 364.517 124.696C364.465 124.887 364.408 125.078 364.351 125.264V125.27C363.088 129.6 361.58 133.855 359.832 138.014C356.617 145.671 352.639 152.984 347.956 159.843C347.62 160.344 347.274 160.846 346.922 161.342V80.3765C347.268 80.3558 347.61 80.3558 347.956 80.3662C348.122 80.3662 348.287 80.3713 348.453 80.3817C349.911 80.4583 351.352 80.7385 352.734 81.2141C353.22 81.3744 353.69 81.5553 354.155 81.757C359.796 84.2283 364.227 89.6778 366.15 95.6701C367.593 100.158 367.882 104.878 367.505 109.593Z" fill="#F2F2F2"/>
<path d="M354.155 81.7568C354.143 81.8075 354.124 81.8562 354.098 81.9016C352.004 85.9706 349.957 90.0602 347.956 94.1705C347.61 94.8788 347.263 95.5923 346.922 96.3007V92.7849C347.263 92.0817 347.608 91.3786 347.956 90.6754C349.502 87.5423 351.074 84.4229 352.671 81.3173C352.689 81.2811 352.71 81.2465 352.734 81.2139C353.209 80.5314 354.388 80.9968 354.155 81.7568Z" fill="white"/>
<path d="M367.67 110.426C367.577 110.591 367.484 110.757 367.381 110.922C365.862 113.568 364.056 116.037 361.993 118.285C358.032 122.582 353.262 126.056 347.956 128.506C347.615 128.672 347.268 128.827 346.922 128.971V127.291C347.268 127.136 347.615 126.976 347.956 126.81C355.637 123.147 362.016 117.227 366.243 109.842C366.304 109.736 366.387 109.645 366.486 109.574C366.586 109.504 366.699 109.455 366.819 109.432C366.938 109.409 367.061 109.412 367.18 109.441C367.298 109.47 367.409 109.523 367.505 109.599C367.57 109.642 367.626 109.698 367.67 109.763C367.713 109.828 367.744 109.901 367.759 109.978C367.774 110.055 367.774 110.134 367.759 110.211C367.744 110.288 367.714 110.361 367.67 110.426Z" fill="white"/>
<path d="M347.956 17.0617V56.3555H346.922V55.9367H1.03405V56.3555H0V17.0617C0.00444038 12.5381 1.80344 8.20091 5.00217 5.00217C8.20091 1.80344 12.5381 0.00444038 17.0617 0H330.895C335.418 0.00444038 339.755 1.80344 342.954 5.00217C346.153 8.20091 347.952 12.5381 347.956 17.0617Z" fill="#87D800"/>
<path d="M330.895 0H17.0617C12.5381 0.00444038 8.20091 1.80344 5.00217 5.00217C1.80344 8.20091 0.00444038 12.5381 0 17.0617V241.45C0.00444038 245.973 1.80344 250.31 5.00217 253.509C8.20091 256.708 12.5381 258.507 17.0617 258.511H330.895C335.418 258.507 339.755 256.708 342.954 253.509C346.153 250.31 347.952 245.973 347.956 241.45V17.0617C347.952 12.5381 346.153 8.20091 342.954 5.00217C339.755 1.80344 335.418 0.00444038 330.895 0ZM346.922 241.45C346.917 245.699 345.226 249.772 342.222 252.777C339.217 255.782 335.144 257.472 330.895 257.477H17.0617C12.8126 257.472 8.73904 255.782 5.73443 252.777C2.72983 249.772 1.03947 245.699 1.03405 241.45V17.0617C1.03947 12.8126 2.72983 8.73905 5.73443 5.73444C8.73904 2.72984 12.8126 1.03947 17.0617 1.03405H330.895C335.144 1.03947 339.217 2.72984 342.222 5.73444C345.226 8.73905 346.917 12.8126 346.922 17.0617V241.45Z" fill="#3F3D56"/>
<path d="M70.3151 38.5183C76.0259 38.5183 80.6555 33.8887 80.6555 28.1779C80.6555 22.467 76.0259 17.8374 70.3151 17.8374C64.6042 17.8374 59.9746 22.467 59.9746 28.1779C59.9746 33.8887 64.6042 38.5183 70.3151 38.5183Z" fill="white"/>
<path d="M277.641 38.5183C283.352 38.5183 287.982 33.8887 287.982 28.1779C287.982 22.467 283.352 17.8374 277.641 17.8374C271.93 17.8374 267.301 22.467 267.301 28.1779C267.301 33.8887 271.93 38.5183 277.641 38.5183Z" fill="white"/>
<path d="M100.191 143.475H38.6776C36.0716 143.472 33.5732 142.435 31.7305 140.593C29.8877 138.75 28.8512 136.252 28.8483 133.646V104.572C28.8512 101.966 29.8877 99.4676 31.7305 97.6249C33.5732 95.7822 36.0716 94.7456 38.6776 94.7427H100.191C102.797 94.7456 105.295 95.7822 107.138 97.6249C108.981 99.4676 110.017 101.966 110.02 104.572V133.646C110.017 136.252 108.981 138.75 107.138 140.593C105.295 142.435 102.797 143.472 100.191 143.475Z" fill="#87D800"/>
<path d="M204.836 143.475H143.322C140.716 143.472 138.218 142.435 136.375 140.593C134.532 138.75 133.496 136.252 133.493 133.646V104.572C133.496 101.966 134.532 99.4676 136.375 97.6249C138.218 95.7822 140.716 94.7456 143.322 94.7427H204.836C207.442 94.7456 209.94 95.7822 211.783 97.6249C213.626 99.4676 214.662 101.966 214.665 104.572V133.646C214.662 136.252 213.626 138.75 211.783 140.593C209.94 142.435 207.442 143.472 204.836 143.475Z" fill="#87D800"/>
<path d="M204.836 218.593H143.322C140.637 218.59 138.063 217.522 136.165 215.624C134.266 213.725 133.198 211.151 133.195 208.466V179.392C133.198 176.707 134.266 174.133 136.165 172.235C138.063 170.336 140.637 169.268 143.322 169.265H204.836C207.521 169.268 210.095 170.336 211.993 172.235C213.892 174.133 214.96 176.707 214.963 179.392V208.466C214.96 211.151 213.892 213.725 211.993 215.624C210.095 217.522 207.521 218.59 204.836 218.593Z" fill="#F2F2F2"/>
<path d="M99.9894 218.593H38.4759C35.791 218.59 33.2168 217.522 31.3183 215.624C29.4197 213.725 28.3518 211.151 28.3488 208.466V179.392C28.3518 176.707 29.4197 174.133 31.3183 172.235C33.2168 170.336 35.791 169.268 38.4759 169.265H99.9894C102.674 169.268 105.248 170.336 107.147 172.235C109.046 174.133 110.114 176.707 110.117 179.392V208.466C110.114 211.151 109.046 213.725 107.147 215.624C105.248 217.522 102.674 218.59 99.9894 218.593Z" fill="#F2F2F2"/>
<path d="M309.48 218.593H247.967C245.282 218.59 242.708 217.522 240.809 215.624C238.911 213.725 237.843 211.151 237.84 208.466V179.392C237.843 176.707 238.911 174.133 240.809 172.235C242.708 170.336 245.282 169.268 247.967 169.265H309.48C312.165 169.268 314.74 170.336 316.638 172.235C318.537 174.133 319.605 176.707 319.608 179.392V208.466C319.605 211.151 318.537 213.725 316.638 215.624C314.74 217.522 312.165 218.59 309.48 218.593Z" fill="#F2F2F2"/>
<path d="M309.48 143.533H247.967C245.282 143.53 242.708 142.462 240.809 140.564C238.911 138.665 237.843 136.091 237.84 133.406V104.332C237.843 101.647 238.911 99.0732 240.809 97.1746C242.708 95.276 245.282 94.2081 247.967 94.2051H309.48C312.165 94.2081 314.74 95.276 316.638 97.1746C318.537 99.0732 319.605 101.647 319.608 104.332V133.406C319.605 136.091 318.537 138.665 316.638 140.564C314.74 142.462 312.165 143.53 309.48 143.533Z" fill="#F2F2F2"/>
<path d="M69.4344 135.789C78.6465 135.789 86.1145 128.321 86.1145 119.109C86.1145 109.897 78.6465 102.429 69.4344 102.429C60.2222 102.429 52.7543 109.897 52.7543 119.109C52.7543 128.321 60.2222 135.789 69.4344 135.789Z" fill="white"/>
<path d="M67.7809 125.472C67.4057 125.473 67.0403 125.351 66.7401 125.126L66.7214 125.112L62.8015 122.111C62.6197 121.972 62.4671 121.798 62.3524 121.6C62.2377 121.402 62.1631 121.184 62.133 120.957C62.1028 120.73 62.1177 120.499 62.1767 120.278C62.2357 120.057 62.3377 119.85 62.4769 119.668C62.6161 119.487 62.7897 119.334 62.9879 119.22C63.186 119.105 63.4048 119.031 63.6317 119.001C63.8585 118.971 64.0891 118.986 64.3101 119.045C64.5312 119.105 64.7384 119.207 64.9199 119.346L67.459 121.293L73.4591 113.468C73.5983 113.287 73.7718 113.134 73.9698 113.02C74.1678 112.905 74.3865 112.831 74.6132 112.801C74.8399 112.771 75.0704 112.786 75.2913 112.845C75.5122 112.904 75.7193 113.007 75.9008 113.146L75.8635 113.196L75.9018 113.146C76.2679 113.428 76.5074 113.843 76.5678 114.301C76.6283 114.758 76.5046 115.221 76.2241 115.588L69.1665 124.792C69.0032 125.004 68.7933 125.176 68.5531 125.294C68.3128 125.412 68.0486 125.473 67.7809 125.472Z" fill="#87D800"/>
<path d="M174.377 135.549C183.589 135.549 191.057 128.081 191.057 118.869C191.057 109.657 183.589 102.189 174.377 102.189C165.165 102.189 157.697 109.657 157.697 118.869C157.697 128.081 165.165 135.549 174.377 135.549Z" fill="white"/>
<path d="M172.724 125.232C172.348 125.233 171.983 125.112 171.683 124.886L171.664 124.872L167.744 121.871C167.377 121.59 167.137 121.175 167.077 120.717C167.016 120.259 167.14 119.796 167.421 119.43C167.702 119.063 168.117 118.823 168.575 118.762C169.033 118.702 169.496 118.825 169.863 119.106L172.402 121.053L178.402 113.228C178.541 113.047 178.714 112.894 178.912 112.78C179.11 112.666 179.329 112.591 179.556 112.561C179.783 112.531 180.013 112.546 180.234 112.606C180.455 112.665 180.662 112.767 180.843 112.906L180.806 112.957L180.844 112.907C181.21 113.188 181.45 113.603 181.51 114.061C181.571 114.519 181.447 114.982 181.167 115.348L174.109 124.553C173.946 124.765 173.736 124.936 173.496 125.054C173.255 125.172 172.991 125.233 172.724 125.232Z" fill="#87D800"/>
<path d="M287.109 197.58C287.657 196.981 288.067 196.269 288.31 195.494C288.553 194.719 288.623 193.901 288.515 193.096C288.408 192.291 288.125 191.52 287.687 190.836C287.249 190.152 286.666 189.573 285.98 189.139L276.668 139.415L265.343 143.615L278.058 191.171C277.405 192.372 277.215 193.771 277.524 195.102C277.834 196.434 278.621 197.606 279.736 198.396C280.852 199.186 282.219 199.539 283.578 199.389C284.936 199.238 286.193 198.595 287.109 197.58Z" fill="#A0616A"/>
<path d="M196.741 121.707C196.769 122.016 196.773 122.327 196.753 122.636L218.773 139.584L225.017 137.019L230.119 145.938L219.505 151.551C218.648 152.005 217.666 152.168 216.708 152.016C215.75 151.865 214.867 151.406 214.192 150.71L192.182 128.018C191.017 128.281 189.799 128.183 188.691 127.737C187.583 127.291 186.637 126.518 185.979 125.521C185.321 124.524 184.982 123.351 185.008 122.157C185.033 120.963 185.421 119.805 186.12 118.837C186.82 117.868 187.797 117.136 188.923 116.737C190.049 116.338 191.269 116.292 192.422 116.603C193.575 116.915 194.606 117.57 195.378 118.482C196.149 119.394 196.625 120.519 196.741 121.707Z" fill="#A0616A"/>
<path d="M248.185 285.835H241.847L238.831 266.557L248.187 266.557L248.185 285.835Z" fill="#A0616A"/>
<path d="M249.802 291.98L229.364 291.979V291.721C229.364 290.676 229.57 289.641 229.97 288.676C230.369 287.711 230.955 286.834 231.694 286.096C232.433 285.357 233.31 284.771 234.275 284.371C235.24 283.971 236.274 283.766 237.319 283.766L249.803 283.766L249.802 291.98Z" fill="#2F2E41"/>
<path d="M271.968 285.835H265.63L262.615 266.557L271.97 266.557L271.968 285.835Z" fill="#A0616A"/>
<path d="M273.585 291.98L253.147 291.979V291.721C253.147 290.676 253.353 289.641 253.752 288.676C254.152 287.711 254.738 286.834 255.477 286.096C256.216 285.357 257.093 284.771 258.058 284.371C259.023 283.971 260.057 283.766 261.102 283.766L273.586 283.766L273.585 291.98Z" fill="#2F2E41"/>
<path d="M240.531 282.025C239.952 282.026 239.394 281.81 238.966 281.421C238.538 281.031 238.271 280.496 238.217 279.92L232.694 205.629L232.955 205.608L270.967 202.483L270.977 202.754L273.999 279.713C274.01 280.025 273.959 280.337 273.847 280.629C273.736 280.922 273.566 281.188 273.349 281.414C273.132 281.639 272.872 281.818 272.584 281.941C272.296 282.063 271.986 282.126 271.674 282.126H264.22C263.664 282.129 263.125 281.931 262.703 281.568C262.281 281.206 262.003 280.704 261.921 280.153L251.8 217.984C251.79 217.92 251.756 217.862 251.705 217.821C251.654 217.781 251.59 217.761 251.525 217.766C251.461 217.77 251.4 217.799 251.355 217.847C251.311 217.894 251.286 217.956 251.286 218.021L250.827 279.404C250.822 279.997 250.591 280.566 250.182 280.994C249.772 281.423 249.214 281.679 248.622 281.711L240.656 282.022C240.614 282.024 240.572 282.025 240.531 282.025Z" fill="#2F2E41"/>
<path d="M247.019 111.742C254.032 111.742 259.718 106.057 259.718 99.0433C259.718 92.0301 254.032 86.3447 247.019 86.3447C240.006 86.3447 234.32 92.0301 234.32 99.0433C234.32 106.057 240.006 111.742 247.019 111.742Z" fill="#A0616A"/>
<path d="M249.477 210.367C243.927 210.35 238.403 209.596 233.052 208.122C232.537 207.972 232.09 207.649 231.785 207.208C231.48 206.767 231.337 206.234 231.379 205.699C233.089 180.007 233.491 160.068 229.896 146.273C228.364 140.393 229.059 134.201 231.804 129.284C235.935 121.884 243.528 117.38 251.627 117.535C252.014 117.542 252.405 117.556 252.8 117.577C265.091 118.209 274.668 129.329 274.15 142.364L271.677 204.493C271.668 204.947 271.525 205.387 271.266 205.759C271.007 206.131 270.644 206.418 270.222 206.584C263.59 209.079 256.563 210.361 249.477 210.367Z" fill="#3F3D56"/>
<path d="M231.986 151.044L222.474 139.388C222.203 139.056 222.007 138.67 221.899 138.256C221.791 137.841 221.774 137.409 221.848 136.987C221.922 136.566 222.087 136.165 222.33 135.813C222.573 135.46 222.889 135.164 223.257 134.945L236.142 127.268C237.846 125.892 240.027 125.249 242.205 125.479C244.383 125.709 246.381 126.793 247.761 128.494C249.141 130.195 249.79 132.374 249.566 134.553C249.341 136.732 248.262 138.733 246.565 140.117L236.495 151.167C236.206 151.484 235.853 151.734 235.459 151.901C235.065 152.069 234.64 152.15 234.212 152.138C233.784 152.126 233.364 152.022 232.979 151.833C232.595 151.645 232.256 151.375 231.986 151.044Z" fill="#3F3D56"/>
<path d="M261.908 149.581C261.517 149.406 261.169 149.149 260.887 148.827C260.604 148.505 260.395 148.127 260.272 147.716L255.99 133.392C255.061 131.409 254.956 129.137 255.699 127.077C256.441 125.016 257.971 123.334 259.952 122.399C261.933 121.465 264.204 121.354 266.267 122.092C268.329 122.83 270.015 124.355 270.955 126.334L279.236 138.84C279.472 139.197 279.628 139.601 279.695 140.023C279.761 140.446 279.735 140.879 279.619 141.291C279.503 141.703 279.3 142.085 279.023 142.411C278.746 142.738 278.402 143.001 278.015 143.182L264.389 149.56C264.001 149.742 263.579 149.838 263.151 149.841C262.723 149.845 262.299 149.756 261.908 149.581Z" fill="#3F3D56"/>
<path d="M253.294 109.463L243.881 107.308C242.91 107.086 241.744 106.662 241.609 105.675C241.428 104.349 243.337 103.425 243.161 102.098C242.99 100.813 241.251 100.647 240.012 100.268C238.857 99.8628 237.905 99.0245 237.358 97.9301C236.811 96.8358 236.711 95.5715 237.079 94.4047C235.738 96.2949 232.673 96.4568 230.933 94.9254C229.194 93.394 228.86 90.6154 229.905 88.5465C230.469 87.5302 231.265 86.6615 232.229 86.0111C233.192 85.3606 234.296 84.9467 235.449 84.803C237.769 84.54 240.114 84.9771 242.182 86.0582C242.32 84.5933 244.149 83.9994 245.621 83.9863C248.677 84.0219 251.646 85.0095 254.115 86.8115C256.584 88.6136 258.43 91.1404 259.396 94.0405C261.201 99.8581 259.994 106.235 254.942 109.639L253.294 109.463Z" fill="#2F2E41"/>
<path d="M348.105 292.118H151.119C150.982 292.118 150.85 292.064 150.753 291.967C150.657 291.87 150.602 291.738 150.602 291.601C150.602 291.464 150.657 291.332 150.753 291.235C150.85 291.138 150.982 291.084 151.119 291.084H348.105C348.242 291.084 348.373 291.138 348.47 291.235C348.567 291.332 348.622 291.464 348.622 291.601C348.622 291.738 348.567 291.87 348.47 291.967C348.373 292.064 348.242 292.118 348.105 292.118Z" fill="#3F3D56"/>
</g>
<defs>
<clipPath id="clip0_239_389">
<rect width="441.081" height="292.118" fill="white"/>
</clipPath>
</defs>
</svg>
