<svg width="537" height="398" viewBox="0 0 537 398" fill="none" xmlns="http://www.w3.org/2000/svg">
<g clip-path="url(#clip0_239_299)">
<path d="M485.453 395.298H371.778V391.81C371.778 388.781 372.981 385.876 375.123 383.735C377.264 381.593 380.169 380.39 383.198 380.39H474.033C477.061 380.39 479.966 381.593 482.108 383.735C484.249 385.876 485.453 388.781 485.453 391.81V395.298Z" fill="#E6E6E6"/>
<path d="M425.955 381.086L429.412 379.693C393.242 289.912 396.726 176.646 427.302 79.4838C430.934 68.2261 431.196 56.1523 428.056 44.7477C424.915 33.3432 418.51 23.1053 409.627 15.2938C391.88 -0.543405 367.413 -4.40148 345.77 5.22413C324.407 14.7269 321.463 31.2793 321.463 47.7512H325.19C325.19 30.1683 328.947 16.7865 347.285 8.62952C367.569 -0.391447 390.505 3.22686 407.145 18.075C415.488 25.4117 421.505 35.0274 424.455 45.739C427.404 56.4507 427.158 67.7909 423.747 78.3646C392.818 176.649 389.538 290.693 425.955 381.086Z" fill="#E6E6E6"/>
<path d="M324.258 102.725C331.463 102.725 337.303 96.8847 337.303 89.6804C337.303 82.476 331.463 76.6357 324.258 76.6357C317.054 76.6357 311.214 82.476 311.214 89.6804C311.214 96.8847 317.054 102.725 324.258 102.725Z" fill="#E6E6E6"/>
<path d="M304.168 112.421V87.7043H308.012V112.421C309.114 112.867 310.027 113.682 310.594 114.727C311.161 115.773 311.347 116.983 311.12 118.15C310.893 119.317 310.267 120.369 309.349 121.126C308.431 121.882 307.279 122.295 306.09 122.295C304.901 122.295 303.749 121.882 302.831 121.126C301.913 120.369 301.287 119.317 301.06 118.15C300.833 116.983 301.019 115.773 301.586 114.727C302.153 113.682 303.066 112.867 304.168 112.421Z" fill="#E6E6E6"/>
<path d="M285.59 68.7156C285.597 63.0339 287.857 57.5867 291.874 53.5691C295.892 49.5515 301.339 47.2916 307.021 47.2852H342.428C348.111 47.2852 353.562 49.543 357.581 53.562C361.6 57.581 363.858 63.0319 363.858 68.7156C363.858 74.3994 361.6 79.8503 357.581 83.8693C353.562 87.8883 348.111 90.1461 342.428 90.1461H307.021C301.339 90.1397 295.892 87.8798 291.874 83.8622C287.857 79.8446 285.597 74.3974 285.59 68.7156Z" fill="#87D800"/>
<path d="M235.703 201.427C239.258 155.945 257.434 134.275 245.796 120.686C234.648 107.669 203.245 110.358 183.078 122.849C128.682 156.539 108.753 290.816 178.752 356.42C245.269 418.761 371.332 398.795 399.347 347.769C405.884 335.864 411.077 314.993 401.51 302.353C377.758 270.972 291.4 327.812 253.005 292.26C230.25 271.191 233.752 226.387 235.703 201.427Z" fill="#3F3D56"/>
<path d="M277.284 178.831C275.963 179.439 274.931 180.538 274.408 181.895C273.885 183.252 273.912 184.76 274.484 186.097C274.604 186.367 274.747 186.627 274.91 186.873L263.234 202.463L269.06 211.17L282.745 188.085C283.715 187.329 284.407 186.273 284.713 185.083C285.02 183.892 284.923 182.633 284.439 181.503C284.158 180.862 283.753 180.284 283.247 179.8C282.742 179.316 282.146 178.936 281.494 178.682C280.842 178.429 280.147 178.306 279.447 178.321C278.748 178.336 278.058 178.489 277.417 178.771C277.373 178.79 277.328 178.811 277.284 178.831Z" fill="#FFB6B6"/>
<path d="M277.275 205.71C278.039 206.387 275.919 207.224 273.678 205.904C273.036 205.522 272.762 205.364 272.69 205.465C272.51 205.717 273.562 207.577 273.281 211.707C273.108 214.173 269.013 218.808 264.363 223.328C258.077 229.442 250.767 235.339 250.767 235.339L248.201 233.284L221.29 211.707L216.748 205.421C217.164 202.939 217.789 200.496 218.615 198.119C219.754 194.828 221.107 191.615 222.667 188.502C223.503 186.808 224.361 185.193 225.183 183.708L239.601 199.596L251.683 212.904C251.683 212.904 255.201 207.238 257.926 205.695C258.273 205.473 258.669 205.337 259.079 205.299C261.833 205.169 261.999 203.67 258.805 200.404C255.612 197.138 259.642 200.188 262.482 199.308C265.322 198.429 262.482 199.308 263.08 197.109C263.679 194.911 271.645 190.499 271.645 190.499L271.976 190.794L277.996 196.107L279.719 197.628C279.719 197.628 277.837 202.79 277.318 203.879C276.799 204.967 276.518 205.025 277.275 205.71Z" fill="#87D800"/>
<path d="M435.957 305.854L436.25 297.902L405.719 292.987L405.286 304.722L435.957 305.854Z" fill="#FFB6B6"/>
<path d="M430.415 308.248L430.125 295.516L435.568 295.717L444.355 283.947C444.789 283.366 445.397 282.938 446.091 282.727C446.785 282.516 447.529 282.532 448.213 282.774C448.897 283.015 449.486 283.468 449.894 284.068C450.302 284.668 450.508 285.383 450.481 286.108L449.923 301.232L444.443 303.64L449.789 304.857L449.579 310.559L430.415 308.248Z" fill="#2F2E41"/>
<path d="M264.124 308.95L360.828 311.402C360.828 311.402 402.588 313.814 412.385 307.44L422.718 306.136L423.278 290.959C423.278 290.959 416.96 291.005 413.327 289.313C409.694 287.62 412.219 285.549 408.756 287.586C405.292 289.622 405.658 289.867 402.98 288.931C400.303 287.995 277.508 269.279 277.508 269.279L264.124 308.95Z" fill="#2F2E41"/>
<path d="M391.554 302.364L397.177 296.734L378.138 272.365L369.839 280.674L391.554 302.364Z" fill="#FFB6B6"/>
<path d="M385.863 297.466L394.31 287.936L398.163 291.785L412.61 289.133C413.323 289.001 414.06 289.102 414.712 289.419C415.365 289.736 415.899 290.254 416.236 290.896C416.574 291.538 416.697 292.272 416.588 292.989C416.479 293.706 416.144 294.37 415.632 294.883L404.936 305.591L399.281 303.629L402.373 308.157L398.34 312.195L385.863 297.466Z" fill="#2F2E41"/>
<path d="M225.971 255.988L226.933 278.336C228.065 304.644 257.037 320.567 279.503 306.831C279.917 306.578 280.333 306.315 280.749 306.044C280.749 306.044 289.266 303.757 289.008 300.135C288.749 296.512 290.83 294.75 292.671 295.737C294.513 296.725 318.621 262.511 318.621 262.511C318.621 262.511 368.71 287.496 379.76 293.378C379.76 293.378 390.149 277.134 389.396 277.304C388.643 277.475 327.43 234.631 327.43 234.631C327.43 234.631 317.457 224.538 305.087 231.202C304.829 232.181 305.05 232.215 305.05 232.215L264.186 265.512L258.412 254.547L225.971 255.988Z" fill="#2F2E41"/>
<path d="M264.5 228.05C264.423 229.083 264.276 230.109 264.06 231.121C263.766 232.587 263.292 234.011 262.648 235.36C262.648 235.36 262.648 236.867 259.764 241.913C256.88 246.96 260.485 244.797 262.648 248.546C264.81 252.287 262.648 250.564 260.247 252.972C259.556 253.673 259.065 254.546 258.825 255.5C258.586 256.455 258.606 257.456 258.884 258.4C258.884 258.4 227.915 258.422 222.147 256.259C216.38 254.097 215.068 241.913 220.237 240.71C225.399 239.506 218.673 238.309 215.638 235.533C212.603 232.758 218.673 228.216 218.673 228.216C218.673 228.216 216.171 223.898 216.38 209.401C216.41 208.067 216.533 206.738 216.748 205.421C217.164 202.939 217.788 200.496 218.615 198.119C219.754 194.828 221.107 191.615 222.666 188.502C223.503 186.808 224.361 185.193 225.182 183.708C225.312 183.477 225.435 183.254 225.564 183.03C227.129 180.262 228.556 177.998 229.501 176.549C230.229 175.425 230.668 174.79 230.668 174.79L235.917 165.664L253.434 173.875L252.44 187.305L255.46 197.434L256.851 202.098L257.926 205.695L259.584 211.268C259.584 211.268 259.129 211.29 259.67 212.032C262.16 215.343 263.774 219.228 264.363 223.329C264.571 224.894 264.617 226.476 264.5 228.05Z" fill="#87D800"/>
<path d="M315.09 229.498L314.761 229.392L272.833 215.89L288.283 165.202C288.591 164.193 289.124 163.267 289.842 162.493C290.559 161.72 291.443 161.119 292.427 160.737C293.41 160.355 294.468 160.201 295.519 160.287C296.571 160.372 297.59 160.696 298.498 161.233L325.292 177.063C327.413 178.315 329.027 180.272 329.851 182.592C330.675 184.913 330.658 187.45 329.802 189.759L315.09 229.498Z" fill="#2F2E41"/>
<path d="M315.26 232.72L272.995 219.11L288.445 168.422C288.753 167.413 289.285 166.486 290.003 165.713C290.721 164.939 291.605 164.339 292.588 163.957C293.572 163.574 294.629 163.42 295.681 163.506C296.733 163.592 297.751 163.916 298.66 164.452L326.733 178.468C330.95 180.96 330.852 187.407 328.893 192.697L315.26 232.72Z" fill="#87D800"/>
<path d="M311.029 236.389C310.055 236.938 308.979 237.279 307.867 237.389C306.755 237.5 305.632 237.378 304.569 237.031L277.554 228.331C275.481 227.654 273.756 226.193 272.745 224.261C271.735 222.329 271.521 220.078 272.148 217.989L285.692 173.555C285.962 172.668 286.408 171.843 287.001 171.129C287.595 170.416 288.325 169.828 289.148 169.401C289.972 168.973 290.873 168.714 291.798 168.64C292.723 168.565 293.654 168.675 294.535 168.965L322.531 178.157C323.865 178.595 325.098 179.296 326.157 180.218C327.215 181.141 328.078 182.266 328.695 183.527C329.311 184.789 329.668 186.161 329.746 187.563C329.823 188.964 329.618 190.368 329.144 191.689L314.663 232.062C314.013 233.895 312.722 235.432 311.029 236.389Z" fill="#3F3D56"/>
<path d="M252.444 165.82C263.131 165.82 271.794 157.156 271.794 146.47C271.794 135.783 263.131 127.12 252.444 127.12C241.758 127.12 233.095 135.783 233.095 146.47C233.095 157.156 241.758 165.82 252.444 165.82Z" fill="#FFB6B6"/>
<path d="M187.013 166.111C188.789 169.553 191.7 172.275 195.254 173.815C196.672 174.461 198.163 174.933 199.695 175.22C200.128 173.503 200.821 171.863 201.75 170.356C201.44 172.054 201.44 173.795 201.75 175.494C204.083 175.685 206.431 175.394 208.647 174.638C210.823 173.898 212.797 172.661 214.411 171.025C216.026 169.389 217.238 167.399 217.949 165.214C219.491 160.085 217.83 154.606 217.7 149.253C217.565 143.899 220.107 137.495 225.423 136.832C229.47 136.327 228.97 136.719 231.878 139.579C227.81 144.098 237.728 164.115 243.05 163.231C246.059 162.731 248.274 160.342 248.869 160.425C251.916 167.888 242.749 178.472 250.02 181.947L249.48 181.233C245.675 174.946 256.935 164.328 253.13 158.041C252.069 156.282 250.966 154.22 251.622 152.274C252.245 150.425 255.4 149.839 256.066 151.523C254.984 147.664 258.005 143.134 262.017 142.741C265.581 142.389 265.376 143.405 268.774 144.332C269.208 142.868 269.834 141.468 270.635 140.167C270.364 141.651 270.331 143.168 270.536 144.662C271.762 144.808 273.002 144.545 274.063 143.915C277.202 142.034 277.295 137.177 275.139 134.221C272.979 131.265 269.361 129.805 265.871 128.701C265.839 121.32 245.978 117.786 242.325 124.649C241.949 119.092 235.58 115.349 230.093 116.293C224.606 117.237 220.277 121.637 217.638 126.541C215 131.44 213.69 136.927 211.758 142.146C209.827 147.366 207.065 152.57 202.44 155.667C197.815 158.76 190.942 159.04 187.08 155.032C186.2 156.743 185.735 158.638 185.723 160.563C185.711 162.488 186.153 164.389 187.013 166.111Z" fill="#2F2E41"/>
<path d="M206.867 254.595C207.268 254.275 207.702 254 208.162 253.775C215.569 250.089 238.6 240.521 256.609 240.914C291.26 241.669 335.358 279.91 325.095 305.591C317.285 325.132 278.461 336.249 250.121 327.357C210.419 314.901 194.748 264.259 206.867 254.595Z" fill="#3F3D56"/>
<path d="M63.0174 395.371C51.695 393.235 41.6726 342.226 63.9492 317.104C71.5815 308.496 81.1018 304.75 93.7655 301.264C166.654 281.197 222.247 300.321 229.718 304.991C237.172 309.65 250.24 379.845 233.53 389.781C224.128 395.371 205.492 398.167 196.259 391.644C182.673 382.047 205.477 357.154 195.327 340.398C183.809 321.383 123.157 314.978 92.7494 333.875C60.307 354.037 127.224 407.484 63.0174 395.371Z" fill="#F2F2F2"/>
<path d="M138.718 308.644H95.4621C84.7841 298.41 77.1492 288.548 83.2618 280.361C83.2618 278.008 84.1966 275.751 85.8606 274.087C87.5246 272.423 89.7815 271.488 92.1348 271.488H142.045C144.399 271.488 146.656 272.423 148.32 274.087C149.984 275.751 150.918 278.008 150.918 280.361C153.246 289.689 149.088 299.118 138.718 308.644Z" fill="#CCCCCC"/>
<path d="M130.95 260.318C130.539 260.337 130.133 260.229 129.786 260.009C129.439 259.79 129.168 259.468 129.009 259.089C128.851 258.71 128.812 258.292 128.9 257.89C128.987 257.489 129.196 257.124 129.497 256.845L129.635 256.299C129.617 256.255 129.599 256.212 129.58 256.168C129.167 255.192 128.474 254.359 127.589 253.775C126.704 253.191 125.666 252.881 124.605 252.885C123.545 252.889 122.509 253.206 121.628 253.797C120.747 254.388 120.061 255.225 119.654 256.205C118.031 260.115 115.964 264.032 115.455 268.166C115.231 269.993 115.326 271.846 115.735 273.641C111.922 265.323 109.942 256.283 109.929 247.133C109.928 244.837 110.056 242.543 110.311 240.261C110.522 238.39 110.815 236.533 111.189 234.689C113.233 224.684 117.621 215.306 123.993 207.326C127.076 205.643 129.57 203.056 131.138 199.912C131.706 198.782 132.108 197.576 132.33 196.331C131.982 196.376 131.019 191.078 131.281 190.753C130.796 190.018 129.928 189.652 129.399 188.934C126.766 185.364 123.138 185.987 121.244 190.839C117.198 192.881 117.159 196.267 119.641 199.524C121.221 201.597 121.438 204.4 122.823 206.619C122.681 206.801 122.533 206.978 122.39 207.161C119.784 210.512 117.512 214.111 115.608 217.905C116.071 213.654 115.518 209.354 113.995 205.359C112.452 201.635 109.558 198.499 107.01 195.279C103.95 191.413 97.6745 193.1 97.1353 198.002C97.1301 198.049 97.125 198.097 97.12 198.144C97.4984 198.358 97.8689 198.584 98.2314 198.824C98.6867 199.128 99.0395 199.563 99.2436 200.071C99.4477 200.579 99.4935 201.137 99.3751 201.672C99.2566 202.207 98.9794 202.693 98.5798 203.067C98.1802 203.442 97.6767 203.687 97.1355 203.77L97.0801 203.779C97.2149 205.143 97.4532 206.494 97.793 207.822C94.5244 220.463 101.581 225.067 111.657 225.273C111.879 225.388 112.096 225.502 112.319 225.61C110.405 231.032 109.205 236.68 108.748 242.411C108.49 245.792 108.505 249.189 108.794 252.568L108.777 252.448C108.047 248.691 106.043 245.301 103.102 242.85C98.7356 239.263 92.5661 237.942 87.855 235.059C87.3544 234.737 86.7722 234.566 86.1772 234.564C85.5822 234.563 84.9993 234.731 84.497 235.05C83.9948 235.369 83.5943 235.825 83.3427 236.365C83.0911 236.904 82.9989 237.504 83.0771 238.093C83.0834 238.135 83.0898 238.177 83.0964 238.219C83.7986 238.505 84.4824 238.835 85.1437 239.206C85.5221 239.419 85.8926 239.646 86.255 239.886C86.7104 240.19 87.0632 240.625 87.2673 241.133C87.4714 241.641 87.5172 242.199 87.3987 242.734C87.2803 243.268 87.0031 243.755 86.6035 244.129C86.2039 244.504 85.7005 244.748 85.1592 244.832L85.1038 244.84C85.0638 244.846 85.0296 244.852 84.9897 244.858C86.1897 247.723 87.8738 250.36 89.9684 252.654C92.0122 263.688 100.79 264.735 110.18 261.522H110.186C111.216 265.999 112.709 270.356 114.64 274.525H130.551C130.608 274.348 130.659 274.165 130.711 273.988C129.238 274.081 127.759 273.993 126.308 273.726C127.488 272.278 128.669 270.818 129.85 269.369C129.876 269.342 129.901 269.313 129.924 269.283C130.523 268.542 131.127 267.806 131.726 267.065L131.726 267.064C131.758 264.792 131.497 262.524 130.95 260.318Z" fill="#CCCCCC"/>
<path d="M185.22 306.326C185.484 307.095 185.985 307.76 186.65 308.226C187.315 308.692 188.111 308.935 188.924 308.921L204.792 308.512C205.611 308.496 206.402 308.216 207.047 307.713C207.693 307.21 208.159 306.512 208.375 305.723L210.62 281.711C211.417 282.072 212.284 282.25 213.159 282.232C214.693 282.194 216.149 281.547 217.207 280.435C218.265 279.323 218.837 277.836 218.799 276.302C218.76 274.767 218.114 273.311 217.002 272.254C215.89 271.196 214.403 270.623 212.868 270.662C212.519 270.661 212.17 270.697 211.828 270.77C211.457 270.368 211.005 270.048 210.502 269.831C209.999 269.614 209.457 269.505 208.909 269.51L184.499 270.141C184.297 270.148 184.096 270.173 183.897 270.215C183.362 270.315 182.854 270.528 182.408 270.841C181.962 271.153 181.589 271.558 181.312 272.027C181.035 272.496 180.863 273.019 180.805 273.56C180.747 274.102 180.807 274.649 180.978 275.166L185.22 306.326ZM211.081 280.08L212.679 274.358C212.861 273.697 212.865 273 212.691 272.337C212.768 272.337 212.837 272.3 212.914 272.3C214.01 272.277 215.07 272.69 215.861 273.448C216.653 274.205 217.112 275.246 217.137 276.341C217.163 277.437 216.753 278.498 215.998 279.291C215.243 280.085 214.204 280.547 213.108 280.576C212.4 280.598 211.699 280.427 211.081 280.08Z" fill="#CCCCCC"/>
<path d="M183.897 270.215C184.417 273.189 190.264 275.279 197.294 274.916C203.759 274.618 209.045 272.348 210.014 269.657C209.655 269.551 209.282 269.502 208.909 269.51L184.499 270.141C184.297 270.148 184.095 270.173 183.897 270.215Z" fill="white"/>
<path d="M0.849835 396.497L535.265 396.716C535.49 396.716 535.706 396.627 535.866 396.467C536.025 396.308 536.115 396.092 536.115 395.867C536.115 395.641 536.025 395.425 535.866 395.266C535.706 395.106 535.49 395.017 535.265 395.017L0.849835 394.797C0.624444 394.797 0.408286 394.887 0.24891 395.046C0.0895346 395.206 0 395.422 0 395.647C0 395.873 0.0895346 396.089 0.24891 396.248C0.408286 396.408 0.624444 396.497 0.849835 396.497Z" fill="#CACACA"/>
<path d="M300.587 206.567C299.133 206.62 297.758 207.238 296.753 208.29C295.749 209.341 295.194 210.743 295.208 212.197C295.215 212.493 295.247 212.787 295.303 213.078L278.531 222.98L280.561 233.258L302.07 217.209C303.256 216.884 304.3 216.176 305.041 215.194C305.782 214.213 306.177 213.014 306.164 211.784C306.151 211.085 305.999 210.395 305.719 209.754C305.438 209.113 305.035 208.533 304.53 208.048C304.026 207.563 303.431 207.182 302.779 206.927C302.128 206.672 301.432 206.548 300.733 206.562C300.684 206.563 300.635 206.565 300.587 206.567Z" fill="#FFB6B6"/>
<path d="M286.847 230.172C286.399 229.571 286.206 229.32 286.104 229.389C285.841 229.547 286.094 231.671 284.247 235.372C281.646 240.571 254.381 248.535 254.381 248.535L251.024 242.389L236.258 215.381L231.169 193.734C230.991 192.979 230.904 192.206 230.911 191.43C235.449 188.237 240.268 185.463 245.308 183.143C247.323 184.285 248.858 186.115 249.634 188.296L259.798 216.796L263.854 228.174C263.854 228.174 271.009 223.058 273.604 223.997C276.195 224.942 276.931 223.617 275.238 219.376C273.544 215.134 276.086 219.5 279.045 219.778C282.009 220.059 279.045 219.778 280.445 217.978C281.845 216.178 290.897 215.165 290.897 215.165L291.09 215.567L294.598 222.783L295.602 224.857C295.602 224.857 291.883 228.892 290.986 229.696C290.084 230.506 289.806 230.45 290.247 231.373C290.683 232.291 288.406 232.25 286.847 230.172Z" fill="#87D800"/>
</g>
<defs>
<clipPath id="clip0_239_299">
<rect width="536.115" height="397.137" fill="white"/>
</clipPath>
</defs>
</svg>
