<?xml version="1.0" encoding="UTF-8"?>
<svg width="1e3" height="171.8" version="1.1" viewBox="0 0 264.6 45.46" xmlns="http://www.w3.org/2000/svg">
<title>Gramedia Bookshop logo</title>
 <g transform="translate(0 -251.5)">
  <path d="m66.13 264c-0.03184-7e-3 -0.722-0.1325-1.514-0.1325-3.985 0-7.246 2.353-9.15 5.621v-3.719s0.1058-1.489-1.476-1.489h-7.081v31.96h7.288c1.532 0 1.567-1.544 1.567-1.544v-11.24c0-1.771 0.1782-3.393 0.6377-4.82 1.381-4.325 4.763-6.011 7.79-6.025 0.4733 0 0.889 0.0249 1.203 0.0586 1.14 0.1815 1.227-0.889 1.227-0.889v-7.697l-0.4923-0.0878"/>
  <path d="m91.54 267c-2.32-2.226-5.696-3.373-9.843-3.373-7.501 0.01-12.37 3.89-12.43 3.929l-0.3873 0.3124 2.46 4.67s1.116 1.824 3.034 0.5405c1.255-0.8529 3.514-1.905 6.604-1.905 1.608 0 2.948 0.3339 3.841 1.063 0.8537 0.7022 1.416 1.781 1.451 3.57h-0.4045c-2.536 0-7.14 0.1583-11.17 1.59-4.031 1.392-7.647 4.232-7.634 9.443-0.0027 3.241 1.314 5.83 3.363 7.559 2.057 1.734 4.798 2.631 7.668 2.631h0.0051c3.606 0 6.106-1.398 7.671-2.812 0.4088-0.3855 0.7625-0.7702 1.058-1.124v0.0715 0.7281s0 2.418 2.436 2.418h5.823v-19.84c0.0095-4.008-1.214-7.251-3.538-9.468zm-12.32 16.04c1.954-0.6394 4.468-0.7746 6.405-0.7746h0.7117v0.111c0 1.715-0.673 3.616-1.819 5.06-1.149 1.445-2.716 2.413-4.503 2.413-2.861-0.0464-3.991-1.639-4.022-3.38 0-1.768 1.243-2.769 3.227-3.43"/>
  <path d="m261 267c-2.33-2.226-5.698-3.373-9.847-3.373-7.501 0.01-12.37 3.89-12.43 3.929l-0.3967 0.3124 2.966 5.622s0.5404 0.8133 1.725 0.0834c1.307-0.7892 4.316-2.401 7.419-2.401 1.606 0 2.933 0.3339 3.846 1.063 0.8494 0.7022 1.411 1.781 1.452 3.57h-0.4182c-2.528 0-7.134 0.1583-11.18 1.59-4.029 1.392-7.648 4.232-7.633 9.443 0 3.241 1.322 5.83 3.376 7.559 2.047 1.734 4.794 2.631 7.658 2.631h0.0195c3.592 0 6.103-1.398 7.66-2.812 0.4053-0.3855 0.7565-0.7702 1.046-1.124v0.0715 0.7281s0 2.418 2.455 2.418h5.83v-19.84c0-4.008-1.233-7.251-3.552-9.468zm-12.32 16.04c1.957-0.6394 4.471-0.7746 6.391-0.7746h0.7238v0.111c0.0171 1.715-0.6756 3.616-1.822 5.06-1.146 1.445-2.703 2.413-4.497 2.413-2.862-0.0464-3.998-1.639-4.03-3.38 0-1.768 1.243-2.769 3.235-3.43"/>
  <path d="m145.8 266.6c-1.862-2.077-4.574-3.035-7.875-3.026-4.587 0.01-8.406 2.556-10.43 5.629-1.513-3.665-4.711-5.658-9.163-5.629-4.149 0.0171-7.45 2.324-9.399 4.893v-2.192s0.0137-1.981-1.881-1.981h-6.682v31.96h8.865v-14.11c0-1.369 0.0628-2.718 0.3408-3.768 0.9467-3.778 3.342-6.596 6.949-6.596 1.658 0.0244 2.38 0.5697 2.885 1.504 0.5155 0.9432 0.6704 2.414 0.6644 4.034v18.93h8.866v-14.11c0-1.438 0.062-2.718 0.3434-3.836 0.8838-3.702 3.27-6.536 6.825-6.528 1.638 0.0244 2.374 0.5379 2.924 1.454 0.5078 0.92 0.6919 2.374 0.6816 4.085v15.49s0.0301 3.44 3.616 3.44h5.257v-20.38c0-4.118-0.9329-7.206-2.789-9.274"/>
  <path d="m183.5 281.8c0-2e-3 0.179-2.037 0.179-2.993 0-4.178-1.213-7.982-3.625-10.75-2.413-2.764-6.017-4.46-10.6-4.45-4.726-0.01-8.801 1.718-11.68 4.686-2.87 2.96-4.543 7.144-4.543 12.03 0 4.509 1.64 8.68 4.619 11.74 2.966 3.058 7.267 4.953 12.51 4.953 7.904-0.01 12.71-4.513 12.77-4.57l0.3468-0.3107-2.415-4.489s-1.078-1.818-3.335-0.4509c-1.544 0.9243-4.033 2.102-6.828 2.09-4.149-0.022-7.794-2.32-8.531-6.916h21.08zm-14.22-11.07c2.916 0.0344 5.076 1.703 5.424 5.175h-12.02c0.8701-3.306 3.184-5.147 6.598-5.175"/>
  <path d="m217 252.3h-7.44v14.12 0.1161c-1.302-1.25-3.865-2.914-8.319-2.905-4.211-0.01-7.89 1.659-10.46 4.589-2.576 2.948-4.065 7.118-4.065 12.12 5e-3 4.858 1.363 9.029 3.847 11.99 2.463 2.976 6.054 4.7 10.37 4.7h0.0164c4.77-0.01 7.606-2.295 9.036-3.931v0.475s-0.0973 2.738 2.721 2.738h5.726v-42.43c0-1.568-1.432-1.584-1.432-1.584zm-7.198 27.97c-0.0576 6.578-3.455 9.051-7.112 9.098-4.12-0.0195-7.01-3.386-7.039-9.029 0.0292-5.874 3.243-8.899 7.101-8.921 2.371 5e-3 4.065 1.051 5.257 2.693 1.182 1.632 1.793 3.884 1.793 6.158"/>
  <path d="m229.7 264.3h-5.665v30.27c0 1.659 1.52 1.69 1.52 1.69h7.341v-28.61c0-3.167-3.195-3.35-3.195-3.35"/>
  <path d="m232.8 259.1c0 0.6661-0.5439 1.213-1.207 1.213h-6.405c-0.6652 0-1.195-0.5473-1.195-1.213v-5.615c0-0.6687 0.5302-1.204 1.195-1.204h6.405c0.6627 0 1.207 0.5353 1.207 1.204v5.615"/>
  <path d="m40.66 270.2c-0.1463 0-0.3021 0-0.4484-0.0171h-16.29c-0.02927 0.0122-0.04562 0.0171-0.08089 0.0171-0.6024 0-1.111 0.4639-1.167 1.058v4.619c0.0044 1.62 1.151 2.96 2.678 3.265h7.136v4.118c-2.398 2.861-5.911 4.679-9.81 4.679-7.216 0-13.06-6.173-13.06-13.78 0-7.608 5.844-13.78 13.06-13.78 2.774 0 5.348 0.9105 7.466 2.465 1.207 0.8486 2.855 0.784 4.012-0.16l3.694-3.713s0-2e-3 0.0085-2e-3c0.4518-0.4484 0.4518-1.182 0.02754-1.637-4.025-3.636-9.361-5.846-15.21-5.846-12.53-4.4e-4 -22.67 10.15-22.67 22.67 0 12.53 10.14 22.68 22.67 22.68 7.96 0 14.94-4.087 19-10.28 0.1024-0.1815 0.167-0.3821 0.167-0.6024v-14.58c0-0.6498-0.5319-1.17-1.178-1.17"/>
 </g>
</svg>
