<svg width="180" height="213" viewBox="0 0 180 213" fill="none" xmlns="http://www.w3.org/2000/svg">
<g clip-path="url(#clip0_244_186)">
<path d="M78.3599 201.439L77.7886 203.938L77.9261 204.088C77.8955 204.164 77.865 204.241 77.8283 204.317C77.5248 205.002 77.1779 205.668 76.7896 206.309C76.2763 207.161 75.702 207.983 75.1063 208.79C74.7794 209.236 74.4433 209.679 74.1072 210.119C74.0981 210.134 74.0879 210.148 74.0767 210.161C74.0804 210.146 74.0855 210.13 74.092 210.116L73.982 210.091L73.3496 207.348L73.1571 207.781V207.784L72.8455 208.502C72.8699 208.634 72.8944 208.762 72.9249 208.89C72.9219 208.887 72.9219 208.881 72.9188 208.878C72.9158 208.875 72.9158 208.875 72.9158 208.872C72.876 208.787 72.8333 208.704 72.7936 208.619L72.317 209.712L71.3516 209.492C70.8444 209.23 70.3373 208.964 69.8332 208.689C62.9471 204.952 56.5711 200.183 52.2787 193.691C50.5725 191.105 49.2828 188.267 48.4568 185.281C46.8285 179.348 47.1095 172.963 50.073 167.662L50.0732 167.661L50.0738 167.66L50.0748 167.659L50.076 167.659C50.1494 167.525 50.2257 167.39 50.3052 167.256C50.3632 167.409 50.4182 167.561 50.4793 167.714V167.717C51.2758 169.792 52.2372 171.799 53.3541 173.72C53.4397 173.87 53.5252 174.02 53.6169 174.166C56.3454 178.747 59.9007 182.781 64.1019 186.063C64.1133 186.074 64.1256 186.084 64.1385 186.093C64.1531 186.106 64.1684 186.117 64.1844 186.127C65.1192 186.86 66.0856 187.55 67.0836 188.195V188.198C67.8627 188.706 68.6631 189.185 69.4757 189.64C71.208 190.606 73.093 191.535 74.7121 192.692C76.2855 193.814 77.6114 195.149 78.3171 196.936C78.3721 197.08 78.4241 197.223 78.4699 197.367L77.2112 201.25L78.3599 201.439Z" fill="#F0F0F0"/>
<path d="M73.1571 207.782V207.785L72.8455 208.503C72.375 205.888 72.9341 203.123 72.5461 200.474C72.5033 200.178 72.4483 199.881 72.3781 199.588C71.9809 197.914 71.0735 196.347 69.4605 195.598C68.9896 195.384 68.4955 195.225 67.9879 195.125C66.9859 194.911 65.941 194.865 64.9298 194.746C64.6762 194.715 64.4257 194.682 64.1813 194.636C62.8737 194.433 61.6253 193.951 60.5213 193.221C59.1697 192.261 57.9919 191.077 57.0385 189.72C56.4085 188.868 55.8222 187.985 55.2819 187.074C55.2085 186.958 55.1413 186.839 55.0711 186.72C53.8067 184.53 52.7697 182.217 51.9763 179.816C51.5676 178.588 51.2249 177.34 50.9498 176.076C50.3375 173.314 50.0433 170.491 50.073 167.662C50.073 167.662 50.073 167.662 50.0732 167.661C50.0733 167.661 50.0736 167.661 50.0738 167.66C50.0741 167.66 50.0745 167.66 50.0748 167.66C50.0752 167.659 50.0756 167.659 50.076 167.659C50.073 167.531 50.076 167.403 50.0791 167.274C50.0852 167.012 50.4915 167.07 50.4854 167.332C50.4823 167.461 50.4793 167.586 50.4793 167.714V167.717C50.4544 170.428 50.728 173.132 51.295 175.783C51.3255 175.917 51.3561 176.052 51.3836 176.186C52.2096 179.859 53.5976 183.382 55.4988 186.631C55.5202 186.668 55.5415 186.705 55.566 186.741C56.009 187.496 56.4856 188.229 56.9866 188.947C57.9072 190.329 59.0391 191.558 60.3411 192.589C61.4366 193.408 62.709 193.96 64.056 194.199C64.1905 194.223 64.3249 194.248 64.4624 194.269C64.5693 194.287 64.6793 194.303 64.7893 194.315C65.8188 194.443 66.8759 194.492 67.8993 194.688C68.3647 194.775 68.8215 194.903 69.2649 195.07C69.9908 195.36 70.647 195.801 71.1903 196.364C71.7337 196.926 72.152 197.597 72.4178 198.332C72.6901 199.046 72.8768 199.79 72.9738 200.547C73.0074 200.795 73.0318 201.042 73.0532 201.293V201.296C73.0838 201.699 73.099 202.105 73.1052 202.512C73.1113 203.019 73.1021 203.526 73.0899 204.03C73.0221 205.281 73.0446 206.534 73.1571 207.782Z" fill="white"/>
<path d="M55.4557 186.989C54.2915 187.58 52.9551 187.739 51.6851 187.436C50.415 187.133 49.2941 186.388 48.5224 185.335C48.367 185.121 48.6917 184.869 48.8473 185.083C49.5641 186.065 50.6083 186.759 51.7916 187.039C52.9748 187.319 54.2191 187.166 55.2998 186.609C55.5349 186.488 55.6894 186.869 55.4557 186.989Z" fill="white"/>
<path d="M64.0161 194.321C64.8668 191.791 64.7327 189.033 63.6405 186.598C63.5321 186.356 63.9121 186.201 64.0204 186.442C65.1522 188.978 65.2859 191.848 64.3949 194.479C64.3098 194.73 63.9315 194.57 64.0161 194.321Z" fill="white"/>
<path d="M51.1763 175.821C51.6744 175.686 52.1312 175.429 52.5056 175.074C52.8801 174.719 53.1605 174.277 53.3217 173.786C53.4035 173.535 53.7818 173.695 53.7005 173.945C53.5199 174.486 53.2096 174.974 52.7968 175.367C52.3839 175.761 51.8811 176.047 51.3321 176.201C51.2816 176.22 51.2258 176.219 51.176 176.198C51.1263 176.177 51.0863 176.138 51.0642 176.089C51.0439 176.038 51.0442 175.982 51.0652 175.932C51.0862 175.882 51.1261 175.842 51.1763 175.821Z" fill="white"/>
<path d="M74.0584 210.186C74.0645 210.177 74.0706 210.171 74.0767 210.162C74.0645 210.198 74.0523 210.235 74.0431 210.275L74.0584 210.186Z" fill="#F0F0F0"/>
<path d="M83.1411 191.379L82.7134 192.876L80.086 192.384L79.2153 195.069L79.0656 195.531L78.4699 197.367L77.2112 201.25L78.3599 201.439L77.7886 203.938L77.9261 204.088L77.9688 204.134L78.253 204.445L79.9821 206.333L75.2529 210.381L74.4952 210.207L74.1072 210.119C74.0981 210.134 74.0879 210.148 74.0767 210.161C74.0804 210.146 74.0855 210.13 74.092 210.116L73.982 210.091L73.3496 207.348L73.1571 207.782V207.785L72.8455 208.503C72.8699 208.634 72.8944 208.762 72.9249 208.891C72.9219 208.887 72.9219 208.881 72.9188 208.878C72.9158 208.875 72.9158 208.875 72.9158 208.872C72.876 208.787 72.8333 208.704 72.7935 208.619C72.1886 207.357 71.6112 206.077 71.0766 204.781C69.759 201.662 68.7253 198.43 67.9879 195.124C67.9574 194.981 67.9238 194.837 67.8993 194.691V194.687C67.4512 192.55 67.1783 190.38 67.0836 188.199V188.195C67.0348 187.001 67.047 185.805 67.1203 184.612C67.3135 181.528 67.9909 178.494 69.1275 175.621C69.1336 175.605 69.1397 175.593 69.1458 175.578C71.3241 170.097 75.1582 165.343 80.3701 162.811C80.587 162.701 80.8101 162.597 81.0331 162.499H81.0392L81.0422 162.496C81.1828 162.435 81.3203 162.377 81.4608 162.316C81.415 162.475 81.3661 162.634 81.3233 162.796C80.7068 164.93 80.2654 167.112 80.0035 169.318V169.321C79.9791 169.489 79.9577 169.663 79.9394 169.834V169.838C79.363 175.159 79.7794 180.542 81.1675 185.712C81.1706 185.727 81.1767 185.739 81.1797 185.754C81.6981 187.674 82.3536 189.553 83.1411 191.379Z" fill="#F0F0F0"/>
<path d="M78.2528 204.445C78.0115 204.769 77.764 205.084 77.5135 205.399C77.2721 205.701 77.0308 206.003 76.7894 206.309C76.1586 207.086 75.5954 207.916 75.1061 208.79C74.8608 209.243 74.6563 209.718 74.4951 210.207L74.1071 210.119C74.0979 210.134 74.0877 210.148 74.0765 210.161C74.0802 210.146 74.0854 210.13 74.0918 210.116C74.8036 207.892 76.4228 206.168 77.8282 204.317C77.8771 204.256 77.9229 204.195 77.9687 204.134L78.2528 204.445Z" fill="white"/>
<path d="M81.5616 162.487C81.4822 162.588 81.3997 162.692 81.3233 162.796C80.7276 163.569 80.1644 164.366 79.6338 165.188C78.6889 166.638 77.8497 168.154 77.1226 169.725C77.0645 169.847 77.0065 169.972 76.9515 170.097C75.3956 173.529 74.3815 177.182 73.9453 180.925C73.9392 180.961 73.9361 180.995 73.9331 181.032C73.8323 181.905 73.7671 182.782 73.7376 183.662C73.6401 185.319 73.804 186.981 74.2233 188.587C74.2844 188.798 74.3516 189.005 74.4249 189.207C74.6087 189.701 74.8389 190.177 75.1123 190.628C75.3088 190.957 75.5272 191.272 75.7661 191.572C75.9097 191.755 76.0594 191.935 76.2183 192.109C76.3099 192.21 76.4046 192.311 76.4993 192.412C76.5788 192.488 76.6552 192.568 76.7346 192.644C77.5595 193.444 78.4699 194.187 79.2153 195.07L79.0656 195.531C78.3477 194.621 77.422 193.866 76.5879 193.072C76.0644 192.579 75.5877 192.039 75.1643 191.459C75.1093 191.379 75.0512 191.3 74.9993 191.217C74.7162 190.804 74.4718 190.365 74.2692 189.907C74.1653 189.677 74.0706 189.442 73.985 189.198C73.4859 187.618 73.2586 185.965 73.3129 184.31C73.3227 183.249 73.3859 182.19 73.5023 181.135C73.5145 180.998 73.5298 180.864 73.5482 180.726C73.8579 178.217 74.423 175.746 75.2345 173.351C76.2617 170.313 77.6745 167.42 79.4383 164.742C79.9424 163.975 80.4771 163.227 81.0422 162.496C81.1156 162.396 81.1919 162.298 81.2714 162.197C81.4333 161.989 81.7235 162.28 81.5616 162.487Z" fill="white"/>
<path d="M73.6936 181.174C72.4081 180.945 71.2458 180.267 70.4142 179.26C69.5826 178.254 69.136 176.984 69.154 175.679C69.1552 175.626 69.177 175.575 69.2149 175.537C69.2527 175.5 69.3037 175.479 69.3569 175.478C69.4102 175.477 69.4616 175.497 69.5003 175.534C69.5391 175.57 69.5621 175.621 69.5647 175.674C69.5457 176.89 69.9619 178.072 70.7381 179.008C71.5144 179.944 72.5997 180.571 73.798 180.777C74.0583 180.822 73.9525 181.219 73.6936 181.174Z" fill="white"/>
<path d="M76.1142 192.182C78.3167 190.674 79.8699 188.392 80.4641 185.789C80.5228 185.532 80.9198 185.636 80.8613 185.894C80.2378 188.6 78.6167 190.973 76.3213 192.537C76.1024 192.686 75.8965 192.33 76.1142 192.182Z" fill="white"/>
<path d="M77.0008 169.681C77.4798 169.873 77.9989 169.943 78.5117 169.885C79.0245 169.827 79.5148 169.642 79.9387 169.348C80.1556 169.196 80.3612 169.552 80.1458 169.702C79.676 170.026 79.1342 170.229 78.5678 170.294C78.0014 170.36 77.4276 170.285 76.8965 170.078C76.8448 170.062 76.8009 170.028 76.7737 169.981C76.7465 169.935 76.7381 169.88 76.7501 169.827C76.7642 169.775 76.7984 169.73 76.8453 169.702C76.8923 169.675 76.9482 169.667 77.0008 169.681Z" fill="white"/>
<path d="M120.553 34.1945C118.24 21.8153 121.882 7.73189 132.003 0.23877C131.43 13.9217 135.714 27.3665 144.099 38.1944C147.348 42.3586 151.395 46.6519 151.27 51.932C151.191 55.2174 149.415 58.2781 147.073 60.5839C144.731 62.8898 141.847 64.5522 138.997 66.1888L138.553 66.8789C130.199 57.4556 122.866 46.5737 120.553 34.1945Z" fill="#F0F0F0"/>
<path d="M132.188 0.428211C127.935 9.94516 126.79 20.56 128.914 30.7651C129.382 32.9487 130.047 35.1229 131.175 37.0629C132.289 38.9454 133.887 40.4952 135.803 41.5513C137.569 42.5719 139.494 43.4114 140.981 44.8436C142.549 46.3532 143.247 48.4135 143.189 50.5662C143.118 53.2001 142.105 55.6512 141.03 58.0139C139.838 60.6371 138.557 63.3429 138.634 66.2922C138.644 66.6495 138.089 66.6432 138.079 66.2864C137.945 61.1552 141.654 57.0343 142.481 52.1107C142.867 49.8133 142.562 47.3857 140.947 45.6048C139.535 44.0476 137.551 43.1803 135.753 42.1623C133.866 41.0935 132.259 39.7729 131.065 37.9422C129.843 36.0695 129.092 33.9166 128.57 31.7546C127.422 26.8432 127.054 21.7819 127.479 16.7562C127.932 11.0177 129.364 5.39892 131.711 0.143071C131.857 -0.182172 132.332 0.105092 132.188 0.428211Z" fill="white"/>
<path d="M128.037 27.5195C126.276 27.6434 124.529 27.1374 123.107 26.092C121.685 25.0466 120.681 23.5297 120.274 21.8123C120.193 21.4645 120.729 21.3221 120.811 21.6704C121.186 23.2703 122.122 24.6832 123.448 25.654C124.774 26.6248 126.404 27.0896 128.042 26.9644C128.398 26.9377 128.391 27.4928 128.037 27.5195Z" fill="white"/>
<path d="M134.839 41.1516C137.229 38.4489 138.512 34.9447 138.433 31.3377C138.425 30.9804 138.98 30.9866 138.988 31.3435C139.064 35.0972 137.72 38.7412 135.227 41.5482C134.989 41.8155 134.602 41.4175 134.839 41.1516Z" fill="white"/>
<path d="M128.583 11.3625C129.274 11.4565 129.977 11.3774 130.63 11.1322C131.284 10.887 131.865 10.4835 132.324 9.95781C132.558 9.68754 132.945 10.0859 132.712 10.3544C132.203 10.9328 131.56 11.3777 130.839 11.6501C130.118 11.9226 129.341 12.0144 128.577 11.9175C128.504 11.9144 128.435 11.8837 128.384 11.8316C128.333 11.7795 128.304 11.71 128.302 11.6371C128.303 11.5636 128.333 11.4936 128.386 11.4421C128.438 11.3907 128.509 11.3621 128.583 11.3625Z" fill="white"/>
<path d="M173.394 10.4785C173.253 10.6514 173.111 10.8243 172.971 11.0018C171.08 13.3364 169.383 15.8208 167.894 18.4304C167.776 18.6303 167.659 18.8347 167.547 19.0377C164.029 25.363 161.715 32.2865 160.724 39.4564C160.333 42.3098 160.159 45.1889 160.204 48.0687C160.266 52.0458 160.65 56.3531 159.431 60.0109C159.308 60.394 159.162 60.769 158.993 61.134L139.43 67.3669C139.378 67.3587 139.328 67.3551 139.276 67.347L138.506 67.6316C138.494 67.4832 138.484 67.3291 138.471 67.1807C138.463 67.0947 138.46 67.0073 138.452 66.9212C138.448 66.8635 138.445 66.8056 138.438 66.7536C138.437 66.7344 138.436 66.7151 138.436 66.7003C138.429 66.6484 138.428 66.5994 138.423 66.5519C138.365 65.6904 138.311 64.8275 138.266 63.9617C138.265 63.9573 138.265 63.9573 138.268 63.9514C137.932 57.3573 138.144 50.6772 139.363 44.2416C139.4 44.048 139.435 43.85 139.48 43.6536C140.046 40.7558 140.847 37.909 141.877 35.1418C142.445 33.6283 143.09 32.1447 143.808 30.6964C145.672 26.9579 148.112 23.5359 151.04 20.5557C156.876 14.6156 164.547 10.6082 172.766 10.482C172.976 10.4789 173.183 10.4771 173.394 10.4785Z" fill="#F0F0F0"/>
<path d="M173.43 10.7405C164.304 15.7791 156.999 23.5648 152.551 32.9917C151.61 35.0171 150.832 37.1536 150.565 39.3817C150.321 41.5555 150.663 43.7549 151.557 45.7515C152.353 47.6298 153.384 49.459 153.71 51.4981C154.053 53.6474 153.37 55.7128 152.027 57.3966C150.384 59.4567 148.1 60.8037 145.819 62.0433C143.288 63.4197 140.636 64.8092 138.922 67.2106C138.715 67.5015 138.275 67.1623 138.483 66.8718C141.464 62.6938 146.908 61.637 150.532 58.2034C152.223 56.6013 153.442 54.4798 153.224 52.0854C153.034 49.9916 151.972 48.1045 151.15 46.2096C150.286 44.2199 149.798 42.1982 149.947 40.0174C150.099 37.7867 150.795 35.6153 151.68 33.5747C153.721 28.9624 156.475 24.6997 159.84 20.9427C163.656 16.6336 168.182 13.0091 173.221 10.2261C173.533 10.054 173.739 10.5695 173.43 10.7405Z" fill="white"/>
<path d="M153.804 29.8724C152.324 28.9113 151.233 27.4554 150.727 25.7645C150.222 24.0737 150.333 22.2581 151.042 20.6419C151.187 20.3154 151.701 20.5247 151.556 20.8517C150.893 22.3555 150.789 24.0467 151.264 25.6203C151.738 27.1939 152.759 28.546 154.143 29.4327C154.443 29.6258 154.103 30.0643 153.804 29.8724Z" fill="white"/>
<path d="M151.028 44.8522C154.563 44.1332 157.698 42.1081 159.807 39.1806C160.015 38.8904 160.455 39.2295 160.246 39.5194C158.046 42.5617 154.78 44.6626 151.099 45.4027C150.748 45.473 150.679 44.9222 151.028 44.8522Z" fill="white"/>
<path d="M163.968 17.3003C164.463 17.7915 165.073 18.152 165.742 18.3494C166.411 18.5468 167.118 18.575 167.801 18.4313C168.151 18.3566 168.22 18.9075 167.872 18.9818C167.117 19.137 166.336 19.1049 165.596 18.8884C164.857 18.672 164.181 18.2776 163.629 17.7399C163.573 17.6936 163.536 17.6276 163.527 17.5553C163.518 17.483 163.536 17.4099 163.579 17.3507C163.624 17.2927 163.69 17.2549 163.763 17.2455C163.836 17.236 163.909 17.2557 163.968 17.3003Z" fill="white"/>
<path d="M47.6825 19.4063C46.6015 18.6432 45.4188 17.8475 44.096 17.8793C40.8945 17.9563 39.1685 22.6496 35.9702 22.4845C33.9307 22.3793 32.5767 20.3073 30.6776 19.5561C28.2052 18.578 25.0589 20.4908 24.7892 23.1359L25.1067 22.8453C34.7174 25.1882 44.6908 25.649 54.4766 24.2021C52.2119 22.6035 49.9472 21.0049 47.6825 19.4063Z" fill="#F0F0F0"/>
<path d="M53.6726 25.0516C59.808 25.0516 64.7817 20.0779 64.7817 13.9425C64.7817 7.80718 59.808 2.8335 53.6726 2.8335C47.5373 2.8335 42.5636 7.80718 42.5636 13.9425C42.5636 20.0779 47.5373 25.0516 53.6726 25.0516Z" fill="#FF6582"/>
<path d="M79.6761 11.8206C78.2985 10.8482 76.7913 9.83417 75.1055 9.87471C71.0255 9.97282 68.8257 15.954 64.7499 15.7436C62.1506 15.6095 60.4251 12.969 58.0049 12.0115C54.8541 10.7651 50.8444 13.2028 50.5006 16.5737L50.9053 16.2034C63.1533 19.1893 75.8635 19.7765 88.3346 17.9326C85.4485 15.8952 82.5623 13.8579 79.6761 11.8206Z" fill="#F0F0F0"/>
<path d="M179.603 123.339L167.813 60.2153C167.612 59.1748 167.062 58.2336 166.256 57.5461C165.449 56.8587 164.432 56.4658 163.373 56.4318C163.278 56.4296 163.182 56.4296 163.087 56.4318L155.056 56.7199L154.192 56.7516L150.183 56.8957L149.319 56.9254L146.741 57.0186L94.7541 58.8849C94.6757 58.8892 94.5952 58.8892 94.5168 58.8871L82.8674 58.6434L78.5564 58.5545L78.4186 58.5523L75.2367 58.4846L47.5104 57.9083L40.1593 57.7537L36.5346 57.6795L35.6661 57.6605L31.5329 57.5757L30.6665 57.5567L26.4381 57.4698L25.5716 57.4508L20.9258 57.3533L20.1971 57.3385L16.0534 57.2516L15.3988 57.2389H15.3035C14.2034 57.2434 13.1403 57.6366 12.3022 58.3492C11.4641 59.0617 10.9048 60.0476 10.7234 61.1326L0.0611556 126.635C-0.0471204 127.299 -0.00984895 127.978 0.170388 128.626C0.350625 129.273 0.669512 129.874 1.10497 130.386C1.54043 130.899 2.08204 131.31 2.69229 131.592C3.30253 131.874 3.96682 132.021 4.63913 132.02H65.871C66.7723 132.023 67.6493 132.312 68.375 132.847L69.5359 133.707C70.3361 134.296 71.3028 134.615 72.2963 134.618H108.382C108.992 134.619 109.596 134.5 110.159 134.266C110.722 134.033 111.234 133.69 111.664 133.258C112.399 132.523 113.38 132.086 114.418 132.031L175.285 128.824C175.945 128.789 176.59 128.614 177.177 128.31C177.764 128.006 178.279 127.58 178.688 127.061C179.097 126.541 179.39 125.941 179.547 125.299C179.705 124.657 179.724 123.989 179.603 123.339Z" fill="#CCCCCC"/>
<path d="M169.955 121.623L163.383 56.5168C163.381 56.4892 163.377 56.4596 163.373 56.432C163.25 55.3918 162.736 54.437 161.937 53.7607L147.8 41.9842C147.185 41.4682 146.421 41.163 145.62 41.1135C139.153 40.6983 106.272 39.1603 94.1353 49.6954C93.7671 50.0158 93.3331 50.2517 92.8639 50.3864C92.3947 50.5211 91.9016 50.5513 91.4195 50.4749C90.9362 50.3965 90.4756 50.2148 90.069 49.942C89.6625 49.6693 89.3196 49.312 89.0638 48.8946C88.0318 47.2861 86.6796 45.9073 85.0916 44.8441C84.3786 44.349 83.6357 43.8983 82.8673 43.4946C82.1872 43.1366 81.4479 42.7892 80.6429 42.4545C79.9501 42.1663 79.2108 41.8888 78.4185 41.624C74.3108 40.2513 68.8198 39.2259 61.4814 38.8827C58.4372 38.7387 55.1282 38.7196 51.6475 38.8234C48.4699 38.9166 45.093 39.1094 41.6124 39.3975L41.5616 39.3996L18.0107 53.7776C17.4827 54.1068 17.0365 54.5517 16.7058 55.0788C16.3752 55.6058 16.1687 56.2011 16.102 56.8197L16.0532 57.2519L8.57508 124.07C8.51049 124.638 8.56268 125.213 8.72844 125.76C8.8942 126.306 9.17003 126.814 9.53897 127.25C9.89812 127.675 10.3453 128.018 10.8497 128.253C11.3541 128.489 11.9037 128.612 12.4603 128.614H70.4891C71.2606 128.618 72.0081 128.883 72.6097 129.366L75.1434 131.396C75.8035 131.926 76.6208 132.222 77.4673 132.239L102.982 132.656H103.043C103.688 132.655 104.321 132.49 104.884 132.177L109.806 129.445C110.254 129.195 110.754 129.05 111.267 129.021L166.262 126.117C166.798 126.088 167.322 125.947 167.8 125.702C168.278 125.458 168.699 125.115 169.036 124.697C169.385 124.272 169.647 123.781 169.805 123.253C169.963 122.725 170.014 122.171 169.955 121.623Z" fill="#E6E6E6"/>
<path d="M150.759 109.882L149.989 99.7482L146.742 57.0199L146.259 50.699C146.137 49.0387 145.401 47.4834 144.194 46.3363C142.988 45.1892 141.398 44.5324 139.733 44.4941C127.834 44.1886 106.286 44.7263 95.7128 51.811C94.5368 52.6105 93.1102 52.9552 91.6989 52.7809C90.2876 52.6067 88.9878 51.9254 88.0415 50.8639C86.5784 49.2577 84.8218 47.946 82.8662 46.9993C81.4351 46.2815 79.9473 45.6827 78.418 45.209C73.9423 43.7792 68.2945 42.9106 61.4746 42.603L45.2888 42.5083H45.2613C44.14 42.5093 43.0613 42.9372 42.2441 43.705C41.427 44.4728 40.9328 45.5228 40.862 46.6418L40.1593 57.7531L37.089 106.482C37.0315 107.389 37.1592 108.299 37.4641 109.156C37.7691 110.013 38.245 110.799 38.863 111.467C39.481 112.134 40.2281 112.669 41.0591 113.039C41.8901 113.409 42.7876 113.606 43.6971 113.618C70.8659 114.021 82.7348 119.756 87.9101 124.491C89.0106 125.501 90.4163 126.115 91.9049 126.235C93.3934 126.356 94.8796 125.976 96.1283 125.157C105.523 119.004 121.14 117.293 133.571 117.028C137.378 116.948 140.885 117 143.824 117.104C144.769 117.138 145.71 116.972 146.586 116.617C147.462 116.263 148.253 115.727 148.908 115.045C149.563 114.363 150.066 113.551 150.385 112.661C150.704 111.771 150.831 110.824 150.759 109.882Z" fill="white"/>
<path d="M15.8818 124.015C15.8717 124.015 15.8611 124.015 15.851 124.014C15.7943 124.01 15.739 123.995 15.6881 123.97C15.6373 123.944 15.592 123.909 15.5548 123.866C15.5175 123.823 15.4891 123.773 15.4711 123.72C15.4531 123.666 15.4459 123.609 15.4499 123.552L20.1245 57.5465C20.1279 57.4896 20.1425 57.434 20.1677 57.3828C20.1929 57.3317 20.228 57.2861 20.271 57.2487C20.3141 57.2114 20.3641 57.183 20.4183 57.1653C20.4725 57.1475 20.5296 57.1408 20.5864 57.1455C20.6431 57.1495 20.6984 57.1646 20.7492 57.19C20.8 57.2153 20.8454 57.2505 20.8826 57.2934C20.9199 57.3363 20.9483 57.3861 20.9663 57.4399C20.9843 57.4938 20.9915 57.5507 20.9874 57.6074L16.3129 123.613C16.3052 123.722 16.2565 123.824 16.1765 123.899C16.0965 123.974 15.9912 124.015 15.8818 124.015Z" fill="white"/>
<path d="M21.5071 121.419C21.4969 121.419 21.4863 121.419 21.4762 121.418C21.4195 121.414 21.3642 121.399 21.3134 121.373C21.2626 121.348 21.2172 121.313 21.18 121.27C21.1428 121.227 21.1143 121.177 21.0964 121.123C21.0784 121.07 21.0712 121.013 21.0752 120.956L25.7498 54.9503C25.7531 54.8934 25.7678 54.8378 25.7929 54.7866C25.8181 54.7355 25.8532 54.6899 25.8963 54.6525C25.9393 54.6152 25.9894 54.5868 26.0435 54.5691C26.0977 54.5513 26.1549 54.5446 26.2117 54.5493C26.2683 54.5533 26.3236 54.5684 26.3745 54.5938C26.4253 54.6191 26.4706 54.6543 26.5079 54.6972C26.5451 54.7401 26.5735 54.7899 26.5915 54.8437C26.6095 54.8976 26.6167 54.9545 26.6127 55.0112L21.9381 121.017C21.9305 121.126 21.8818 121.228 21.8018 121.303C21.7218 121.378 21.6165 121.419 21.5071 121.419Z" fill="white"/>
<path d="M26.6999 120.121C26.6898 120.121 26.6792 120.12 26.6691 120.12C26.6124 120.116 26.5571 120.1 26.5063 120.075C26.4554 120.05 26.4101 120.015 26.3729 119.972C26.3356 119.929 26.3072 119.879 26.2892 119.825C26.2712 119.771 26.264 119.714 26.268 119.658L30.9426 53.652C30.946 53.5951 30.9607 53.5394 30.9858 53.4883C31.011 53.4372 31.0461 53.3916 31.0891 53.3542C31.1322 53.3168 31.1822 53.2885 31.2364 53.2707C31.2906 53.253 31.3477 53.2463 31.4045 53.251C31.4612 53.2549 31.5165 53.2701 31.5673 53.2954C31.6182 53.3208 31.6635 53.3559 31.7007 53.3988C31.738 53.4417 31.7664 53.4915 31.7844 53.5454C31.8024 53.5993 31.8096 53.6562 31.8056 53.7128L27.131 119.719C27.1234 119.828 27.0746 119.93 26.9947 120.005C26.9147 120.079 26.8093 120.121 26.6999 120.121Z" fill="white"/>
<path d="M31.8926 117.525C31.8824 117.525 31.8719 117.524 31.8617 117.523C31.805 117.519 31.7497 117.504 31.6989 117.479C31.6481 117.454 31.6027 117.418 31.5655 117.375C31.5283 117.333 31.4998 117.283 31.4819 117.229C31.4639 117.175 31.4567 117.118 31.4607 117.061L36.1353 51.0558C36.1386 50.9989 36.1533 50.9433 36.1784 50.8921C36.2036 50.841 36.2387 50.7954 36.2818 50.758C36.3248 50.7206 36.3749 50.6923 36.429 50.6745C36.4832 50.6568 36.5404 50.6501 36.5972 50.6548C36.6538 50.6588 36.7091 50.6739 36.76 50.6992C36.8108 50.7246 36.8561 50.7597 36.8934 50.8026C36.9306 50.8455 36.959 50.8953 36.977 50.9492C36.995 51.0031 37.0022 51.06 36.9982 51.1167L32.3236 117.122C32.316 117.231 32.2673 117.334 32.1873 117.408C32.1073 117.483 32.002 117.525 31.8926 117.525Z" fill="white"/>
<path d="M164.738 124.448C164.748 124.448 164.759 124.448 164.769 124.447C164.825 124.443 164.881 124.428 164.932 124.403C164.982 124.377 165.028 124.342 165.065 124.299C165.102 124.256 165.131 124.207 165.149 124.153C165.167 124.099 165.174 124.042 165.17 123.985L160.495 57.9796C160.492 57.9227 160.477 57.8671 160.452 57.8159C160.427 57.7648 160.392 57.7192 160.349 57.6818C160.306 57.6445 160.256 57.6161 160.201 57.5984C160.147 57.5806 160.09 57.5739 160.033 57.5786C159.977 57.5826 159.921 57.5977 159.871 57.6231C159.82 57.6484 159.774 57.6836 159.737 57.7265C159.7 57.7693 159.671 57.8192 159.653 57.873C159.635 57.9269 159.628 57.9838 159.632 58.0405L164.307 124.046C164.315 124.155 164.363 124.257 164.443 124.332C164.523 124.407 164.629 124.448 164.738 124.448Z" fill="white"/>
<path d="M159.113 120.553C159.123 120.553 159.133 120.553 159.144 120.552C159.2 120.548 159.256 120.533 159.306 120.508C159.357 120.482 159.402 120.447 159.44 120.404C159.477 120.361 159.505 120.312 159.523 120.258C159.541 120.204 159.549 120.147 159.545 120.09L154.87 54.0846C154.867 54.0277 154.852 53.9721 154.827 53.9209C154.802 53.8698 154.767 53.8242 154.723 53.7868C154.68 53.7494 154.63 53.7211 154.576 53.7033C154.522 53.6856 154.465 53.6789 154.408 53.6836C154.351 53.6876 154.296 53.7027 154.245 53.728C154.194 53.7534 154.149 53.7886 154.112 53.8314C154.075 53.8743 154.046 53.9241 154.028 53.978C154.01 54.0319 154.003 54.0888 154.007 54.1455L158.682 120.151C158.689 120.26 158.738 120.362 158.818 120.437C158.898 120.512 159.003 120.553 159.113 120.553Z" fill="white"/>
<path d="M153.92 116.226C153.93 116.226 153.941 116.226 153.951 116.225C154.008 116.221 154.063 116.206 154.114 116.181C154.165 116.155 154.21 116.12 154.247 116.077C154.284 116.034 154.313 115.984 154.331 115.931C154.349 115.877 154.356 115.82 154.352 115.763L149.677 49.7575C149.674 49.7006 149.659 49.6449 149.634 49.5938C149.609 49.5426 149.574 49.497 149.531 49.4597C149.488 49.4223 149.438 49.3939 149.384 49.3762C149.329 49.3585 149.272 49.3517 149.215 49.3564C149.159 49.3604 149.103 49.3755 149.053 49.4009C149.002 49.4263 148.957 49.4614 148.919 49.5043C148.882 49.5472 148.854 49.597 148.836 49.6509C148.818 49.7048 148.81 49.7617 148.814 49.8183L153.489 115.824C153.497 115.933 153.545 116.035 153.625 116.11C153.705 116.185 153.811 116.226 153.92 116.226Z" fill="white"/>
<path d="M47.7252 57.4187C57.4791 54.3068 68.361 55.1306 77.6015 59.5148C80.2381 60.7592 82.7281 62.2929 85.0258 64.0875C85.6758 64.5976 86.6007 63.6851 85.9438 63.1696C77.4565 56.5866 66.7924 53.4594 56.0942 54.4162C53.1344 54.6811 50.2124 55.2681 47.3801 56.1669C46.5872 56.4199 46.9261 57.6737 47.7252 57.4187Z" fill="#3F3D56"/>
<path d="M101.398 64.5915C110.467 59.8249 121.326 58.7854 131.186 61.4912C133.997 62.2607 136.714 63.3408 139.286 64.7116C140.022 65.1048 140.679 63.9845 139.941 63.5907C130.544 58.5763 119.263 57.422 109.001 60.2172C106.138 60.9983 103.369 62.0892 100.743 63.4705C100.003 63.8594 100.658 64.9802 101.398 64.5915Z" fill="#3F3D56"/>
<path d="M101.398 73.2458C110.467 68.4792 121.326 67.4397 131.186 70.1455C133.997 70.915 136.714 71.9951 139.286 73.3659C140.022 73.7591 140.679 72.6388 139.941 72.245C130.544 67.2306 119.263 66.0763 109.001 68.8715C106.138 69.6526 103.369 70.7435 100.743 72.1248C100.003 72.5137 100.658 73.6345 101.398 73.2458Z" fill="#3F3D56"/>
<path d="M140.258 81.4363C140.265 81.3248 140.238 81.2139 140.181 81.118C140.124 81.022 140.04 80.9454 139.939 80.8982C132.41 76.9562 123.875 75.3574 115.43 76.3075C115.377 76.3117 115.328 76.3202 115.271 76.3244H115.269C115.217 76.3291 115.166 76.3369 115.114 76.3477C110.092 76.9257 105.219 78.4275 100.743 80.7774C100.645 80.8356 100.564 80.9181 100.508 81.0169C100.452 81.1157 100.423 81.2273 100.423 81.341V97.4857C100.425 97.5851 100.449 97.6827 100.494 97.7713C100.539 97.86 100.603 97.9372 100.682 97.9972C100.762 98.0572 100.853 98.0984 100.951 98.1177C101.048 98.137 101.149 98.1339 101.245 98.1085C101.444 98.0513 101.643 97.9963 101.847 97.9433C106.372 96.7183 111.018 95.9916 115.701 95.7761C115.801 95.7719 115.9 95.7676 116.004 95.7634C119.819 95.5996 123.64 95.737 127.433 96.1744C127.513 96.1789 127.592 96.1874 127.671 96.1998C127.865 96.221 128.065 96.2443 128.259 96.2697C128.338 96.2782 128.412 96.2866 128.484 96.2994C129.242 96.3947 129.995 96.5027 130.749 96.6193C131.838 96.793 132.926 96.9865 134.015 97.1997C134.083 97.2124 134.153 97.2294 134.223 97.2421C135.971 97.5895 137.71 97.992 139.441 98.4369C139.537 98.4618 139.638 98.4644 139.735 98.4447C139.833 98.425 139.925 98.3833 140.004 98.323C140.083 98.2626 140.147 98.185 140.192 98.0961C140.237 98.0073 140.261 97.9094 140.263 97.8098V81.4617C140.263 81.453 140.262 81.4443 140.258 81.4363Z" fill="#3F3D56"/>
<path d="M116.448 77.1879C115.972 76.9549 115.427 76.907 114.918 77.0535C114.694 77.1378 114.488 77.2659 114.313 77.4304C114.138 77.5948 113.997 77.7924 113.9 78.0116C113.723 78.432 113.61 78.8761 113.564 79.3296C113.537 79.508 113.536 79.7331 113.715 79.8164C113.78 79.84 113.85 79.8454 113.918 79.8319C113.986 79.8185 114.049 79.7867 114.1 79.7401C114.193 79.6488 114.269 79.5424 114.326 79.4253C114.637 78.941 115.066 78.5429 115.571 78.2678C116.077 77.9928 116.644 77.8497 117.22 77.8517L117.699 78.0428C117.322 77.7031 116.901 77.4156 116.448 77.1879Z" fill="#FF6582"/>
<path d="M121.635 80.9088C121.263 80.3612 120.822 79.7766 120.132 79.5979C119.333 79.3908 118.512 79.8021 117.815 80.208C115.744 81.4141 113.739 82.7294 111.807 84.1483L111.809 84.1696L116.293 83.8944C117.372 83.8281 118.489 83.7527 119.443 83.298C119.786 83.0832 120.169 82.9406 120.569 82.879C120.817 82.8924 121.06 82.9548 121.283 83.0626C121.507 83.1704 121.707 83.3214 121.872 83.507C123.939 85.4655 124.536 88.4605 126.855 90.1812C125.379 86.9486 123.633 83.8468 121.635 80.9088Z" fill="white"/>
<path d="M116.005 95.7628C115.901 95.7671 115.802 95.7715 115.702 95.7758C114.98 95.5162 114.24 95.2868 113.491 95.0877C113.006 94.9579 112.513 94.8411 112.02 94.7416C111.461 94.6205 110.899 94.5252 110.336 94.443C109.265 94.2872 108.186 94.1962 107.104 94.1704C107.096 94.1713 107.088 94.1704 107.08 94.1679C107.072 94.1654 107.065 94.1612 107.058 94.1557C107.052 94.1502 107.047 94.1434 107.044 94.1359C107.041 94.1284 107.039 94.1202 107.039 94.112C107.039 94.1037 107.041 94.0956 107.044 94.088C107.047 94.0805 107.052 94.0738 107.058 94.0683C107.065 94.0627 107.072 94.0586 107.08 94.0561C107.088 94.0535 107.096 94.0527 107.104 94.0536C107.242 94.0536 107.381 94.0579 107.515 94.0665C108.599 94.1066 109.68 94.2121 110.752 94.3824C111.31 94.4733 111.868 94.5815 112.422 94.7027C112.924 94.8152 113.426 94.9407 113.919 95.0791C114.625 95.2782 115.32 95.506 116.005 95.7628Z" fill="white"/>
<path d="M128.485 96.2994C128.411 96.2864 128.338 96.2777 128.26 96.2691C127.961 96.0225 127.658 95.7888 127.342 95.5594C126.949 95.2738 126.542 95.0055 126.126 94.7546C125.206 94.1961 124.246 93.7072 123.253 93.2919C121.683 92.6383 120.059 92.1256 118.398 91.7601C116.504 91.3451 114.586 91.0445 112.656 90.86C110.726 90.6609 108.787 90.5398 106.849 90.4186C106.766 90.4143 106.762 90.2932 106.849 90.2975C107.091 90.3148 107.333 90.3277 107.58 90.3451C109.54 90.4662 111.5 90.6047 113.448 90.8254C115.378 91.0324 117.294 91.3648 119.181 91.8207C120.793 92.2178 122.365 92.7579 123.881 93.4347C124.752 93.8263 125.596 94.2759 126.408 94.7805C126.923 95.105 127.42 95.4512 127.896 95.819C128.095 95.9748 128.294 96.1306 128.485 96.2994Z" fill="white"/>
<path d="M127.671 96.1997C127.592 96.187 127.513 96.1784 127.433 96.1737C127.342 96.1002 127.247 96.031 127.152 95.9617C126.486 95.4849 125.791 95.0499 125.071 94.6592C124.417 94.3038 123.745 93.9817 123.058 93.6943C121.489 93.0386 119.864 92.526 118.203 92.1624C116.309 91.7474 114.391 91.4469 112.461 91.2624C110.531 91.0633 108.592 90.9422 106.654 90.821C106.572 90.8123 106.572 90.6955 106.654 90.6998C106.9 90.7171 107.143 90.7301 107.385 90.7474C109.345 90.8685 111.306 91.007 113.253 91.2277C115.184 91.4347 117.099 91.7671 118.986 92.223C120.598 92.6194 122.171 93.1596 123.686 93.8371C124.257 94.0967 124.815 94.378 125.36 94.6852C126.169 95.1291 126.942 95.6355 127.671 96.1997Z" fill="white"/>
<path d="M134.223 97.2426C134.154 97.2296 134.084 97.2124 134.015 97.1994C133.937 97.1171 133.864 97.0306 133.79 96.944C133.418 96.5156 133.05 96.0829 132.687 95.6459C131.254 93.9409 129.896 92.1841 128.615 90.3926C127.516 88.8608 126.473 87.2986 125.486 85.7062C125.014 84.9532 124.56 84.1917 124.114 83.4214C123.768 82.8243 123.431 82.2257 123.102 81.6256C123.007 81.4525 122.916 81.2794 122.825 81.1063C122.613 80.6995 122.401 80.2885 122.176 79.8861C121.931 79.393 121.572 78.9657 121.129 78.6398C120.907 78.4914 120.65 78.4034 120.384 78.3845C120.009 78.3859 119.64 78.4811 119.311 78.6614C116.89 79.7888 114.606 81.1899 112.504 82.8372C110.451 84.434 108.595 86.2686 106.974 88.3025C106.922 88.3631 106.81 88.3069 106.857 88.2419C107.052 87.9996 107.251 87.7573 107.45 87.5193C109.008 85.6766 110.762 84.0094 112.682 82.5473C112.686 82.543 112.695 82.5386 112.699 82.5344C112.868 82.4002 113.037 82.2704 113.21 82.1449C114.281 81.3557 115.397 80.6276 116.55 79.9639C117.139 79.6221 117.74 79.2975 118.355 78.9903C118.506 78.9124 118.662 78.8345 118.818 78.761C118.974 78.6831 119.129 78.6096 119.285 78.5359C119.594 78.3787 119.931 78.286 120.276 78.2634C121.479 78.246 122.098 79.4577 122.526 80.2755C122.66 80.5308 122.799 80.7861 122.933 81.0414C123.452 82.0064 123.993 82.9671 124.556 83.9147C124.898 84.5032 125.252 85.0874 125.612 85.6673C126.127 86.4938 126.654 87.3116 127.204 88.1252L127.204 88.1268L127.205 88.1283L127.207 88.1292L127.208 88.1295C127.844 89.0901 128.507 90.0334 129.19 90.9725C130.363 92.5779 131.592 94.1472 132.877 95.6805C133.318 96.2084 133.767 96.7291 134.223 97.2426Z" fill="white"/>
<path d="M140.264 95.3345V95.5336C139.835 95.0317 139.398 94.534 138.965 94.0364C138.784 93.8287 138.602 93.621 138.42 93.4133C137.65 92.5392 136.875 91.6679 136.096 90.7996C135.313 89.9342 134.53 89.0687 133.738 88.2076C133.548 87.9999 133.357 87.7922 133.163 87.5845C133.007 87.41 132.837 87.2479 132.656 87.0998C132.473 86.9477 132.263 86.8317 132.037 86.7579C131.777 86.6858 131.503 86.6829 131.241 86.7493C130.943 86.8186 130.657 86.9268 130.367 87.0176C130.069 87.1171 129.774 87.2123 129.476 87.3075C128.879 87.5023 128.286 87.697 127.689 87.8917C127.681 87.8947 127.673 87.8962 127.665 87.8961C127.657 87.8959 127.65 87.8942 127.642 87.891C127.635 87.8877 127.628 87.8831 127.623 87.8772C127.618 87.8714 127.613 87.8645 127.611 87.8571C127.607 87.8489 127.606 87.84 127.606 87.8312C127.607 87.8223 127.609 87.8136 127.613 87.8058C127.617 87.7979 127.623 87.7911 127.63 87.7858C127.637 87.7804 127.645 87.7767 127.654 87.7749C127.801 87.7273 127.953 87.6797 128.104 87.6321C128.706 87.433 129.303 87.2383 129.904 87.0436C130.203 86.944 130.501 86.8489 130.8 86.7537C131.077 86.6485 131.369 86.59 131.665 86.5806C132.149 86.6153 132.602 86.8281 132.938 87.1777C133.124 87.3508 133.292 87.5325 133.461 87.7186C133.66 87.935 133.859 88.1514 134.058 88.3677C134.859 89.2418 135.654 90.1188 136.443 90.9987C137.234 91.8814 138.019 92.7656 138.797 93.6513C138.853 93.7162 138.909 93.7811 138.965 93.846C139.402 94.3393 139.831 94.837 140.264 95.3345Z" fill="white"/>
<path d="M118.784 78.1319L118.665 78.1843C118.391 77.7213 118.006 77.3332 117.546 77.0545C117.086 76.7759 116.564 76.6152 116.026 76.5869C114.255 76.4611 112.698 77.6417 112.557 79.2186C112.5 79.8678 112.687 80.5151 113.084 81.0326L112.973 81.0983C112.56 80.5593 112.364 79.8853 112.424 79.2091C112.571 77.567 114.192 76.3375 116.037 76.4686C116.596 76.498 117.14 76.6653 117.619 76.9555C118.099 77.2457 118.499 77.6498 118.784 78.1319Z" fill="#FF6582"/>
<path d="M110.03 81.3223C109.565 81.12 109.059 81.0314 108.553 81.0636C108.047 81.0958 107.556 81.248 107.12 81.5075C108.711 81.7515 110.287 82.0789 111.842 82.4885C111.198 82.1525 110.694 81.626 110.03 81.3223Z" fill="white"/>
<path d="M107.111 81.5059L106.936 81.6325C106.996 81.5882 107.057 81.5466 107.12 81.5073L107.111 81.5059Z" fill="white"/>
<path d="M132.589 87.897C132.425 87.6864 132.208 87.5245 131.959 87.4287L131.713 87.4374C133.644 90.4427 136.174 93.0175 139.146 95.001C136.96 92.633 134.774 90.265 132.589 87.897Z" fill="white"/>
<path d="M112.384 82.2402C112.315 82.171 112.245 82.1017 112.175 82.0325C111.636 81.4463 110.988 80.9717 110.266 80.6356C109.899 80.4809 109.504 80.3995 109.106 80.3962C108.694 80.4058 108.286 80.4849 107.901 80.6301C107.72 80.6946 107.542 80.7678 107.367 80.8457C107.168 80.9352 106.972 81.0305 106.777 81.1267C106.41 81.3071 106.049 81.4955 105.692 81.6918C104.982 82.0824 104.294 82.5027 103.629 82.9529C103.284 83.1864 102.946 83.4275 102.615 83.6763C102.307 83.9074 102.006 84.1447 101.711 84.3882C101.648 84.44 101.553 84.3562 101.616 84.3043C101.694 84.2398 101.773 84.1757 101.852 84.1124C102.074 83.9335 102.3 83.7581 102.529 83.5861C102.947 83.2719 103.377 82.9698 103.817 82.6799C104.501 82.2288 105.209 81.8083 105.94 81.4183C106.305 81.2237 106.676 81.0371 107.051 80.8588C107.165 80.805 107.279 80.7523 107.395 80.7025C107.66 80.5837 107.934 80.4846 108.213 80.4061C108.615 80.2912 109.034 80.2545 109.449 80.2981C109.846 80.3488 110.232 80.4675 110.589 80.6491C111.296 81.0456 111.935 81.5545 112.479 82.156C112.536 82.2129 112.442 82.2972 112.384 82.2402Z" fill="white"/>
<path d="M47.7252 66.0735C57.4791 62.9615 68.361 63.7854 77.6015 68.1696C80.2381 69.414 82.7281 70.9476 85.0258 72.7423C85.6758 73.2524 86.6007 72.3399 85.9438 71.8243C77.4565 65.2414 66.7924 62.1142 56.0942 63.071C53.1344 63.3359 50.2124 63.9229 47.3801 64.8217C46.5872 65.0747 46.9261 66.3285 47.7252 66.0735Z" fill="#3F3D56"/>
<path d="M47.7252 74.7278C57.4791 71.6158 68.361 72.4397 77.6015 76.8239C80.2381 78.0683 82.7281 79.6019 85.0258 81.3966C85.6758 81.9067 86.6007 80.9942 85.9438 80.4786C77.4565 73.8957 66.7924 70.7685 56.0942 71.7253C53.1344 71.9902 50.2124 72.5772 47.3801 73.476C46.5872 73.729 46.9261 74.9828 47.7252 74.7278Z" fill="#3F3D56"/>
<path d="M47.7252 83.3826C57.4791 80.2706 68.361 81.0945 77.6015 85.4786C80.2381 86.7231 82.7281 88.2567 85.0258 90.0514C85.6758 90.5615 86.6007 89.649 85.9438 89.1334C77.4565 82.5505 66.7924 79.4232 56.0942 80.3801C53.1344 80.645 50.2124 81.232 47.3801 82.1308C46.5872 82.3838 46.9261 83.6376 47.7252 83.3826Z" fill="#3F3D56"/>
<path d="M47.7252 92.0369C57.4791 88.9249 68.361 89.7488 77.6015 94.1329C80.2381 95.3774 82.7281 96.911 85.0258 98.7057C85.6758 99.2158 86.6007 98.3033 85.9438 97.7877C77.4565 91.2047 66.7924 88.0775 56.0942 89.0344C53.1344 89.2992 50.2124 89.8863 47.3801 90.7851C46.5872 91.0381 46.9261 92.2919 47.7252 92.0369Z" fill="#3F3D56"/>
<path d="M47.7252 100.692C57.4791 97.5797 68.361 98.4036 77.6015 102.788C80.2381 104.032 82.7281 105.566 85.0258 107.36C85.6758 107.871 86.6007 106.958 85.9438 106.443C77.4565 99.8595 66.7924 96.7323 56.0942 97.6892C53.1344 97.954 50.2124 98.5411 47.3801 99.4399C46.5872 99.6928 46.9261 100.947 47.7252 100.692Z" fill="#3F3D56"/>
<path d="M82.8673 43.4946V67.751C82.8673 68.1641 82.1471 68.5094 81.1747 68.6026C81.0052 68.6195 80.8273 68.628 80.643 68.628C80.1078 68.6382 79.5753 68.5513 79.0711 68.3717C78.9776 68.3354 78.887 68.2922 78.7999 68.2424C78.5584 68.1005 78.4186 67.9331 78.4186 67.751V41.624C79.2109 41.8888 79.9502 42.1664 80.643 42.4545C81.448 42.7892 82.1873 43.1366 82.8673 43.4946Z" fill="#8AFF63"/>
<path d="M92.1911 51.8115H91.5555V130.275H92.1911V51.8115Z" fill="#E6E6E6"/>
<path d="M148.911 115.042C148.256 115.724 147.464 116.26 146.587 116.616C145.711 116.971 144.769 117.137 143.824 117.104C140.885 117 137.378 116.948 133.571 117.028L133.55 117.01L150.047 95.624L150.759 109.882C150.83 110.824 150.703 111.77 150.384 112.659C150.066 113.548 149.564 114.36 148.911 115.042Z" fill="#F2F2F2"/>
<path d="M107.841 189.784L106.961 196.927L106.289 202.356L106.021 204.546H102.196V202.6L102.193 196.16V189.784H107.841Z" fill="#FFB6B6"/>
<path d="M81.1707 189.036L80.0861 192.384L79.2154 195.069L79.0657 195.531L78.47 197.367L77.2113 201.25L76.585 203.184L73.1053 202.512L72.8273 202.46L73.0533 201.293L73.1908 200.581L74.7123 192.693L74.9597 191.422L74.9994 191.217L75.1125 190.627L75.6257 187.966L79.3346 188.681L79.7623 188.764L81.1707 189.036Z" fill="#FFB6B6"/>
<path d="M113.588 147.249C111.401 159.27 110.854 164.461 110.854 164.461C110.854 164.461 112.494 166.373 111.401 167.467C110.307 168.561 111.401 170.745 111.401 170.745L108.941 197.248L106.962 196.927L102.193 196.16L100.473 195.882L101.566 171.02C101.566 171.02 100.473 168.833 101.019 168.286C101.566 167.739 100.473 164.461 100.473 164.461L99.107 138.505L90.6353 166.92C90.6353 166.92 91.4571 168.014 90.6353 168.833C89.8165 169.651 88.179 173.751 88.179 173.751L83.1412 191.379L82.7135 192.876L80.0861 192.384L77.2266 191.846L76.7011 191.749L75.7662 191.572L75.1644 191.459L74.9597 191.422L73.9698 191.235L74.2692 189.907L74.4251 189.207L78.6869 170.278L78.7846 169.841L78.8885 169.379C78.8885 169.379 78.3417 168.014 79.1604 167.192C79.3999 166.942 79.5749 166.637 79.6702 166.303C79.7655 165.97 79.7782 165.619 79.7073 165.28C79.6805 165.251 79.6559 165.22 79.634 165.188C79.5372 165.055 79.4705 164.903 79.4384 164.742C79.3651 164.4 79.4293 163.92 79.9822 163.367C80.138 163.202 80.2687 163.014 80.3702 162.811C81.2012 161.238 81.6197 157.905 81.6197 157.905C81.6197 157.905 82.3591 131.506 84.7787 127.473C84.8743 127.297 85.0092 127.145 85.1728 127.03C87.904 125.393 114.132 127.03 114.132 127.03C114.132 127.03 114.169 127.219 114.227 127.58C114.541 129.605 115.442 137.051 113.588 147.249Z" fill="#2F2E41"/>
<path d="M112.728 98.7493L113.494 94.1357L127.597 96.5092L147.607 97.9409C148.041 97.4605 148.619 97.1332 149.254 97.0077C149.889 96.8822 150.548 96.9653 151.132 97.2444C151.716 97.5236 152.195 97.984 152.496 98.557C152.798 99.1301 152.906 99.7852 152.805 100.425C152.704 101.064 152.399 101.654 151.936 102.107C151.473 102.559 150.876 102.849 150.234 102.935C149.592 103.021 148.94 102.897 148.374 102.582C147.808 102.267 147.36 101.777 147.094 101.187L134.822 102.012L112.728 98.7493Z" fill="#FFB6B6"/>
<path d="M102.186 95.5563L103.182 91.4378C103.182 91.4378 108.59 90.4424 112.865 91.3948L128.948 94.4814L127.647 104.204L102.186 95.5563Z" fill="#8AFF63"/>
<path d="M64.8554 129.469L73.8535 109.922L80.4202 96.0918L86.1153 99.4436L68.3864 131.62C68.5421 132.194 68.5242 132.801 68.3349 133.365C68.1457 133.928 67.7936 134.423 67.3232 134.786C66.8528 135.149 66.2852 135.365 65.6922 135.406C65.0992 135.447 64.5074 135.311 63.9917 135.015C63.476 134.72 63.0595 134.278 62.7948 133.746C62.5302 133.213 62.4294 132.615 62.5051 132.025C62.5807 131.435 62.8295 130.882 63.22 130.433C63.6105 129.985 64.1251 129.663 64.6987 129.507C64.7506 129.493 64.8028 129.481 64.8554 129.469Z" fill="#FFB6B6"/>
<path d="M90.806 90.1658L86.4384 88.1619C86.4384 88.1619 85.6641 87.8932 83.994 90.2056C82.3239 92.518 67.9576 114.338 67.9576 114.338L77.0804 118.462L90.806 90.1658Z" fill="#8AFF63"/>
<path d="M112.784 208.799L107.099 204.87V202.307L106.289 202.356L102.195 202.6L101.117 202.665L100.372 211.591L100.362 211.717H103.048L103.072 211.591L103.527 209.181L104.691 211.591L104.753 211.717H111.877C112.091 211.716 112.303 211.674 112.5 211.591C112.765 211.48 112.994 211.299 113.165 211.068C113.335 210.838 113.441 210.565 113.47 210.28C113.499 209.994 113.45 209.706 113.33 209.445C113.209 209.185 113.021 208.962 112.784 208.799Z" fill="#2F2E41"/>
<path d="M82.4599 209.034L79.9822 206.333L78.2531 204.445L77.9689 204.134L77.9262 204.088L77.7887 203.938L78.36 201.439L77.2113 201.25L73.1908 200.581L72.9739 200.547L72.5462 200.474L72.4484 200.458L71.0767 204.781L69.8333 208.689L69.6989 209.117L71.3516 209.492L72.3171 209.712L72.7936 208.619L72.8456 208.503L73.1572 207.785V207.782L73.3497 207.348L73.9821 210.091L74.0921 210.116L74.1073 210.119L74.4953 210.207L75.253 210.381L80.5505 211.591L80.9263 211.677C81.3402 211.769 81.7737 211.694 82.1325 211.468C82.4913 211.242 82.7462 210.883 82.8418 210.47C82.8993 210.218 82.8946 209.955 82.8281 209.705C82.7615 209.455 82.6352 209.225 82.4599 209.034Z" fill="#2F2E41"/>
<path d="M106.98 77.5618C106.362 78.6957 105.504 79.6812 104.466 80.4494C103.428 81.2177 102.235 81.7503 100.97 82.01C100.83 82.0406 100.689 82.065 100.546 82.0864C98.5609 82.3967 96.5296 82.0262 94.7821 81.0352C93.0347 80.0442 91.674 78.4911 90.9215 76.6285C90.1689 74.766 90.0688 72.7035 90.6374 70.7768C91.206 68.8501 92.4099 67.1725 94.0531 66.017C95.6963 64.8614 97.6822 64.2959 99.6877 64.4125C101.693 64.529 103.6 65.3208 105.098 66.6589C106.597 67.9971 107.598 69.8028 107.94 71.7824C108.281 73.7621 107.943 75.799 106.98 77.5618Z" fill="#FFB6B6"/>
<path d="M103.442 65.4849C100.531 63.4826 97.9668 63.1776 95.8607 63.7455C95.5878 63.3232 95.2049 62.9833 94.7533 62.7621C93.1107 58.6233 88.1121 56.1378 83.8223 57.3461C79.5048 58.5621 76.5258 63.3447 77.3382 67.756C77.8416 70.4904 79.5625 72.8582 80.2547 75.551C81.5945 80.7638 78.326 86.7351 73.2128 88.4154C78.054 89.3875 83.3831 86.4303 85.12 81.8079C85.9635 79.5627 86.0144 77.1114 86.1217 74.7153C86.1499 73.0615 86.3525 71.4152 86.7262 69.8039C86.9116 69.081 87.1736 68.3799 87.5078 67.7126C88.2356 66.2458 89.4445 65.073 90.9326 64.3898C90.7994 64.802 90.7661 65.24 90.8354 65.6675C90.9048 66.0951 91.0748 66.5001 91.3315 66.849C90.1962 68.2713 89.5782 69.8094 89.5782 70.7305C87.2196 75.0412 90.5924 78.744 94.9032 81.1025C96.6226 82.0481 98.6079 82.3943 100.546 82.0862L100.726 81.3163L100.971 82.0098L101.786 84.3348C102.727 84.79 103.66 85.289 104.585 85.8318C104.233 84.182 103.949 82.5353 103.754 80.9253C103.483 78.734 104.427 75.4716 105.108 73.4877C105.53 72.265 105.746 70.9808 105.749 69.6873V69.6307L106.412 71.7601L108.825 70.7305C108.376 68.1551 108.825 65.2314 103.442 65.4849Z" fill="#2F2E41"/>
<path d="M84.8986 124.571C85.2159 123.316 85.2159 122.002 84.8986 120.746C84.3522 118.834 85.4451 118.014 85.4451 118.014L85.7183 88.5068C86.8726 87.3524 89.9652 87.3337 91.6954 87.4235V86.124C91.6954 85.6455 91.8854 85.1866 92.2238 84.8483C92.5621 84.5099 93.021 84.3198 93.4995 84.3198H101.5C101.979 84.3198 102.438 84.5099 102.776 84.8483C103.115 85.1866 103.305 85.6455 103.305 86.124V87.6816L105.651 87.7185C109.738 88.0229 113.313 92.0586 113.313 92.0586L109.761 105.719C109.761 105.719 110.854 116.921 112.22 118.287C113.586 119.653 113.04 120.473 113.04 120.473C113.04 120.473 112.22 123.478 113.86 124.571C115.499 125.664 114.406 127.577 114.406 127.577C114.406 127.577 84.8986 128.123 84.079 127.303C83.2593 126.484 84.8986 124.571 84.8986 124.571Z" fill="#8AFF63"/>
<path d="M139.266 211.955C139.266 212.003 139.257 212.05 139.239 212.094C139.22 212.138 139.194 212.178 139.16 212.212C139.126 212.246 139.086 212.273 139.042 212.291C138.997 212.309 138.95 212.319 138.902 212.318H53.2716C53.1752 212.318 53.0827 212.28 53.0146 212.212C52.9464 212.144 52.9081 212.051 52.9081 211.955C52.9081 211.858 52.9464 211.766 53.0146 211.698C53.0827 211.63 53.1752 211.591 53.2716 211.591H138.902C138.95 211.591 138.997 211.6 139.042 211.619C139.086 211.637 139.126 211.664 139.16 211.697C139.194 211.731 139.22 211.771 139.239 211.816C139.257 211.86 139.266 211.907 139.266 211.955Z" fill="#CCCCCC"/>
</g>
<defs>
<clipPath id="clip0_244_186">
<rect width="179.681" height="212.319" fill="white"/>
</clipPath>
</defs>
</svg>
