<svg width="220" height="189" viewBox="0 0 220 189" fill="none" xmlns="http://www.w3.org/2000/svg">
<g clip-path="url(#clip0_245_384)">
<path d="M16.486 172.888C17.7511 173.333 19.1094 173.445 20.4301 173.212C21.7507 172.979 22.9892 172.411 24.0262 171.56C26.6671 169.344 27.4953 165.693 28.1688 162.311L30.1615 152.31L25.9896 155.182C22.9891 157.248 19.9213 159.38 17.844 162.373C15.7668 165.365 14.8605 169.45 16.529 172.688" fill="#E6E6E6"/>
<path d="M17.1303 185.694C16.6052 181.868 16.065 177.993 16.4342 174.127C16.7614 170.693 17.8091 167.339 19.9421 164.588C21.0742 163.131 22.4519 161.883 24.0131 160.899C24.4201 160.642 24.7948 161.287 24.3895 161.543C21.6882 163.25 19.5987 165.771 18.4224 168.742C17.1234 172.046 16.9148 175.648 17.1385 179.158C17.2738 181.281 17.5612 183.389 17.8499 185.495C17.8727 185.591 17.8584 185.691 17.8101 185.776C17.7617 185.861 17.6828 185.925 17.5893 185.954C17.4939 185.98 17.3923 185.967 17.3064 185.918C17.2205 185.869 17.1574 185.789 17.1306 185.694L17.1303 185.694Z" fill="#F2F2F2"/>
<path d="M20.9099 179.555C21.4524 180.38 22.1982 181.051 23.0754 181.504C23.9526 181.957 24.9317 182.176 25.9183 182.141C28.4543 182.021 30.5676 180.251 32.4699 178.571L38.0975 173.602L34.3731 173.424C31.6946 173.296 28.9471 173.176 26.3959 174.002C23.8447 174.829 21.4919 176.816 21.0255 179.457" fill="#E6E6E6"/>
<path d="M15.646 187.893C18.174 183.42 21.1061 178.449 26.3457 176.86C27.8024 176.419 29.3299 176.262 30.8458 176.395C31.3237 176.436 31.2043 177.173 30.7275 177.132C28.1863 176.921 25.65 177.592 23.5456 179.032C21.5206 180.41 19.9438 182.327 18.6094 184.359C17.7919 185.603 17.0597 186.901 16.3275 188.197C16.0935 188.611 15.4093 188.312 15.646 187.893Z" fill="#F2F2F2"/>
<path d="M217.928 132.673H78.5528C78.1233 132.673 77.7116 132.502 77.408 132.198C77.1043 131.894 76.9334 131.483 76.9329 131.053V1.61994C76.9334 1.19048 77.1043 0.778764 77.408 0.475089C77.7116 0.171414 78.1233 0.000561414 78.5528 0H217.928C218.357 0.000561414 218.769 0.171414 219.072 0.475089C219.376 0.778764 219.547 1.19048 219.548 1.61994V131.053C219.547 131.482 219.376 131.894 219.073 132.198C218.769 132.502 218.357 132.673 217.928 132.673Z" fill="white"/>
<path d="M217.928 132.673H78.5528C78.1233 132.673 77.7116 132.502 77.408 132.198C77.1043 131.894 76.9334 131.483 76.9329 131.053V1.61994C76.9334 1.19048 77.1043 0.778764 77.408 0.475089C77.7116 0.171414 78.1233 0.000561414 78.5528 0H217.928C218.357 0.000561414 218.769 0.171414 219.072 0.475089C219.376 0.778764 219.547 1.19048 219.548 1.61994V131.053C219.547 131.482 219.376 131.894 219.073 132.198C218.769 132.502 218.357 132.673 217.928 132.673ZM78.5528 0.646699C78.2954 0.647258 78.0487 0.749753 77.8667 0.931751C77.6847 1.11375 77.5823 1.36043 77.5817 1.61781V131.053C77.5823 131.31 77.6847 131.557 77.8667 131.739C78.0487 131.921 78.2954 132.024 78.5528 132.024H217.928C218.185 132.024 218.432 131.921 218.614 131.739C218.796 131.557 218.898 131.31 218.899 131.053V1.61994C218.898 1.36256 218.796 1.11587 218.614 0.933876C218.432 0.751879 218.185 0.649384 217.928 0.648825L78.5528 0.646699Z" fill="#CACACA"/>
<path d="M144.41 33.6338C144.119 33.6343 143.839 33.7504 143.633 33.9566C143.428 34.1628 143.312 34.4422 143.312 34.7336C143.312 35.0249 143.428 35.3044 143.633 35.5106C143.839 35.7168 144.119 35.8328 144.41 35.8333H204.757C205.049 35.8328 205.328 35.7168 205.534 35.5106C205.739 35.3044 205.855 35.0249 205.855 34.7336C205.855 34.4422 205.739 34.1628 205.534 33.9566C205.328 33.7504 205.049 33.6343 204.757 33.6338H144.41Z" fill="#E4E4E4"/>
<path d="M144.41 40.2329C144.119 40.2336 143.84 40.3498 143.634 40.556C143.429 40.7621 143.313 41.0415 143.313 41.3327C143.313 41.6239 143.429 41.9032 143.634 42.1094C143.84 42.3156 144.119 42.4318 144.41 42.4325H175.219C175.51 42.4318 175.789 42.3156 175.995 42.1094C176.2 41.9032 176.316 41.6239 176.316 41.3327C176.316 41.0415 176.2 40.7621 175.995 40.556C175.789 40.3498 175.51 40.2336 175.219 40.2329H144.41Z" fill="#E4E4E4"/>
<path d="M91.6645 75.7217C91.3733 75.7224 91.0942 75.8386 90.8886 76.0447C90.6829 76.2509 90.5674 76.5302 90.5674 76.8215C90.5674 77.1127 90.6829 77.392 90.8886 77.5982C91.0942 77.8044 91.3733 77.9205 91.6645 77.9212H204.816C205.107 77.9205 205.386 77.8044 205.592 77.5982C205.798 77.392 205.913 77.1127 205.913 76.8215C205.913 76.5302 205.798 76.2509 205.592 76.0447C205.386 75.8386 205.107 75.7224 204.816 75.7217H91.6645Z" fill="#E4E4E4"/>
<path d="M91.6645 82.3213C91.3733 82.322 91.0942 82.4382 90.8886 82.6443C90.6829 82.8505 90.5674 83.1298 90.5674 83.4211C90.5674 83.7123 90.6829 83.9916 90.8886 84.1978C91.0942 84.404 91.3733 84.5201 91.6645 84.5208H175.277C175.568 84.5201 175.847 84.404 176.053 84.1978C176.259 83.9916 176.374 83.7123 176.374 83.4211C176.374 83.1298 176.259 82.8505 176.053 82.6443C175.847 82.4382 175.568 82.322 175.277 82.3213H91.6645Z" fill="#E4E4E4"/>
<path d="M91.6645 88.771C91.3733 88.7717 91.0942 88.8879 90.8886 89.0941C90.6829 89.3002 90.5674 89.5796 90.5674 89.8708C90.5674 90.162 90.6829 90.4413 90.8886 90.6475C91.0942 90.8537 91.3733 90.9698 91.6645 90.9706H204.816C205.107 90.9698 205.386 90.8537 205.592 90.6475C205.798 90.4413 205.913 90.162 205.913 89.8708C205.913 89.5796 205.798 89.3002 205.592 89.0941C205.386 88.8879 205.107 88.7717 204.816 88.771H91.6645Z" fill="#E4E4E4"/>
<path d="M91.6645 95.3706C91.3733 95.3713 91.0942 95.4875 90.8886 95.6937C90.6829 95.8998 90.5674 96.1792 90.5674 96.4704C90.5674 96.7616 90.6829 97.0409 90.8886 97.2471C91.0942 97.4533 91.3733 97.5695 91.6645 97.5702H175.277C175.568 97.5695 175.847 97.4533 176.053 97.2471C176.259 97.0409 176.374 96.7616 176.374 96.4704C176.374 96.1792 176.259 95.8998 176.053 95.6937C175.847 95.4875 175.568 95.3713 175.277 95.3706H91.6645Z" fill="#E4E4E4"/>
<path d="M91.6645 101.992C91.3733 101.993 91.0942 102.109 90.8886 102.315C90.6829 102.521 90.5674 102.801 90.5674 103.092C90.5674 103.383 90.6829 103.663 90.8886 103.869C91.0942 104.075 91.3733 104.191 91.6645 104.192H204.816C205.107 104.191 205.386 104.075 205.592 103.869C205.798 103.663 205.913 103.383 205.913 103.092C205.913 102.801 205.798 102.521 205.592 102.315C205.386 102.109 205.107 101.993 204.816 101.992H91.6645Z" fill="#E4E4E4"/>
<path d="M91.6645 108.591C91.3733 108.592 91.0942 108.708 90.8886 108.914C90.6829 109.121 90.5674 109.4 90.5674 109.691C90.5674 109.982 90.6829 110.262 90.8886 110.468C91.0942 110.674 91.3733 110.79 91.6645 110.791H175.277C175.568 110.79 175.847 110.674 176.053 110.468C176.259 110.262 176.374 109.982 176.374 109.691C176.374 109.4 176.259 109.121 176.053 108.914C175.847 108.708 175.568 108.592 175.277 108.591H91.6645Z" fill="#E4E4E4"/>
<path d="M109.587 53.8341C106.462 53.8342 103.407 52.9075 100.808 51.1713C98.2097 49.4351 96.1844 46.9673 94.9885 44.0801C93.7925 41.1929 93.4796 38.0159 94.0892 34.9508C94.6989 31.8857 96.2038 29.0702 98.4136 26.8604C100.623 24.6506 103.439 23.1457 106.504 22.536C109.569 21.9264 112.746 22.2393 115.633 23.4352C118.52 24.6311 120.988 26.6563 122.724 29.2548C124.461 31.8532 125.387 34.9082 125.387 38.0333C125.383 42.2224 123.716 46.2387 120.754 49.2009C117.792 52.1631 113.776 53.8293 109.587 53.8341Z" fill="#8AFF63"/>
<path d="M61.6227 113.578C61.5954 113.001 61.4419 112.438 61.1731 111.927C60.9044 111.416 60.5269 110.97 60.0671 110.62C59.6074 110.271 59.0767 110.027 58.5124 109.905C57.948 109.783 57.3638 109.786 56.8008 109.914L51.578 102.554L46.3311 104.637L53.8526 114.927C54.1307 115.859 54.7407 116.656 55.5672 117.168C56.3937 117.679 57.3792 117.87 58.337 117.704C59.2947 117.538 60.1582 117.026 60.7638 116.265C61.3693 115.505 61.675 114.549 61.6227 113.578Z" fill="#A0616A"/>
<path d="M51.4435 113.033L35.6401 92.5309L41.5615 73.921C41.9954 69.2422 44.9232 67.9357 45.0478 67.8823L45.2378 67.8008L50.3905 81.5417L46.6072 91.6305L55.8932 107.248L51.4435 113.033Z" fill="#3F3D56"/>
<path d="M106.326 49.8325C105.753 49.9043 105.203 50.1009 104.714 50.4083C104.226 50.7158 103.81 51.1267 103.497 51.612C103.185 52.0974 102.982 52.6454 102.904 53.2175C102.826 53.7896 102.875 54.3718 103.046 54.9232L96.1113 60.6994L98.5937 65.7696L108.272 57.4749C109.179 57.1257 109.927 56.4558 110.373 55.5922C110.819 54.7287 110.933 53.7314 110.694 52.7893C110.454 51.8473 109.877 51.026 109.072 50.481C108.267 49.9361 107.29 49.7053 106.326 49.8325Z" fill="#A0616A"/>
<path d="M106.569 60.0234L87.3507 77.3645L68.3387 72.8997C63.6404 72.8289 62.1115 70.0109 62.0486 69.8908L61.9526 69.7076L75.254 63.5079L85.6051 66.4999L100.458 56.0342L106.569 60.0234Z" fill="#3F3D56"/>
<path d="M73.28 183.302L78.4437 183.302L80.8999 163.385L73.2791 163.385L73.28 183.302Z" fill="#A0616A"/>
<path d="M88.4019 188.096L72.1734 188.096L72.1731 181.826L83.8486 181.826C85.0561 181.826 86.2142 182.305 87.0681 183.159C87.922 184.013 88.4017 185.171 88.4018 186.379L88.4019 188.096Z" fill="#2F2E41"/>
<path d="M52.6418 183.302L57.8054 183.302L60.262 163.385L52.6411 163.385L52.6418 183.302Z" fill="#A0616A"/>
<path d="M67.7639 188.096L51.5354 188.096L51.5351 181.826L63.2107 181.826C63.8086 181.826 64.4006 181.943 64.953 182.172C65.5054 182.401 66.0074 182.736 66.4302 183.159C66.853 183.582 67.1884 184.084 67.4172 184.636C67.646 185.189 67.7638 185.781 67.7638 186.379L67.7639 188.096Z" fill="#2F2E41"/>
<path d="M50.8052 110.603L51.2263 140.086L51.6478 178.835L60.9135 177.992L65.5467 124.502L71.4433 177.992H81.0093L81.9728 124.081L78.6034 112.288L50.8052 110.603Z" fill="#2F2E41"/>
<path d="M68.9413 114.562C58.8593 114.563 49.5789 110 49.4537 109.937L49.3496 109.885L48.5035 89.5806C48.2582 88.8631 43.427 74.7049 42.6088 70.2048C41.7798 65.6455 53.7947 61.6441 55.2537 61.1762L55.5848 57.5085L69.049 56.0576L70.7555 60.7507L75.5858 62.5619C76.1334 62.7674 76.5866 63.1666 76.8596 63.6839C77.1325 64.2013 77.2061 64.8007 77.0666 65.3687L74.382 76.2862L80.9388 112.407L79.5271 112.468C76.1436 113.996 72.4917 114.562 68.9413 114.562Z" fill="#3F3D56"/>
<path d="M67.4936 52.5466C72.1915 49.9785 73.918 44.0883 71.3499 39.3904C68.7818 34.6926 62.8916 32.966 58.1937 35.5341C53.4959 38.1022 51.7694 43.9924 54.3374 48.6903C56.9055 53.3882 62.7958 55.1147 67.4936 52.5466Z" fill="#A0616A"/>
<path d="M54.992 53.4255C56.8395 55.3935 60.2705 54.337 60.5113 51.6485C60.5302 51.4397 60.5288 51.2297 60.5072 51.0212C60.3829 49.8303 59.6949 48.7491 59.8597 47.4917C59.897 47.1787 60.0136 46.8805 60.1984 46.6252C61.6706 44.6538 65.1265 47.507 66.516 45.7223C67.3679 44.628 66.3665 42.905 67.0203 41.6819C67.8831 40.0677 70.439 40.864 72.0418 39.9799C73.8251 38.9963 73.7184 36.2602 72.5445 34.596C71.1129 32.5664 68.6029 31.4834 66.1241 31.3273C63.6453 31.1713 61.1836 31.8413 58.8694 32.7432C56.24 33.7679 53.6327 35.184 52.0146 37.496C50.0468 40.3077 49.8575 44.0877 50.8416 47.3753C51.4402 49.3753 53.4833 51.8184 54.992 53.4255Z" fill="#2F2E41"/>
<path d="M123.182 188.346H0.322466C0.236943 188.346 0.154917 188.312 0.0944431 188.251C0.0339689 188.191 0 188.109 0 188.023C0 187.938 0.0339689 187.856 0.0944431 187.795C0.154917 187.735 0.236943 187.701 0.322466 187.701H123.182C123.268 187.701 123.35 187.735 123.41 187.795C123.471 187.856 123.505 187.938 123.505 188.023C123.505 188.109 123.471 188.191 123.41 188.251C123.35 188.312 123.268 188.346 123.182 188.346Z" fill="#CACACA"/>
<path d="M108.674 44.0013C108.389 44.0016 108.115 43.8938 107.906 43.6996L102.696 38.8602C102.477 38.6564 102.348 38.374 102.337 38.0751C102.326 37.7762 102.435 37.4852 102.638 37.266C102.842 37.0468 103.124 36.9174 103.423 36.9062C103.722 36.895 104.013 37.003 104.232 37.2063L108.645 41.3055L117.377 32.5743C117.481 32.4689 117.606 32.3851 117.743 32.3279C117.88 32.2706 118.027 32.241 118.176 32.2407C118.324 32.2405 118.471 32.2695 118.609 32.3263C118.746 32.383 118.871 32.4663 118.976 32.5714C119.081 32.6764 119.164 32.8012 119.221 32.9386C119.278 33.0759 119.307 33.2231 119.306 33.3717C119.306 33.5202 119.276 33.6673 119.219 33.8044C119.162 33.9415 119.078 34.0659 118.973 34.1706L109.472 43.6708C109.368 43.7757 109.243 43.8589 109.106 43.9156C108.969 43.9723 108.822 44.0014 108.674 44.0013Z" fill="white"/>
</g>
<defs>
<clipPath id="clip0_245_384">
<rect width="219.548" height="188.395" fill="white"/>
</clipPath>
</defs>
</svg>
