<svg width="161" height="190" viewBox="0 0 161 190" fill="none" xmlns="http://www.w3.org/2000/svg">
<g clip-path="url(#clip0_245_674)">
<path d="M69.9044 179.703L69.3948 181.933L69.5174 182.066C69.4901 182.134 69.4629 182.202 69.4302 182.271C69.1594 182.882 68.8499 183.476 68.5035 184.048C68.0457 184.808 67.5333 185.541 67.0018 186.261C66.7102 186.658 66.4104 187.054 66.1106 187.446C66.1025 187.459 66.0933 187.472 66.0834 187.484C66.0867 187.47 66.0912 187.457 66.097 187.443L65.9989 187.422L65.4347 184.974L65.263 185.361V185.364L64.985 186.004C65.0068 186.122 65.0286 186.236 65.0559 186.351C65.0532 186.348 65.0532 186.342 65.0504 186.34C65.0477 186.337 65.0477 186.337 65.0477 186.334C65.0123 186.258 64.9741 186.184 64.9387 186.108L64.5135 187.084L63.6523 186.887C63.1999 186.653 62.7475 186.416 62.2978 186.171C56.1547 182.837 50.4667 178.583 46.6375 172.792C45.1154 170.484 43.9649 167.952 43.228 165.288C41.7754 159.996 42.0261 154.3 44.6698 149.571L44.6699 149.57L44.6705 149.569L44.6714 149.568L44.6725 149.568C44.7379 149.448 44.806 149.328 44.8769 149.208C44.9287 149.345 44.9777 149.481 45.0322 149.617V149.62C45.7428 151.471 46.6004 153.262 47.5969 154.975C47.6732 155.109 47.7495 155.243 47.8312 155.373C50.2654 159.459 53.437 163.058 57.1849 165.986C57.1951 165.996 57.206 166.005 57.2176 166.013C57.2306 166.024 57.2442 166.034 57.2585 166.043C58.0925 166.698 58.9546 167.313 59.8449 167.889V167.891C60.5399 168.344 61.2539 168.772 61.9789 169.178C63.5242 170.039 65.2058 170.867 66.6503 171.9C68.0538 172.901 69.2367 174.092 69.8662 175.686C69.9153 175.814 69.9616 175.942 70.0025 176.07L68.8796 179.534L69.9044 179.703Z" fill="#F0F0F0"/>
<path d="M65.263 185.361V185.364L64.9851 186.004C64.5653 183.671 65.0641 181.205 64.718 178.842C64.6798 178.578 64.6308 178.313 64.5681 178.052C64.2138 176.558 63.4043 175.16 61.9653 174.492C61.5453 174.301 61.1044 174.159 60.6516 174.07C59.7577 173.879 58.8256 173.838 57.9235 173.732C57.6973 173.705 57.4738 173.675 57.2558 173.634C56.0893 173.453 54.9756 173.022 53.9907 172.372C52.785 171.515 51.7343 170.459 50.8837 169.248C50.3217 168.489 49.7987 167.701 49.3166 166.888C49.2512 166.785 49.1913 166.678 49.1286 166.572C48.0006 164.618 47.0755 162.555 46.3677 160.413C46.0031 159.318 45.6974 158.204 45.452 157.077C44.9058 154.613 44.6433 152.094 44.6698 149.571C44.6698 149.571 44.6698 149.57 44.67 149.57C44.6701 149.57 44.6703 149.569 44.6706 149.569C44.6708 149.569 44.6711 149.569 44.6715 149.568C44.6718 149.568 44.6722 149.568 44.6725 149.568C44.6698 149.454 44.6725 149.339 44.6752 149.225C44.6807 148.99 45.0432 149.042 45.0377 149.277C45.035 149.391 45.0323 149.503 45.0323 149.617V149.62C45.0101 152.038 45.2541 154.451 45.76 156.815C45.7872 156.935 45.8145 157.055 45.839 157.175C46.5758 160.451 47.8141 163.594 49.5101 166.493C49.5292 166.526 49.5483 166.558 49.5701 166.591C49.9653 167.264 50.3904 167.918 50.8374 168.559C51.6586 169.792 52.6685 170.888 53.8299 171.808C54.8073 172.539 55.9423 173.031 57.144 173.244C57.2639 173.266 57.3839 173.288 57.5065 173.307C57.6019 173.323 57.7 173.337 57.7981 173.347C58.7166 173.462 59.6596 173.506 60.5726 173.68C60.9877 173.758 61.3953 173.872 61.7909 174.021C62.4384 174.28 63.0238 174.674 63.5085 175.175C63.9932 175.677 64.3664 176.275 64.6035 176.931C64.8465 177.568 65.013 178.231 65.0995 178.907C65.1295 179.128 65.1513 179.349 65.1704 179.572V179.575C65.1976 179.935 65.2113 180.297 65.2167 180.66C65.2222 181.112 65.214 181.565 65.2031 182.014C65.1426 183.13 65.1627 184.248 65.263 185.361Z" fill="white"/>
<path d="M49.4718 166.812C48.4333 167.34 47.241 167.481 46.108 167.211C44.975 166.94 43.975 166.276 43.2866 165.336C43.148 165.146 43.4377 164.921 43.5765 165.112C44.2159 165.988 45.1475 166.607 46.203 166.857C47.2586 167.106 48.3686 166.97 49.3328 166.473C49.5424 166.366 49.6803 166.705 49.4718 166.812Z" fill="white"/>
<path d="M57.1086 173.353C57.8675 171.096 57.7479 168.636 56.7735 166.463C56.6768 166.248 57.0158 166.109 57.1124 166.324C58.1221 168.587 58.2414 171.147 57.4465 173.494C57.3706 173.718 57.0331 173.575 57.1086 173.353Z" fill="white"/>
<path d="M45.6541 156.849C46.0985 156.729 46.506 156.5 46.8401 156.183C47.1741 155.866 47.4243 155.471 47.568 155.034C47.6411 154.809 47.9785 154.952 47.906 155.175C47.7449 155.658 47.4681 156.093 47.0998 156.444C46.7315 156.795 46.2829 157.05 45.7932 157.188C45.7481 157.205 45.6983 157.204 45.6539 157.185C45.6095 157.167 45.5739 157.132 45.5542 157.088C45.536 157.043 45.5363 156.993 45.555 156.948C45.5737 156.903 45.6094 156.868 45.6541 156.849Z" fill="white"/>
<path d="M66.0671 187.506C66.0725 187.498 66.078 187.493 66.0834 187.484C66.0725 187.517 66.0616 187.55 66.0535 187.585L66.0671 187.506Z" fill="#F0F0F0"/>
<path d="M74.1698 170.728L73.7882 172.064L71.4444 171.625L70.6676 174.02L70.5341 174.432L70.0026 176.07L68.8797 179.534L69.9045 179.703L69.3949 181.932L69.5175 182.066L69.5556 182.107L69.8091 182.385L71.3517 184.069L67.1327 187.68L66.4568 187.525L66.1107 187.446C66.1025 187.459 66.0934 187.472 66.0835 187.484C66.0868 187.47 66.0913 187.456 66.0971 187.443L65.999 187.421L65.4348 184.974L65.2631 185.361V185.364L64.9851 186.004C65.0069 186.121 65.0287 186.236 65.056 186.35C65.0532 186.348 65.0533 186.342 65.0505 186.339C65.0478 186.337 65.0478 186.337 65.0478 186.334C65.0124 186.258 64.9742 186.184 64.9388 186.108C64.3992 184.982 63.884 183.84 63.4071 182.685C62.2317 179.902 61.3095 177.018 60.6517 174.07C60.6245 173.941 60.5945 173.813 60.5727 173.683V173.68C60.1729 171.773 59.9295 169.837 59.845 167.891V167.888C59.8014 166.823 59.8123 165.756 59.8777 164.691C60.0501 161.94 60.6543 159.234 61.6683 156.67C61.6737 156.657 61.6792 156.646 61.6846 156.632C63.6279 151.743 67.0483 147.502 71.6978 145.243C71.8913 145.145 72.0903 145.052 72.2892 144.965H72.2947L72.2974 144.962C72.4228 144.908 72.5454 144.856 72.6708 144.801C72.6299 144.943 72.5863 145.085 72.5481 145.229C71.9981 147.134 71.6044 149.08 71.3708 151.048V151.051C71.349 151.201 71.3299 151.356 71.3135 151.509V151.511C70.7994 156.259 71.1708 161.061 72.4091 165.673C72.4119 165.686 72.4173 165.697 72.42 165.711C72.8825 167.423 73.4672 169.1 74.1698 170.728Z" fill="#F0F0F0"/>
<path d="M69.8089 182.385C69.5936 182.674 69.3728 182.955 69.1493 183.235C68.934 183.505 68.7187 183.775 68.5034 184.047C67.9406 184.741 67.4382 185.481 67.0017 186.26C66.7829 186.665 66.6005 187.088 66.4566 187.525L66.1105 187.446C66.1023 187.459 66.0932 187.472 66.0833 187.484C66.0866 187.47 66.0911 187.456 66.0969 187.443C66.7319 185.459 68.1764 183.922 69.4301 182.27C69.4737 182.216 69.5146 182.161 69.5554 182.107L69.8089 182.385Z" fill="white"/>
<path d="M72.7606 144.954C72.6898 145.044 72.6162 145.137 72.5481 145.229C72.0166 145.919 71.5142 146.63 71.0409 147.363C70.198 148.657 69.4493 150.01 68.8006 151.411C68.7488 151.52 68.6971 151.631 68.648 151.743C67.26 154.805 66.3553 158.063 65.9662 161.402C65.9607 161.435 65.958 161.465 65.9553 161.497C65.8654 162.277 65.8072 163.059 65.7809 163.844C65.6939 165.322 65.8402 166.805 66.2142 168.237C66.2687 168.425 66.3287 168.611 66.3941 168.791C66.558 169.231 66.7634 169.656 67.0073 170.058C67.1826 170.351 67.3774 170.633 67.5905 170.9C67.7186 171.064 67.8522 171.224 67.9939 171.38C68.0757 171.47 68.1601 171.56 68.2446 171.65C68.3155 171.718 68.3836 171.789 68.4545 171.857C69.1903 172.571 70.0025 173.233 70.6675 174.021L70.534 174.432C69.8935 173.62 69.0677 172.947 68.3237 172.238C67.8566 171.799 67.4314 171.317 67.0536 170.799C67.0046 170.728 66.9528 170.658 66.9065 170.584C66.6539 170.215 66.4359 169.824 66.2551 169.415C66.1624 169.21 66.0779 169 66.0016 168.782C65.5563 167.373 65.3536 165.899 65.402 164.422C65.4108 163.476 65.4672 162.531 65.571 161.59C65.5819 161.467 65.5955 161.347 65.6119 161.225C65.8883 158.986 66.3923 156.782 67.1163 154.646C68.0326 151.936 69.293 149.355 70.8665 146.965C71.3162 146.281 71.7931 145.614 72.2973 144.962C72.3627 144.872 72.4309 144.785 72.5017 144.695C72.6462 144.51 72.9051 144.769 72.7606 144.954Z" fill="white"/>
<path d="M65.7417 161.624C64.5949 161.42 63.558 160.815 62.8161 159.917C62.0743 159.019 61.6758 157.887 61.6919 156.722C61.693 156.675 61.7124 156.629 61.7462 156.596C61.78 156.563 61.8254 156.544 61.8729 156.543C61.9204 156.542 61.9663 156.56 62.0009 156.593C62.0354 156.625 62.056 156.67 62.0583 156.718C62.0413 157.802 62.4126 158.857 63.1051 159.692C63.7976 160.527 64.7658 161.086 65.8348 161.27C66.067 161.31 65.9726 161.664 65.7417 161.624Z" fill="white"/>
<path d="M67.9012 171.445C69.866 170.1 71.2516 168.064 71.7817 165.742C71.8341 165.512 72.1883 165.605 72.136 165.835C71.5799 168.25 70.1336 170.366 68.086 171.761C67.8907 171.894 67.707 171.577 67.9012 171.445Z" fill="white"/>
<path d="M68.6921 151.371C69.1193 151.543 69.5825 151.605 70.0399 151.553C70.4974 151.502 70.9348 151.337 71.3129 151.074C71.5064 150.939 71.6899 151.256 71.4976 151.391C71.0785 151.679 70.5952 151.86 70.09 151.919C69.5847 151.977 69.0728 151.911 68.599 151.726C68.5529 151.712 68.5137 151.681 68.4895 151.64C68.4652 151.598 68.4577 151.549 68.4684 151.502C68.4809 151.455 68.5115 151.415 68.5534 151.391C68.5952 151.366 68.6451 151.359 68.6921 151.371Z" fill="white"/>
<path d="M107.545 30.5051C105.482 19.4617 108.73 6.89796 117.76 0.213379C117.248 12.4199 121.07 24.4139 128.55 34.0735C131.449 37.7883 135.059 41.6183 134.947 46.3287C134.877 49.2596 133.292 51.99 131.203 54.047C129.114 56.1041 126.541 57.5871 123.999 59.0471L123.603 59.6628C116.15 51.2563 109.608 41.5485 107.545 30.5051Z" fill="#F0F0F0"/>
<path d="M117.924 0.382006C114.131 8.87204 113.109 18.3415 115.004 27.4454C115.421 29.3934 116.015 31.333 117.021 33.0636C118.015 34.743 119.44 36.1256 121.149 37.0677C122.725 37.9782 124.442 38.7271 125.769 40.0047C127.168 41.3515 127.791 43.1895 127.739 45.1099C127.675 47.4595 126.771 49.6462 125.813 51.7539C124.749 54.0941 123.606 56.5079 123.675 59.1389C123.684 59.4577 123.189 59.4521 123.18 59.1338C123.06 54.5563 126.37 50.88 127.107 46.4877C127.451 44.4382 127.18 42.2726 125.739 40.6839C124.479 39.2947 122.708 38.5209 121.105 37.6128C119.421 36.6593 117.988 35.4812 116.923 33.8481C115.833 32.1774 115.162 30.2569 114.697 28.3282C113.673 23.9467 113.345 19.4316 113.724 14.9481C114.128 9.82881 115.405 4.81636 117.499 0.127633C117.629 -0.162515 118.053 0.0937517 117.924 0.382006Z" fill="white"/>
<path d="M114.221 24.5498C112.65 24.6603 111.091 24.209 109.823 23.2763C108.554 22.3437 107.658 20.9905 107.296 19.4584C107.223 19.1482 107.702 19.0212 107.774 19.3318C108.11 20.7591 108.944 22.0195 110.127 22.8856C111.31 23.7516 112.764 24.1663 114.226 24.0546C114.543 24.0308 114.536 24.526 114.221 24.5498Z" fill="white"/>
<path d="M120.289 36.7115C122.421 34.3005 123.566 31.1744 123.496 27.9566C123.489 27.6378 123.984 27.6434 123.991 27.9618C124.058 31.3104 122.86 34.5612 120.636 37.0653C120.423 37.3038 120.078 36.9487 120.289 36.7115Z" fill="white"/>
<path d="M114.708 10.1363C115.325 10.2201 115.952 10.1495 116.535 9.93081C117.117 9.71208 117.637 9.35208 118.046 8.88314C118.255 8.64204 118.6 8.99738 118.392 9.2369C117.938 9.7529 117.364 10.1498 116.721 10.3929C116.078 10.636 115.385 10.7178 114.703 10.6314C114.638 10.6286 114.576 10.6012 114.531 10.5548C114.485 10.5083 114.459 10.4463 114.458 10.3812C114.459 10.3157 114.486 10.2532 114.532 10.2073C114.579 10.1614 114.642 10.1359 114.708 10.1363Z" fill="white"/>
<path d="M154.684 9.34759C154.558 9.50185 154.432 9.65611 154.307 9.81443C152.62 11.8972 151.106 14.1135 149.778 16.4415C149.672 16.6198 149.568 16.8022 149.468 16.9832C146.329 22.626 144.266 28.8024 143.382 35.1986C143.032 37.7441 142.877 40.3125 142.917 42.8816C142.973 46.4296 143.316 50.2721 142.228 53.5352C142.118 53.877 141.988 54.2116 141.837 54.5371L124.385 60.0975C124.339 60.0902 124.294 60.087 124.248 60.0797L123.561 60.3336C123.55 60.2013 123.541 60.0638 123.529 59.9314C123.523 59.8547 123.519 59.7767 123.513 59.6999C123.509 59.6484 123.506 59.5967 123.5 59.5504C123.499 59.5332 123.498 59.516 123.498 59.5028C123.492 59.4565 123.491 59.4128 123.487 59.3705C123.435 58.6019 123.387 57.8321 123.347 57.0598C123.346 57.0558 123.346 57.0558 123.348 57.0505C123.049 51.168 123.238 45.2087 124.325 39.4675C124.358 39.2948 124.389 39.1182 124.43 38.9429C124.934 36.3578 125.649 33.8182 126.568 31.3496C127.075 29.9995 127.65 28.6759 128.291 27.3839C129.954 24.0488 132.13 20.996 134.742 18.3374C139.948 13.0383 146.791 9.46326 154.124 9.35068C154.312 9.34795 154.496 9.34635 154.684 9.34759Z" fill="#F0F0F0"/>
<path d="M154.716 9.58168C146.575 14.0765 140.058 21.0221 136.09 29.4318C135.25 31.2387 134.556 33.1446 134.318 35.1323C134.1 37.0715 134.406 39.0336 135.203 40.8148C135.913 42.4904 136.833 44.1222 137.124 45.9413C137.43 47.8587 136.82 49.7012 135.623 51.2033C134.157 53.0411 132.119 54.2428 130.085 55.3487C127.826 56.5765 125.461 57.8161 123.932 59.9583C123.747 60.2179 123.355 59.9153 123.54 59.6561C126.2 55.9289 131.055 54.9861 134.289 51.9231C135.797 50.4938 136.884 48.6012 136.69 46.4652C136.521 44.5974 135.573 42.9139 134.84 41.2234C134.07 39.4485 133.634 37.6449 133.767 35.6995C133.903 33.7094 134.524 31.7723 135.313 29.9519C137.134 25.8373 139.59 22.0346 142.592 18.683C145.997 14.8388 150.034 11.6054 154.53 9.12274C154.808 8.96919 154.992 9.42913 154.716 9.58168Z" fill="white"/>
<path d="M137.208 26.6487C135.887 25.7914 134.914 24.4925 134.463 22.9841C134.012 21.4757 134.111 19.856 134.744 18.4142C134.873 18.1229 135.332 18.3097 135.203 18.6014C134.611 19.9429 134.518 21.4517 134.942 22.8555C135.365 24.2592 136.276 25.4655 137.51 26.2565C137.778 26.4287 137.474 26.82 137.208 26.6487Z" fill="white"/>
<path d="M134.731 40.013C137.885 39.3715 140.682 37.5649 142.563 34.9533C142.749 34.6944 143.141 34.997 142.955 35.2556C140.992 37.9696 138.078 39.8437 134.795 40.504C134.482 40.5667 134.42 40.0753 134.731 40.013Z" fill="white"/>
<path d="M146.275 15.4333C146.717 15.8715 147.261 16.1931 147.857 16.3692C148.454 16.5453 149.085 16.5704 149.694 16.4423C150.006 16.3756 150.068 16.8671 149.758 16.9333C149.085 17.0718 148.387 17.0432 147.728 16.8501C147.068 16.6569 146.465 16.3052 145.973 15.8255C145.922 15.7842 145.89 15.7253 145.882 15.6608C145.873 15.5963 145.89 15.531 145.928 15.4783C145.968 15.4265 146.027 15.3928 146.092 15.3844C146.157 15.376 146.223 15.3935 146.275 15.4333Z" fill="white"/>
<path d="M42.5372 17.3127C41.5729 16.632 40.5178 15.9222 39.3378 15.9505C36.4818 16.0192 34.9419 20.206 32.0888 20.0588C30.2693 19.9649 29.0615 18.1165 27.3673 17.4463C25.1617 16.5738 22.3549 18.2802 22.1143 20.6399L22.3975 20.3806C30.9712 22.4708 39.8684 22.8818 48.5983 21.5911C46.5779 20.1649 44.5576 18.7388 42.5372 17.3127Z" fill="#F0F0F0"/>
<path d="M47.881 22.3485C53.3543 22.3485 57.7914 17.9115 57.7914 12.4382C57.7914 6.96484 53.3543 2.52783 47.881 2.52783C42.4077 2.52783 37.9707 6.96484 37.9707 12.4382C37.9707 17.9115 42.4077 22.3485 47.881 22.3485Z" fill="#FF6582"/>
<path d="M71.0786 10.5451C69.8496 9.67759 68.505 8.77299 67.0012 8.80916C63.3614 8.89668 61.399 14.2324 57.763 14.0448C55.4442 13.9251 53.9049 11.5695 51.7458 10.7154C48.935 9.60349 45.3579 11.7782 45.0513 14.7853L45.4123 14.4549C56.3387 17.1186 67.6774 17.6425 78.8028 15.9975C76.2281 14.18 73.6534 12.3626 71.0786 10.5451Z" fill="#F0F0F0"/>
<path d="M160.223 110.03L149.705 53.718C149.525 52.7897 149.036 51.9501 148.316 51.3369C147.596 50.7236 146.689 50.3731 145.744 50.3427C145.659 50.3408 145.574 50.3408 145.489 50.3427L138.325 50.5997L137.554 50.6281L133.978 50.7566L133.207 50.7831L130.907 50.8662L84.5296 52.5312C84.4597 52.535 84.3879 52.535 84.318 52.5331L73.9256 52.3158L70.0797 52.2364L69.9569 52.2345L67.1183 52.174L42.3837 51.66L35.8259 51.522L32.5923 51.4559L31.8175 51.4388L28.1303 51.3633L27.3574 51.3463L23.5852 51.2688L22.8123 51.2518L18.6678 51.1648L18.0177 51.1516L14.3211 51.0741L13.7371 51.0628H13.6521C12.6707 51.0668 11.7224 51.4176 10.9747 52.0532C10.227 52.6889 9.7281 53.5684 9.56621 54.5363L0.0545004 112.971C-0.0420921 113.563 -0.00884242 114.169 0.151946 114.747C0.312735 115.324 0.597212 115.86 0.985682 116.317C1.37415 116.774 1.85733 117.141 2.40172 117.393C2.94612 117.645 3.53873 117.775 4.13849 117.775H58.7632C59.5672 117.777 60.3496 118.035 60.997 118.512L62.0327 119.279C62.7464 119.805 63.6089 120.089 64.4951 120.092H96.6871C97.2311 120.093 97.7699 119.987 98.2724 119.779C98.7749 119.57 99.2311 119.264 99.6145 118.879C100.27 118.223 101.145 117.833 102.071 117.785L156.371 114.923C156.96 114.892 157.535 114.736 158.059 114.465C158.582 114.194 159.042 113.814 159.407 113.35C159.771 112.887 160.033 112.351 160.173 111.779C160.314 111.206 160.331 110.61 160.223 110.03Z" fill="#CCCCCC"/>
<path d="M151.616 108.5L145.754 50.4184C145.752 50.3938 145.748 50.3674 145.744 50.3428C145.635 49.4148 145.177 48.563 144.463 47.9597L131.852 37.4539C131.304 36.9936 130.622 36.7213 129.907 36.6772C124.137 36.3067 94.8049 34.9347 83.9779 44.333C83.6493 44.6189 83.2622 44.8293 82.8436 44.9495C82.425 45.0696 81.9852 45.0966 81.555 45.0285C81.1239 44.9585 80.713 44.7964 80.3503 44.5531C79.9876 44.3097 79.6817 43.991 79.4535 43.6186C78.5329 42.1837 77.3267 40.9537 75.91 40.0052C75.2739 39.5636 74.6112 39.1615 73.9257 38.8014C73.319 38.482 72.6594 38.172 71.9413 37.8735C71.3233 37.6164 70.6637 37.3688 69.9569 37.1326C66.2925 35.908 61.3939 34.9933 54.8475 34.6871C52.1317 34.5586 49.1797 34.5416 46.0747 34.6342C43.2399 34.7174 40.2274 34.8893 37.1224 35.1464L37.077 35.1483L16.0674 47.9748C15.5964 48.2684 15.1983 48.6654 14.9033 49.1355C14.6083 49.6057 14.4241 50.1368 14.3646 50.6886L14.3212 51.0742L7.64994 110.682C7.59232 111.189 7.63888 111.702 7.78675 112.19C7.93462 112.677 8.18069 113.13 8.50982 113.519C8.83022 113.899 9.22918 114.204 9.67915 114.414C10.1291 114.624 10.6193 114.734 11.116 114.736H62.8832C63.5714 114.74 64.2382 114.976 64.7749 115.407L67.0352 117.218C67.6241 117.691 68.3532 117.955 69.1084 117.97L91.8699 118.342H91.9247C92.4995 118.341 93.0646 118.194 93.567 117.915L97.9572 115.477C98.3577 115.254 98.8035 115.125 99.2612 115.099L148.322 112.508C148.8 112.483 149.268 112.357 149.694 112.138C150.12 111.92 150.496 111.615 150.796 111.242C151.108 110.862 151.341 110.424 151.482 109.953C151.623 109.482 151.669 108.988 151.616 108.5Z" fill="#E6E6E6"/>
<path d="M134.491 98.0255L133.804 88.9853L130.907 50.8676L130.477 45.2287C130.368 43.7476 129.711 42.3602 128.635 41.3368C127.559 40.3135 126.14 39.7276 124.655 39.6934C114.04 39.4209 94.8174 39.9005 85.3847 46.2208C84.3356 46.934 83.063 47.2415 81.804 47.086C80.545 46.9306 79.3854 46.3228 78.5412 45.3759C77.236 43.943 75.6689 42.7728 73.9243 41.9282C72.6476 41.288 71.3204 40.7538 69.9561 40.3311C65.9634 39.0556 60.925 38.2807 54.8409 38.0064L40.4017 37.9219H40.3772C39.3769 37.9228 38.4145 38.3045 37.6856 38.9894C36.9566 39.6744 36.5157 40.6111 36.4525 41.6094L35.8257 51.5217L33.0867 94.9921C33.0354 95.802 33.1493 96.6137 33.4213 97.3782C33.6934 98.1427 34.1179 98.8439 34.6692 99.4393C35.2205 100.035 35.8871 100.512 36.6284 100.842C37.3697 101.172 38.1704 101.348 38.9817 101.359C63.2189 101.718 73.8071 106.834 78.424 111.058C79.4057 111.959 80.6598 112.507 81.9877 112.614C83.3156 112.722 84.6414 112.383 85.7554 111.653C94.136 106.164 108.068 104.637 119.158 104.4C122.554 104.329 125.683 104.376 128.305 104.468C129.147 104.499 129.987 104.351 130.768 104.034C131.55 103.718 132.256 103.24 132.84 102.631C133.424 102.023 133.873 101.299 134.157 100.505C134.442 99.7112 134.556 98.8663 134.491 98.0255Z" fill="white"/>
<path d="M14.168 110.634C14.1589 110.634 14.1495 110.633 14.1405 110.632C14.0899 110.629 14.0406 110.615 13.9952 110.593C13.9499 110.57 13.9094 110.539 13.8762 110.501C13.843 110.462 13.8176 110.418 13.8016 110.37C13.7855 110.322 13.7791 110.271 13.7827 110.22L17.9529 51.3371C17.9559 51.2863 17.969 51.2367 17.9914 51.191C18.0138 51.1454 18.0452 51.1047 18.0836 51.0714C18.122 51.0381 18.1666 51.0128 18.215 50.997C18.2633 50.9811 18.3143 50.9751 18.3649 50.9793C18.4155 50.9829 18.4648 50.9963 18.5102 51.019C18.5555 51.0416 18.596 51.073 18.6292 51.1112C18.6624 51.1495 18.6878 51.1939 18.7038 51.242C18.7199 51.2901 18.7263 51.3408 18.7227 51.3914L14.5525 110.275C14.5457 110.372 14.5023 110.463 14.4309 110.53C14.3595 110.596 14.2656 110.634 14.168 110.634Z" fill="white"/>
<path d="M19.1865 108.317C19.1775 108.317 19.1681 108.317 19.159 108.316C19.1085 108.313 19.0591 108.299 19.0138 108.276C18.9684 108.254 18.928 108.222 18.8948 108.184C18.8616 108.146 18.8362 108.101 18.8201 108.053C18.8041 108.005 18.7977 107.955 18.8013 107.904L22.9714 49.0207C22.9744 48.9699 22.9875 48.9203 23.01 48.8746C23.0324 48.829 23.0637 48.7883 23.1021 48.755C23.1405 48.7217 23.1852 48.6964 23.2335 48.6805C23.2818 48.6647 23.3328 48.6587 23.3835 48.6629C23.434 48.6665 23.4834 48.6799 23.5287 48.7026C23.5741 48.7252 23.6145 48.7566 23.6477 48.7948C23.681 48.8331 23.7063 48.8775 23.7224 48.9256C23.7384 48.9737 23.7448 49.0244 23.7412 49.075L19.5711 107.958C19.5643 108.056 19.5208 108.147 19.4495 108.213C19.3781 108.28 19.2841 108.317 19.1865 108.317Z" fill="white"/>
<path d="M23.8186 107.159C23.8096 107.159 23.8001 107.159 23.7911 107.158C23.7405 107.155 23.6912 107.141 23.6458 107.119C23.6005 107.096 23.5601 107.065 23.5269 107.026C23.4936 106.988 23.4683 106.944 23.4522 106.896C23.4362 106.848 23.4298 106.797 23.4333 106.746L27.6035 47.863C27.6065 47.8122 27.6196 47.7626 27.642 47.7169C27.6645 47.6713 27.6958 47.6306 27.7342 47.5973C27.7726 47.564 27.8173 47.5386 27.8656 47.5228C27.9139 47.507 27.9649 47.501 28.0156 47.5052C28.0661 47.5088 28.1155 47.5222 28.1608 47.5449C28.2061 47.5675 28.2466 47.5988 28.2798 47.6371C28.313 47.6754 28.3384 47.7198 28.3544 47.7679C28.3705 47.8159 28.3769 47.8667 28.3733 47.9172L24.2031 106.801C24.1964 106.898 24.1529 106.989 24.0815 107.056C24.0102 107.122 23.9162 107.159 23.8186 107.159Z" fill="white"/>
<path d="M28.4512 104.843C28.4421 104.843 28.4327 104.843 28.4237 104.842C28.3731 104.838 28.3238 104.825 28.2784 104.802C28.2331 104.78 28.1926 104.748 28.1594 104.71C28.1262 104.672 28.1008 104.627 28.0848 104.579C28.0688 104.531 28.0623 104.48 28.0659 104.43L32.2361 45.5466C32.2391 45.4958 32.2522 45.4461 32.2746 45.4005C32.297 45.3549 32.3284 45.3142 32.3668 45.2809C32.4052 45.2476 32.4498 45.2222 32.4982 45.2064C32.5465 45.1906 32.5975 45.1846 32.6481 45.1888C32.6987 45.1923 32.748 45.2058 32.7934 45.2285C32.8387 45.2511 32.8792 45.2824 32.9124 45.3207C32.9456 45.359 32.971 45.4034 32.987 45.4515C33.0031 45.4995 33.0095 45.5503 33.0059 45.6008L28.8357 104.484C28.8289 104.582 28.7855 104.673 28.7141 104.739C28.6428 104.806 28.5488 104.843 28.4512 104.843Z" fill="white"/>
<path d="M146.962 111.02C146.971 111.02 146.981 111.019 146.99 111.019C147.04 111.015 147.09 111.002 147.135 110.979C147.18 110.956 147.221 110.925 147.254 110.887C147.287 110.849 147.313 110.804 147.329 110.756C147.345 110.708 147.351 110.657 147.347 110.607L143.177 51.7233C143.174 51.6726 143.161 51.6229 143.139 51.5773C143.116 51.5317 143.085 51.491 143.047 51.4576C143.008 51.4243 142.964 51.399 142.915 51.3832C142.867 51.3674 142.816 51.3614 142.765 51.3655C142.715 51.3691 142.665 51.3826 142.62 51.4052C142.575 51.4278 142.534 51.4592 142.501 51.4975C142.468 51.5357 142.442 51.5802 142.426 51.6282C142.41 51.6763 142.404 51.727 142.407 51.7776L146.578 110.661C146.584 110.758 146.628 110.849 146.699 110.916C146.771 110.983 146.865 111.02 146.962 111.02Z" fill="white"/>
<path d="M141.944 107.545C141.953 107.545 141.962 107.545 141.971 107.544C142.022 107.541 142.071 107.527 142.116 107.504C142.162 107.482 142.202 107.45 142.235 107.412C142.269 107.374 142.294 107.329 142.31 107.281C142.326 107.233 142.332 107.183 142.329 107.132L138.159 48.2487C138.156 48.1979 138.143 48.1483 138.12 48.1027C138.098 48.0571 138.066 48.0164 138.028 47.983C137.99 47.9497 137.945 47.9244 137.897 47.9086C137.848 47.8928 137.797 47.8868 137.747 47.8909C137.696 47.8945 137.647 47.908 137.601 47.9306C137.556 47.9532 137.516 47.9846 137.482 48.0229C137.449 48.0611 137.424 48.1055 137.408 48.1536C137.392 48.2017 137.385 48.2524 137.389 48.303L141.559 107.186C141.566 107.284 141.609 107.375 141.681 107.441C141.752 107.508 141.846 107.545 141.944 107.545Z" fill="white"/>
<path d="M137.311 103.685C137.32 103.685 137.33 103.685 137.339 103.684C137.389 103.681 137.439 103.667 137.484 103.645C137.529 103.622 137.57 103.591 137.603 103.552C137.636 103.514 137.662 103.47 137.678 103.422C137.694 103.374 137.7 103.323 137.697 103.272L133.526 44.3888C133.523 44.3381 133.51 44.2884 133.488 44.2428C133.465 44.1972 133.434 44.1565 133.396 44.1232C133.357 44.0898 133.313 44.0645 133.264 44.0487C133.216 44.0329 133.165 44.0269 133.114 44.0311C133.064 44.0346 133.014 44.0481 132.969 44.0707C132.924 44.0934 132.883 44.1247 132.85 44.163C132.817 44.2013 132.792 44.2457 132.775 44.2938C132.759 44.3418 132.753 44.3926 132.757 44.4431L136.927 103.326C136.934 103.424 136.977 103.515 137.048 103.582C137.12 103.648 137.214 103.685 137.311 103.685Z" fill="white"/>
<path d="M42.5754 51.223C51.2769 48.4468 60.9845 49.1818 69.2279 53.0929C71.58 54.203 73.8014 55.5712 75.8511 57.1722C76.431 57.6272 77.2561 56.8132 76.67 56.3533C69.0986 50.4806 59.5852 47.6909 50.0413 48.5445C47.401 48.7807 44.7943 49.3044 42.2675 50.1063C41.5602 50.3319 41.8625 51.4504 42.5754 51.223Z" fill="#3F3D56"/>
<path d="M90.4568 57.6215C98.5469 53.3693 108.235 52.442 117.031 54.8558C119.538 55.5423 121.962 56.5058 124.256 57.7287C124.914 58.0794 125.499 57.0801 124.841 56.7287C116.457 52.2554 106.394 51.2257 97.2394 53.7192C94.6855 54.4161 92.2152 55.3893 89.8723 56.6216C89.2123 56.9684 89.797 57.9683 90.4568 57.6215Z" fill="#3F3D56"/>
<path d="M90.4568 65.3422C98.5469 61.09 108.235 60.1627 117.031 62.5765C119.538 63.263 121.962 64.2266 124.256 65.4494C124.914 65.8001 125.499 64.8008 124.841 64.4494C116.457 59.9761 106.394 58.9464 97.2394 61.44C94.6855 62.1368 92.2152 63.11 89.8723 64.3423C89.2123 64.6891 89.797 65.689 90.4568 65.3422Z" fill="#3F3D56"/>
<path d="M125.124 72.649C125.13 72.5496 125.106 72.4506 125.055 72.365C125.004 72.2794 124.929 72.2111 124.839 72.1689C118.123 68.6523 110.508 67.226 102.975 68.0736C102.927 68.0774 102.884 68.0849 102.833 68.0887H102.831C102.785 68.0929 102.739 68.0998 102.693 68.1095C98.2124 68.6251 93.8657 69.9649 89.8723 72.0612C89.7852 72.1131 89.7131 72.1867 89.6631 72.2748C89.6131 72.363 89.5868 72.4626 89.5869 72.5639V86.9666C89.5883 87.0552 89.6099 87.1424 89.65 87.2214C89.6901 87.3005 89.7476 87.3694 89.8183 87.4229C89.8889 87.4764 89.9708 87.5132 90.0578 87.5304C90.1447 87.5476 90.2345 87.5448 90.3202 87.5222C90.4978 87.4712 90.6755 87.4221 90.8569 87.3748C94.8941 86.282 99.0386 85.6337 103.217 85.4415C103.305 85.4377 103.394 85.4339 103.487 85.4301C106.89 85.284 110.299 85.4066 113.683 85.7968C113.754 85.8008 113.824 85.8083 113.894 85.8194C114.068 85.8383 114.246 85.8591 114.42 85.8818C114.49 85.8894 114.556 85.8969 114.62 85.9083C115.297 85.9933 115.968 86.0897 116.64 86.1936C117.612 86.3486 118.583 86.5212 119.555 86.7115C119.615 86.7228 119.677 86.7379 119.74 86.7493C121.299 87.0592 122.85 87.4183 124.394 87.8151C124.48 87.8373 124.57 87.8397 124.657 87.8221C124.744 87.8045 124.826 87.7674 124.897 87.7135C124.968 87.6596 125.025 87.5905 125.065 87.5112C125.105 87.4319 125.126 87.3445 125.128 87.2557V72.6716C125.128 72.6639 125.127 72.6561 125.124 72.649Z" fill="#3F3D56"/>
<path d="M103.883 68.8587C103.459 68.6509 102.972 68.6082 102.518 68.7388C102.318 68.814 102.134 68.9283 101.978 69.075C101.822 69.2218 101.697 69.398 101.609 69.5936C101.452 69.9686 101.351 70.3648 101.31 70.7694C101.286 70.9285 101.285 71.1293 101.445 71.2036C101.503 71.2247 101.565 71.2295 101.626 71.2175C101.687 71.2055 101.743 71.1772 101.788 71.1356C101.871 71.0541 101.939 70.9592 101.99 70.8547C102.267 70.4226 102.65 70.0675 103.101 69.8222C103.552 69.5768 104.058 69.4491 104.572 69.4509L104.999 69.6214C104.663 69.3184 104.287 69.0619 103.883 68.8587Z" fill="#FF6582"/>
<path d="M108.51 72.1783C108.178 71.6899 107.785 71.1684 107.169 71.0089C106.456 70.8242 105.724 71.1911 105.103 71.5532C103.255 72.6292 101.466 73.8025 99.7427 75.0683L99.7446 75.0873L103.744 74.8418C104.707 74.7827 105.704 74.7154 106.555 74.3098C106.861 74.1181 107.202 73.9909 107.559 73.9359C107.78 73.9479 107.997 74.0036 108.196 74.0998C108.396 74.1959 108.575 74.3307 108.722 74.4962C110.565 76.2434 111.099 78.9152 113.167 80.4502C111.851 77.5665 110.293 74.7993 108.51 72.1783Z" fill="white"/>
<path d="M103.488 85.4299C103.395 85.4337 103.306 85.4376 103.217 85.4415C102.573 85.2099 101.913 85.0053 101.245 84.8277C100.812 84.7119 100.372 84.6076 99.9323 84.5189C99.4343 84.4108 98.9326 84.3258 98.4307 84.2525C97.4752 84.1135 96.5123 84.0323 95.5471 84.0093C95.5398 84.0101 95.5323 84.0094 95.5253 84.0071C95.5183 84.0048 95.5119 84.0011 95.5064 83.9962C95.5009 83.9913 95.4966 83.9853 95.4936 83.9786C95.4906 83.9718 95.489 83.9646 95.489 83.9572C95.489 83.9498 95.4906 83.9426 95.4936 83.9358C95.4966 83.9291 95.5009 83.9231 95.5064 83.9182C95.5119 83.9133 95.5183 83.9096 95.5253 83.9073C95.5323 83.9051 95.5398 83.9043 95.5471 83.9051C95.6705 83.9051 95.7941 83.9089 95.9138 83.9167C96.8811 83.9524 97.8453 84.0465 98.8013 84.1985C99.2993 84.2795 99.7973 84.376 100.291 84.4841C100.739 84.5845 101.187 84.6965 101.627 84.82C102.256 84.9975 102.876 85.2008 103.488 85.4299Z" fill="white"/>
<path d="M114.621 85.9081C114.555 85.8965 114.489 85.8887 114.42 85.8811C114.154 85.661 113.883 85.4526 113.602 85.248C113.25 84.9932 112.887 84.7538 112.517 84.53C111.696 84.0317 110.839 83.5956 109.954 83.2252C108.553 82.642 107.104 82.1847 105.622 81.8586C103.932 81.4884 102.222 81.2203 100.5 81.0557C98.778 80.8781 97.0486 80.77 95.3191 80.6619C95.2458 80.658 95.242 80.55 95.3191 80.5538C95.5353 80.5693 95.7515 80.5808 95.9715 80.5963C97.7202 80.7044 99.469 80.8279 101.206 81.0248C102.929 81.2094 104.637 81.506 106.321 81.9127C107.759 82.2669 109.162 82.7488 110.513 83.3525C111.291 83.7019 112.044 84.103 112.768 84.5531C113.227 84.8426 113.671 85.1515 114.096 85.4796C114.273 85.6185 114.451 85.7576 114.621 85.9081Z" fill="white"/>
<path d="M113.895 85.8196C113.825 85.8083 113.754 85.8006 113.683 85.7964C113.602 85.7309 113.517 85.6691 113.432 85.6073C112.838 85.1819 112.217 84.7939 111.575 84.4453C110.992 84.1283 110.392 83.841 109.78 83.5845C108.38 82.9996 106.931 82.5423 105.449 82.218C103.759 81.8477 102.048 81.5796 100.326 81.415C98.6044 81.2374 96.875 81.1294 95.1456 81.0213C95.0722 81.0136 95.0722 80.9093 95.1456 80.9132C95.3656 80.9286 95.5817 80.9402 95.7979 80.9557C97.5467 81.0637 99.2954 81.1873 101.033 81.3841C102.755 81.5687 104.464 81.8653 106.147 82.272C107.585 82.6256 108.988 83.1075 110.34 83.7119C110.849 83.9435 111.347 84.1945 111.834 84.4685C112.555 84.8645 113.244 85.3163 113.895 85.8196Z" fill="white"/>
<path d="M119.74 86.7498C119.678 86.7383 119.616 86.7228 119.554 86.7112C119.485 86.6379 119.419 86.5607 119.354 86.4834C119.022 86.1013 118.693 85.7153 118.369 85.3254C117.091 83.8044 115.879 82.2371 114.737 80.639C113.756 79.2724 112.826 77.8788 111.946 76.4582C111.525 75.7865 111.119 75.1071 110.722 74.42C110.413 73.8873 110.112 73.3533 109.819 72.818C109.734 72.6636 109.653 72.5091 109.572 72.3547C109.382 71.9918 109.193 71.6251 108.992 71.2661C108.774 70.8263 108.454 70.4451 108.058 70.1543C107.86 70.0219 107.632 69.9434 107.394 69.9266C107.06 69.9278 106.73 70.0128 106.437 70.1736C104.277 71.1794 102.24 72.4293 100.365 73.8988C98.5332 75.3233 96.8771 76.9599 95.4311 78.7744C95.3849 78.8285 95.2844 78.7783 95.3269 78.7204C95.5006 78.5042 95.6782 78.288 95.8557 78.0757C97.2455 76.4318 98.8105 74.9445 100.523 73.6402C100.527 73.6363 100.534 73.6325 100.538 73.6287C100.689 73.509 100.839 73.3932 100.994 73.2812C101.95 72.5772 102.945 71.9276 103.974 71.3356C104.499 71.0306 105.036 70.7411 105.584 70.467C105.719 70.3976 105.858 70.3281 105.997 70.2624C106.136 70.193 106.275 70.1274 106.414 70.0617C106.689 69.9214 106.99 69.8387 107.298 69.8185C108.371 69.8031 108.923 70.884 109.305 71.6135C109.425 71.8413 109.548 72.0691 109.668 72.2968C110.131 73.1577 110.614 74.0147 111.116 74.8601C111.421 75.3851 111.737 75.9062 112.058 76.4235C112.517 77.1608 112.988 77.8904 113.478 78.6162L113.478 78.6177L113.479 78.619L113.48 78.6198L113.482 78.6201C114.049 79.477 114.64 80.3186 115.25 81.1563C116.296 82.5884 117.393 83.9884 118.539 85.3563C118.933 85.8272 119.333 86.2917 119.74 86.7498Z" fill="white"/>
<path d="M125.129 85.0472V85.2247C124.746 84.777 124.357 84.333 123.971 83.8891C123.808 83.7038 123.646 83.5185 123.484 83.3332C122.797 82.5534 122.106 81.7762 121.411 81.0016C120.712 80.2295 120.014 79.4575 119.307 78.6893C119.137 78.504 118.968 78.3187 118.794 78.1334C118.655 77.9777 118.504 77.8331 118.342 77.701C118.179 77.5653 117.992 77.4618 117.79 77.396C117.558 77.3317 117.313 77.3291 117.08 77.3883C116.813 77.4501 116.559 77.5466 116.3 77.6277C116.034 77.7165 115.771 77.8014 115.505 77.8863C114.972 78.06 114.443 78.2338 113.91 78.4075C113.904 78.4101 113.897 78.4115 113.89 78.4113C113.883 78.4112 113.876 78.4097 113.869 78.4068C113.863 78.4039 113.857 78.3997 113.852 78.3945C113.847 78.3893 113.843 78.3832 113.841 78.3766C113.838 78.3692 113.837 78.3614 113.837 78.3535C113.837 78.3455 113.839 78.3378 113.843 78.3308C113.847 78.3238 113.852 78.3177 113.858 78.3129C113.865 78.3082 113.872 78.3049 113.88 78.3032C114.011 78.2608 114.146 78.2183 114.281 78.1758C114.818 77.9983 115.35 77.8246 115.887 77.6509C116.153 77.562 116.42 77.4771 116.686 77.3922C116.933 77.2984 117.194 77.2462 117.458 77.2378C117.889 77.2688 118.294 77.4586 118.593 77.7705C118.759 77.9249 118.91 78.087 119.06 78.2531C119.238 78.4461 119.415 78.6391 119.593 78.8321C120.307 79.6119 121.016 80.3942 121.72 81.1792C122.426 81.9667 123.126 82.7555 123.82 83.5455C123.87 83.6034 123.92 83.6614 123.97 83.7193C124.36 84.1593 124.743 84.6033 125.129 85.0472Z" fill="white"/>
<path d="M105.967 69.7009L105.86 69.7476C105.616 69.3346 105.273 68.9884 104.862 68.7398C104.452 68.4912 103.986 68.3479 103.507 68.3226C101.926 68.2103 100.538 69.2636 100.412 70.6703C100.36 71.2495 100.528 71.8269 100.882 72.2886L100.783 72.3472C100.414 71.8664 100.24 71.2651 100.293 70.6619C100.424 69.197 101.87 68.1001 103.516 68.217C104.015 68.2433 104.5 68.3926 104.928 68.6514C105.355 68.9103 105.712 69.2708 105.967 69.7009Z" fill="#FF6582"/>
<path d="M98.1577 72.5471C97.7429 72.3667 97.2912 72.2876 96.8398 72.3163C96.3884 72.345 95.9503 72.4808 95.5618 72.7123C96.9803 72.93 98.3864 73.2221 99.7742 73.5874C99.1996 73.2877 98.7501 72.8181 98.1577 72.5471Z" fill="white"/>
<path d="M95.5537 72.7109L95.3975 72.8239C95.4503 72.7844 95.5052 72.7473 95.5616 72.7122L95.5537 72.7109Z" fill="white"/>
<path d="M118.282 78.4124C118.136 78.2245 117.942 78.0801 117.72 77.9946L117.5 78.0023C119.223 80.6834 121.481 82.9804 124.131 84.7498C122.182 82.6373 120.232 80.5249 118.282 78.4124Z" fill="white"/>
<path d="M100.258 73.3662C100.195 73.3044 100.134 73.2426 100.071 73.1808C99.5903 72.6579 99.0117 72.2345 98.3679 71.9347C98.0401 71.7966 97.6885 71.7241 97.3328 71.7211C96.9653 71.7297 96.602 71.8002 96.258 71.9297C96.0962 71.9873 95.938 72.0526 95.7821 72.1221C95.604 72.2019 95.4291 72.287 95.255 72.3728C94.9282 72.5337 94.6056 72.7018 94.2873 72.8769C93.6539 73.2253 93.0404 73.6003 92.4467 74.002C92.1389 74.2102 91.8375 74.4253 91.5424 74.6473C91.268 74.8534 90.9991 75.0651 90.7358 75.2823C90.6794 75.3286 90.5954 75.2537 90.6517 75.2075C90.7211 75.15 90.7913 75.0928 90.8615 75.0363C91.0598 74.8767 91.2612 74.7202 91.4659 74.5668C91.8391 74.2865 92.2219 74.017 92.6145 73.7584C93.2248 73.3559 93.8562 72.9808 94.5086 72.6329C94.8346 72.4593 95.1651 72.2929 95.5001 72.1338C95.6013 72.0858 95.7036 72.0388 95.8071 71.9943C96.0435 71.8883 96.2874 71.7999 96.5368 71.7299C96.8946 71.6274 97.2688 71.5947 97.639 71.6335C97.9934 71.6788 98.3374 71.7847 98.6559 71.9467C99.287 72.3004 99.8564 72.7544 100.342 73.291C100.393 73.3418 100.309 73.417 100.258 73.3662Z" fill="white"/>
<path d="M42.5754 58.9437C51.2769 56.1675 60.9845 56.9025 69.2279 60.8136C71.58 61.9237 73.8014 63.2919 75.8511 64.8929C76.431 65.3479 77.2561 64.5339 76.67 64.074C69.0986 58.2013 59.5852 55.4116 50.0413 56.2652C47.401 56.5014 44.7943 57.0251 42.2675 57.827C41.5602 58.0526 41.8625 59.1711 42.5754 58.9437Z" fill="#3F3D56"/>
<path d="M42.5754 66.6644C51.2769 63.8882 60.9845 64.6232 69.2279 68.5343C71.58 69.6444 73.8014 71.0126 75.8511 72.6136C76.431 73.0686 77.2561 72.2546 76.67 71.7947C69.0986 65.922 59.5852 63.1323 50.0413 63.9859C47.401 64.2221 44.7943 64.7458 42.2675 65.5477C41.5602 65.7733 41.8625 66.8918 42.5754 66.6644Z" fill="#3F3D56"/>
<path d="M42.5754 74.3851C51.2769 71.6089 60.9845 72.3439 69.2279 76.255C71.58 77.3651 73.8014 78.7333 75.8511 80.3343C76.431 80.7893 77.2561 79.9753 76.67 79.5154C69.0986 73.6427 59.5852 70.853 50.0413 71.7066C47.401 71.9428 44.7943 72.4665 42.2675 73.2684C41.5602 73.494 41.8625 74.6125 42.5754 74.3851Z" fill="#3F3D56"/>
<path d="M42.5754 82.1058C51.2769 79.3296 60.9845 80.0646 69.2279 83.9757C71.58 85.0858 73.8014 86.454 75.8511 88.055C76.431 88.51 77.2561 87.696 76.67 87.2361C69.0986 81.3634 59.5852 78.5737 50.0413 79.4273C47.401 79.6635 44.7943 80.1872 42.2675 80.9891C41.5602 81.2147 41.8625 82.3332 42.5754 82.1058Z" fill="#3F3D56"/>
<path d="M42.5754 89.8265C51.2769 87.0503 60.9845 87.7853 69.2279 91.6964C71.58 92.8065 73.8014 94.1747 75.8511 95.7757C76.431 96.2308 77.2561 95.4167 76.67 94.9568C69.0986 89.0841 59.5852 86.2944 50.0413 87.148C47.401 87.3843 44.7943 87.9079 42.2675 88.7098C41.5602 88.9354 41.8625 90.0539 42.5754 89.8265Z" fill="#3F3D56"/>
<path d="M73.9255 38.8011V60.4401C73.9255 60.8086 73.2829 61.1166 72.4155 61.1998C72.2643 61.2149 72.1056 61.2225 71.9411 61.2225C71.4638 61.2315 70.9886 61.1541 70.5389 60.9938C70.4555 60.9614 70.3746 60.9229 70.297 60.8785C70.0815 60.7519 69.9568 60.6026 69.9568 60.44V37.1323C70.6636 37.3686 71.3232 37.6161 71.9411 37.8732C72.6593 38.1718 73.3189 38.4817 73.9255 38.8011Z" fill="#8AFF63"/>
<path d="M82.2432 46.2207H81.6763V116.218H82.2432V46.2207Z" fill="#E6E6E6"/>
<path d="M132.843 102.628C132.258 103.237 131.552 103.715 130.77 104.032C129.988 104.349 129.148 104.498 128.305 104.468C125.683 104.375 122.554 104.329 119.158 104.4L119.139 104.384L133.856 85.3057L134.491 98.0252C134.555 98.8652 134.441 99.7092 134.157 100.502C133.873 101.295 133.425 102.02 132.843 102.628Z" fill="#F2F2F2"/>
<path d="M96.2048 169.306L95.4199 175.678L94.8203 180.521L94.5805 182.475H91.1682V180.739L91.1655 174.994V169.306H96.2048Z" fill="#FFB6B6"/>
<path d="M72.4121 168.638L71.4446 171.625L70.6678 174.021L70.5343 174.432L70.0028 176.07L68.88 179.534L68.3213 181.259L65.217 180.66L64.969 180.613L65.1707 179.572L65.2933 178.937L66.6506 171.9L66.8713 170.767L66.9068 170.584L67.0076 170.058L67.4655 167.684L70.7741 168.322L71.1557 168.395L72.4121 168.638Z" fill="#FFB6B6"/>
<path d="M101.331 131.359C99.3799 142.084 98.892 146.714 98.892 146.714C98.892 146.714 100.356 148.421 99.3799 149.396C98.4042 150.372 99.3799 152.321 99.3799 152.321L97.1859 175.964L95.4198 175.677L91.1655 174.993L89.631 174.745L90.6067 152.566C90.6067 152.566 89.631 150.614 90.1189 150.127C90.6067 149.639 89.631 146.714 89.631 146.714L88.4128 123.559L80.8552 148.908C80.8552 148.908 81.5883 149.884 80.8552 150.614C80.1248 151.345 78.664 155.002 78.664 155.002L74.1697 170.728L73.7882 172.064L71.4443 171.625L68.8933 171.145L68.4246 171.058L67.5906 170.9L67.0537 170.799L66.8711 170.766L65.988 170.6L66.2551 169.414L66.3941 168.79L70.1961 151.904L70.2833 151.514L70.376 151.102C70.376 151.102 69.8881 149.884 70.6185 149.151C70.8322 148.928 70.9883 148.655 71.0733 148.358C71.1583 148.061 71.1696 147.747 71.1064 147.445C71.0825 147.419 71.0606 147.392 71.041 147.363C70.9547 147.245 70.8952 147.109 70.8665 146.965C70.8011 146.66 70.8584 146.232 71.3517 145.739C71.4906 145.591 71.6072 145.424 71.6978 145.243C72.4391 143.839 72.8125 140.866 72.8125 140.866C72.8125 140.866 73.472 117.315 75.6306 113.718C75.7159 113.561 75.8362 113.426 75.9821 113.323C78.4187 111.862 101.816 113.323 101.816 113.323C101.816 113.323 101.849 113.492 101.901 113.813C102.182 115.62 102.986 122.262 101.331 131.359Z" fill="#2F2E41"/>
<path d="M100.564 88.0938L101.248 83.978L113.829 86.0954L131.679 87.3726C132.067 86.944 132.582 86.6521 133.149 86.5401C133.715 86.4282 134.303 86.5022 134.824 86.7513C135.345 87.0003 135.772 87.411 136.041 87.9222C136.31 88.4335 136.407 89.0178 136.317 89.5884C136.227 90.159 135.955 90.6852 135.541 91.0887C135.128 91.4923 134.595 91.7515 134.023 91.8279C133.45 91.9043 132.868 91.7937 132.364 91.5127C131.859 91.2316 131.459 90.7951 131.222 90.2681L120.274 91.0048L100.564 88.0938Z" fill="#FFB6B6"/>
<path d="M91.1599 85.2454L92.0482 81.5713C92.0482 81.5713 96.8723 80.6833 100.686 81.5329L115.034 84.2865L113.873 92.9597L91.1599 85.2454Z" fill="#8AFF63"/>
<path d="M57.8571 115.499L65.8843 98.0604L71.7423 85.7227L76.8229 88.7128L61.0071 117.418C61.146 117.929 61.13 118.471 60.9612 118.973C60.7923 119.476 60.4783 119.917 60.0586 120.242C59.639 120.566 59.1326 120.758 58.6036 120.795C58.0746 120.831 57.5466 120.71 57.0866 120.446C56.6265 120.182 56.2549 119.788 56.0189 119.313C55.7828 118.839 55.6928 118.304 55.7603 117.779C55.8279 117.253 56.0498 116.758 56.3982 116.359C56.7465 115.959 57.2056 115.671 57.7173 115.532C57.7636 115.52 57.8101 115.509 57.8571 115.499Z" fill="#FFB6B6"/>
<path d="M81.0077 80.4368L77.1114 78.6492C77.1114 78.6492 76.4206 78.4094 74.9307 80.4723C73.4408 82.5352 60.6248 102.001 60.6248 102.001L68.7631 105.679L81.0077 80.4368Z" fill="#8AFF63"/>
<path d="M100.615 186.269L95.5425 182.764V180.478L94.8203 180.521L91.1682 180.739L90.2061 180.796L89.5411 188.76L89.533 188.872H91.9286L91.9504 188.76L92.3565 186.61L93.3949 188.76L93.4494 188.872H99.8051C99.9959 188.871 100.185 188.833 100.361 188.76C100.597 188.66 100.802 188.499 100.954 188.293C101.106 188.087 101.2 187.844 101.226 187.59C101.252 187.335 101.209 187.078 101.101 186.846C100.994 186.613 100.825 186.414 100.615 186.269Z" fill="#2F2E41"/>
<path d="M73.5621 186.478L71.3517 184.069L69.8092 182.385L69.5557 182.107L69.5175 182.066L69.3949 181.932L69.9045 179.703L68.8798 179.534L65.2931 178.937L65.0996 178.907L64.7181 178.842L64.6309 178.828L63.4071 182.685L62.2979 186.17L62.178 186.552L63.6524 186.887L64.5137 187.083L64.9388 186.108L64.9852 186.004L65.2632 185.364V185.361L65.4349 184.974L65.999 187.421L66.0971 187.443L66.1108 187.446L66.4569 187.525L67.1328 187.68L71.8587 188.76L72.1939 188.836C72.5631 188.918 72.9499 188.851 73.27 188.649C73.59 188.448 73.8175 188.128 73.9027 187.759C73.954 187.534 73.9498 187.3 73.8905 187.077C73.8311 186.854 73.7184 186.648 73.5621 186.478Z" fill="#2F2E41"/>
<path d="M95.4361 69.1926C94.885 70.2041 94.1197 71.0833 93.1938 71.7686C92.2679 72.454 91.2037 72.9291 90.0753 73.1608C89.9499 73.1881 89.8245 73.2099 89.6964 73.229C87.9258 73.5057 86.1137 73.1752 84.5548 72.2912C82.9959 71.4072 81.7821 70.0216 81.1107 68.36C80.4394 66.6984 80.3501 64.8586 80.8573 63.1397C81.3646 61.4209 82.4385 59.9243 83.9044 58.8935C85.3703 57.8626 87.1419 57.3581 88.931 57.4621C90.7201 57.5661 92.4213 58.2724 93.758 59.4662C95.0946 60.6599 95.9879 62.2708 96.2926 64.0368C96.5973 65.8028 96.2954 67.62 95.4361 69.1926Z" fill="#FFB6B6"/>
<path d="M92.2801 58.4189C89.6829 56.6326 87.3957 56.3605 85.5169 56.8672C85.2734 56.4905 84.9318 56.1872 84.5289 55.9899C83.0636 52.2977 78.6043 50.0804 74.7775 51.1583C70.9258 52.2431 68.2683 56.5096 68.993 60.445C69.4421 62.8843 70.9773 64.9966 71.5948 67.3988C72.7901 72.0491 69.8742 77.376 65.3127 78.8751C69.6316 79.7423 74.3857 77.1042 75.9351 72.9805C76.6876 70.9776 76.733 68.7908 76.8287 66.6533C76.8539 65.1779 77.0346 63.7093 77.368 62.2718C77.5334 61.6269 77.7672 61.0015 78.0653 60.4062C78.7146 59.0977 79.793 58.0514 81.1206 57.442C81.0017 57.8097 80.972 58.2004 81.0338 58.5818C81.0957 58.9633 81.2474 59.3245 81.4764 59.6358C80.4636 60.9046 79.9122 62.2767 79.9122 63.0985C77.8081 66.944 80.817 70.2472 84.6627 72.3512C86.1965 73.1949 87.9676 73.5036 89.6965 73.2288L89.8573 72.542L90.0753 73.1607L90.803 75.2348C91.6424 75.6409 92.4746 76.086 93.2995 76.5702C92.9861 75.0985 92.7326 73.6295 92.5581 72.1932C92.3166 70.2383 93.1586 67.328 93.766 65.5581C94.1425 64.4674 94.3358 63.3217 94.3379 62.1678V62.1173L94.9293 64.0169L97.0824 63.0985C96.6818 60.8009 97.0824 58.1927 92.2801 58.4189Z" fill="#2F2E41"/>
<path d="M75.7377 111.13C76.0207 110.01 76.0207 108.837 75.7377 107.718C75.2502 106.011 76.2252 105.28 76.2252 105.28L76.4689 78.9568C77.4986 77.9271 80.2575 77.9103 81.801 77.9904V76.8312C81.801 76.4043 81.9706 75.9949 82.2724 75.6931C82.5743 75.3912 82.9837 75.2217 83.4105 75.2217H90.5481C90.975 75.2217 91.3844 75.3912 91.6862 75.6931C91.988 75.9949 92.1576 76.4043 92.1576 76.8312V78.2207L94.2511 78.2536C97.8966 78.5252 101.086 82.1254 101.086 82.1254L97.9176 94.3121C97.9176 94.3121 98.8925 104.305 100.111 105.524C101.33 106.743 100.842 107.474 100.842 107.474C100.842 107.474 100.111 110.155 101.574 111.13C103.036 112.105 102.061 113.811 102.061 113.811C102.061 113.811 75.7377 114.298 75.0065 113.567C74.2753 112.836 75.7377 111.13 75.7377 111.13Z" fill="#8AFF63"/>
<path d="M124.238 189.084C124.239 189.127 124.23 189.169 124.214 189.208C124.198 189.248 124.174 189.284 124.144 189.314C124.114 189.344 124.078 189.368 124.038 189.384C123.999 189.4 123.957 189.409 123.914 189.408H47.5233C47.4373 189.408 47.3548 189.374 47.294 189.313C47.2331 189.253 47.199 189.17 47.199 189.084C47.199 188.998 47.2331 188.916 47.294 188.855C47.3548 188.794 47.4373 188.76 47.5233 188.76H123.914C123.957 188.76 123.999 188.768 124.038 188.784C124.078 188.8 124.114 188.824 124.144 188.854C124.174 188.885 124.198 188.92 124.214 188.96C124.23 188.999 124.239 189.041 124.238 189.084Z" fill="#CCCCCC"/>
</g>
<defs>
<clipPath id="clip0_245_674">
<rect width="160.293" height="189.408" fill="white"/>
</clipPath>
</defs>
</svg>
