<svg width="228" height="183" viewBox="0 0 228 183" fill="none" xmlns="http://www.w3.org/2000/svg">
<g clip-path="url(#clip0_245_748)">
<path d="M82.6496 138.734C81.962 137.086 81.8864 135.247 82.4366 133.548C82.9868 131.849 84.1264 130.403 85.6496 129.471C86.1569 129.162 85.6932 128.363 85.1834 128.673C83.4363 129.716 82.1323 131.364 81.5184 133.304C80.9044 135.244 81.0231 137.342 81.852 139.2C82.0851 139.745 82.881 139.275 82.6496 138.734Z" fill="white"/>
<path d="M82.914 139.976C81.6682 137.769 81.9614 135.128 82.4095 132.741C82.8773 130.249 83.4905 127.719 82.9599 125.185C82.7193 123.955 82.1497 122.813 81.3117 121.88C80.9082 121.442 80.2563 122.097 80.6585 122.533C82.2254 124.235 82.4071 126.704 82.1529 128.896C81.8532 131.482 81.0037 134.002 81.1091 136.63C81.1367 137.963 81.482 139.27 82.1164 140.443C82.1804 140.544 82.2813 140.616 82.3977 140.645C82.5141 140.673 82.637 140.655 82.7405 140.595C82.844 140.534 82.9199 140.436 82.9523 140.321C82.9847 140.205 82.9709 140.082 82.914 139.976Z" fill="white"/>
<path d="M89.6004 147.025H73.8973C73.5299 147.024 73.1778 146.878 72.918 146.618C72.6582 146.359 72.5121 146.006 72.5117 145.639V141.027C72.5131 139.841 72.9845 138.705 73.8227 137.867C74.6608 137.029 75.7972 136.557 76.9824 136.556H79.2856C79.4081 136.556 79.5255 136.507 79.6121 136.42C79.6987 136.334 79.7474 136.216 79.7475 136.094V133.939C79.7477 133.735 79.8289 133.539 79.9732 133.395C80.1175 133.25 80.3132 133.169 80.5173 133.169H82.9805C83.1846 133.169 83.3802 133.25 83.5245 133.395C83.6688 133.539 83.75 133.735 83.7503 133.939V136.094C83.7504 136.216 83.7991 136.334 83.8857 136.42C83.9723 136.507 84.0897 136.556 84.2121 136.556H86.5153C87.7006 136.557 88.837 137.029 89.6751 137.867C90.5132 138.705 90.9847 139.841 90.986 141.027V145.639C90.9856 146.006 90.8395 146.359 90.5797 146.618C90.32 146.878 89.9678 147.024 89.6004 147.025Z" fill="#CCCCCC"/>
<path d="M81.9901 119.325C82.3207 121.08 81.9114 122.63 81.0759 122.788C80.2403 122.945 79.2949 121.65 78.9643 119.896C78.6337 118.141 79.6505 115.223 79.6505 115.223C79.6505 115.223 81.6595 117.571 81.9901 119.325Z" fill="#8AFF63"/>
<path d="M88.3309 127.489C87.2839 128.935 85.8768 129.704 85.1881 129.205C84.4994 128.707 84.7898 127.13 85.8368 125.683C86.8838 124.237 89.7018 122.97 89.7018 122.97C89.7018 122.97 89.3779 126.043 88.3309 127.489Z" fill="#8AFF63"/>
<path d="M53.7068 27.8885C53.0191 26.2405 52.9436 24.4009 53.4937 22.702C54.0439 21.0032 55.1836 19.5571 56.7068 18.6251C57.214 18.3167 56.7503 17.5175 56.2405 17.8275C54.4934 18.8707 53.1894 20.5183 52.5755 22.4584C51.9616 24.3984 52.0803 26.4963 52.9092 28.3547C53.1422 28.8996 53.9382 28.4295 53.7068 27.8885Z" fill="white"/>
<path d="M53.9709 29.1307C52.725 26.9235 53.0182 24.2821 53.4664 21.8952C53.9342 19.4036 54.5474 16.8737 54.0168 14.3396C53.7762 13.1092 53.2066 11.9671 52.3686 11.0346C51.9651 10.5963 51.3131 11.2508 51.7154 11.6878C53.2823 13.3896 53.4639 15.8583 53.2098 18.0508C52.9101 20.6367 52.0605 23.1566 52.166 25.7844C52.1936 27.1173 52.5389 28.4243 53.1733 29.5969C53.2373 29.6982 53.3382 29.7708 53.4546 29.7992C53.571 29.8276 53.6939 29.8097 53.7974 29.7492C53.9009 29.6887 53.9768 29.5904 54.0092 29.475C54.0415 29.3596 54.0278 29.2361 53.9709 29.1307Z" fill="white"/>
<path d="M60.6573 36.179H44.9542C44.5868 36.1786 44.2346 36.0324 43.9749 35.7727C43.7151 35.5129 43.569 35.1607 43.5686 34.7934V30.1808C43.57 28.9956 44.0414 27.8592 44.8795 27.0211C45.7177 26.183 46.854 25.7115 48.0393 25.7102H50.3425C50.465 25.7101 50.5824 25.6614 50.6689 25.5748C50.7555 25.4882 50.8042 25.3708 50.8044 25.2483V23.093C50.8046 22.8889 50.8858 22.6933 51.0301 22.549C51.1744 22.4046 51.37 22.3235 51.5741 22.3232H54.0374C54.2415 22.3235 54.4371 22.4046 54.5814 22.549C54.7257 22.6933 54.8069 22.8889 54.8071 23.093V25.2483C54.8073 25.3708 54.856 25.4882 54.9426 25.5748C55.0291 25.6614 55.1465 25.7101 55.269 25.7102H57.5722C58.7575 25.7115 59.8938 26.183 60.732 27.0211C61.5701 27.8592 62.0415 28.9956 62.0429 30.1808V34.7934C62.0425 35.1607 61.8964 35.5129 61.6366 35.7727C61.3769 36.0324 61.0247 36.1786 60.6573 36.179Z" fill="#CCCCCC"/>
<path d="M53.047 8.47979C53.3776 10.2345 52.9683 11.7845 52.1327 11.942C51.2972 12.0994 50.3518 10.8046 50.0212 9.04992C49.6906 7.29526 50.7074 4.37744 50.7074 4.37744C50.7074 4.37744 52.7164 6.72513 53.047 8.47979Z" fill="#8AFF63"/>
<path d="M59.3878 16.6433C58.3408 18.0896 56.9337 18.858 56.245 18.3594C55.5563 17.8608 55.8467 16.2841 56.8937 14.8378C57.9407 13.3914 60.7587 12.124 60.7587 12.124C60.7587 12.124 60.4348 15.1969 59.3878 16.6433Z" fill="#8AFF63"/>
<path d="M22.4771 83.7505H9.85303V88.3691H22.4771V83.7505Z" fill="#8AFF63"/>
<path d="M22.4771 98.8379H9.85303V103.456H22.4771V98.8379Z" fill="#8AFF63"/>
<path d="M99.4533 182.588H5.23438C3.84662 182.586 2.51614 182.034 1.53484 181.053C0.553535 180.071 0.00155576 178.741 0 177.353V5.23438C0.00155576 3.84662 0.553535 2.51614 1.53484 1.53484C2.51614 0.553535 3.84662 0.00155576 5.23438 0H99.4533C100.841 0.00156227 102.172 0.553541 103.153 1.53484C104.134 2.51614 104.686 3.84662 104.688 5.23438V177.353C104.686 178.741 104.134 180.071 103.153 181.053C102.172 182.034 100.841 182.586 99.4533 182.588ZM5.23438 0.61581C4.00989 0.617195 2.83594 1.10424 1.97009 1.97009C1.10424 2.83594 0.617195 4.00989 0.61581 5.23438V177.353C0.617195 178.578 1.10424 179.752 1.97009 180.617C2.83594 181.483 4.00989 181.97 5.23438 181.972H99.4533C100.678 181.97 101.852 181.483 102.718 180.617C103.583 179.752 104.07 178.578 104.072 177.353V5.23438C104.07 4.00989 103.583 2.83594 102.718 1.97009C101.852 1.10424 100.678 0.617195 99.4533 0.61581H5.23438Z" fill="white"/>
<path d="M104.38 35.5488H0.307861V36.1646H104.38V35.5488Z" fill="white"/>
<path d="M104.38 72.5068H0.307861V73.1226H104.38V72.5068Z" fill="white"/>
<path d="M104.38 109.465H0.307861V110.081H104.38V109.465Z" fill="white"/>
<path d="M104.38 146.424H0.307861V147.04H104.38V146.424Z" fill="white"/>
<path d="M21.5535 110.23H11.0847C10.6765 110.23 10.2852 110.067 9.9966 109.779C9.70799 109.49 9.54564 109.099 9.54517 108.69V78.8237C9.54564 78.4155 9.70799 78.0242 9.9966 77.7356C10.2852 77.447 10.6765 77.2847 11.0847 77.2842H21.5535C21.9616 77.2847 22.3529 77.447 22.6415 77.7356C22.9302 78.0242 23.0925 78.4155 23.093 78.8237V108.69C23.0925 109.099 22.9302 109.49 22.6415 109.779C22.3529 110.067 21.9616 110.23 21.5535 110.23ZM11.0847 77.9C10.8398 77.9003 10.605 77.9977 10.4318 78.1708C10.2587 78.344 10.1612 78.5788 10.161 78.8237V108.69C10.1612 108.935 10.2587 109.17 10.4318 109.343C10.605 109.517 10.8398 109.614 11.0847 109.614H21.5535C21.7984 109.614 22.0331 109.517 22.2063 109.343C22.3795 109.17 22.4769 108.935 22.4772 108.69V78.8237C22.4769 78.5788 22.3795 78.344 22.2063 78.1708C22.0331 77.9977 21.7984 77.9003 21.5535 77.9H11.0847Z" fill="white"/>
<path d="M41.8751 83.7505H29.251V88.3691H41.8751V83.7505Z" fill="#8AFF63"/>
<path d="M41.8751 98.8379H29.251V103.456H41.8751V98.8379Z" fill="#8AFF63"/>
<path d="M40.9514 110.23H30.4826C30.0745 110.23 29.6832 110.067 29.3946 109.779C29.1059 109.49 28.9436 109.099 28.9431 108.69V78.8237C28.9436 78.4155 29.1059 78.0242 29.3946 77.7356C29.6832 77.447 30.0745 77.2847 30.4826 77.2842H40.9514C41.3596 77.2847 41.7509 77.447 42.0395 77.7356C42.3281 78.0242 42.4905 78.4155 42.4909 78.8237V108.69C42.4905 109.099 42.3281 109.49 42.0395 109.779C41.7509 110.067 41.3596 110.23 40.9514 110.23ZM30.4826 77.9C30.2377 77.9003 30.003 77.9977 29.8298 78.1708C29.6566 78.344 29.5592 78.5788 29.5589 78.8237V108.69C29.5592 108.935 29.6566 109.17 29.8298 109.343C30.003 109.517 30.2377 109.614 30.4826 109.614H40.9514C41.1963 109.614 41.4311 109.517 41.6043 109.343C41.7774 109.17 41.8748 108.935 41.8751 108.69V78.8237C41.8748 78.5788 41.7774 78.344 41.6043 78.1708C41.4311 77.9977 41.1963 77.9003 40.9514 77.9H30.4826Z" fill="white"/>
<path d="M72.6656 46.4941H60.0415V51.1127H72.6656V46.4941Z" fill="#8AFF63"/>
<path d="M72.6656 61.5811H60.0415V66.1996H72.6656V61.5811Z" fill="#8AFF63"/>
<path d="M71.7419 72.9737H61.2732C60.865 72.9732 60.4737 72.8108 60.1851 72.5222C59.8965 72.2336 59.7341 71.8423 59.7336 71.4341V41.5674C59.7341 41.1592 59.8965 40.7679 60.1851 40.4793C60.4737 40.1907 60.865 40.0283 61.2732 40.0278H71.7419C72.1501 40.0283 72.5414 40.1907 72.83 40.4793C73.1186 40.7679 73.281 41.1592 73.2815 41.5674V71.4341C73.281 71.8423 73.1186 72.2336 72.83 72.5222C72.5414 72.8108 72.1501 72.9732 71.7419 72.9737ZM61.2732 40.6436C61.0283 40.6439 60.7935 40.7413 60.6203 40.9145C60.4471 41.0877 60.3497 41.3225 60.3495 41.5674V71.4341C60.3497 71.679 60.4471 71.9138 60.6203 72.087C60.7935 72.2602 61.0283 72.3576 61.2732 72.3578H71.7419C71.9868 72.3576 72.2216 72.2602 72.3948 72.087C72.568 71.9138 72.6654 71.679 72.6656 71.4341V41.5674C72.6654 41.3225 72.568 41.0877 72.3948 40.9145C72.2216 40.7413 71.9868 40.6439 71.7419 40.6436H61.2732Z" fill="white"/>
<path d="M92.0636 46.4941H79.4395V51.1127H92.0636V46.4941Z" fill="#8AFF63"/>
<path d="M92.0636 61.5811H79.4395V66.1996H92.0636V61.5811Z" fill="#8AFF63"/>
<path d="M91.1399 72.9737H80.6711C80.263 72.9732 79.8716 72.8108 79.583 72.5222C79.2944 72.2336 79.1321 71.8423 79.1316 71.4341V41.5674C79.1321 41.1592 79.2944 40.7679 79.583 40.4793C79.8716 40.1907 80.263 40.0283 80.6711 40.0278H91.1399C91.548 40.0283 91.9394 40.1907 92.228 40.4793C92.5166 40.7679 92.6789 41.1592 92.6794 41.5674V71.4341C92.6789 71.8423 92.5166 72.2336 92.228 72.5222C91.9394 72.8108 91.548 72.9732 91.1399 72.9737ZM80.6711 40.6436C80.4262 40.6439 80.1914 40.7413 80.0182 40.9145C79.8451 41.0877 79.7477 41.3225 79.7474 41.5674V71.4341C79.7477 71.679 79.8451 71.9138 80.0182 72.087C80.1914 72.2602 80.4262 72.3576 80.6711 72.3578H91.1399C91.3848 72.3576 91.6196 72.2602 91.7928 72.087C91.9659 71.9138 92.0633 71.679 92.0636 71.4341V41.5674C92.0633 41.3225 91.9659 41.0877 91.7928 40.9145C91.6196 40.7413 91.3848 40.6439 91.1399 40.6436H80.6711Z" fill="white"/>
<path d="M57.3596 80.992L45.5422 85.4326L47.1668 89.756L58.9842 85.3154L57.3596 80.992Z" fill="#8AFF63"/>
<path d="M62.6667 95.1151L50.8494 99.5557L52.474 103.879L64.2913 99.4385L62.6667 95.1151Z" fill="#8AFF63"/>
<path d="M55.4673 109.886C55.1542 109.885 54.8487 109.789 54.5914 109.611C54.3342 109.432 54.1373 109.18 54.027 108.887L43.5212 80.929C43.3781 80.5467 43.3924 80.1234 43.5611 79.7517C43.7297 79.38 44.0389 79.0904 44.4207 78.9464L54.2205 75.264C54.4098 75.1928 54.6112 75.1597 54.8133 75.1664C55.0153 75.1731 55.2141 75.2195 55.3982 75.3031C55.5823 75.3866 55.7482 75.5056 55.8863 75.6533C56.0244 75.8009 56.1321 75.9744 56.2032 76.1636L66.709 104.122C66.8521 104.504 66.8377 104.927 66.6691 105.299C66.5005 105.671 66.1913 105.96 65.8094 106.104L56.0096 109.787C55.8363 109.852 55.6526 109.886 55.4673 109.886ZM54.7626 75.7809C54.6514 75.781 54.5412 75.8012 54.4371 75.8404L44.6374 79.5228C44.4083 79.6092 44.2228 79.783 44.1216 80.006C44.0204 80.2291 44.0118 80.4831 44.0976 80.7125L54.6034 108.67C54.6461 108.784 54.7107 108.888 54.7936 108.977C54.8764 109.065 54.976 109.137 55.0864 109.187C55.1969 109.237 55.3161 109.265 55.4374 109.269C55.5586 109.273 55.6795 109.253 55.793 109.21L65.5928 105.528C65.8219 105.441 66.0074 105.268 66.1086 105.045C66.2098 104.822 66.2184 104.568 66.1325 104.338L55.6267 76.3801C55.5605 76.2044 55.4424 76.0529 55.2881 75.9458C55.1337 75.8388 54.9504 75.7813 54.7626 75.7809Z" fill="white"/>
<path d="M14.8686 44.3514L3.05127 48.792L4.67587 53.1154L16.4932 48.6748L14.8686 44.3514Z" fill="#8AFF63"/>
<path d="M20.1757 58.4745L8.3584 62.915L9.983 67.2384L21.8003 62.7979L20.1757 58.4745Z" fill="#8AFF63"/>
<path d="M12.9763 73.2452C12.6632 73.2446 12.3577 73.1487 12.1005 72.9703C11.8432 72.7919 11.6463 72.5393 11.536 72.2463L1.03021 44.2883C0.887119 43.9061 0.901466 43.4827 1.0701 43.1111C1.23873 42.7394 1.54788 42.4498 1.92975 42.3057L11.7296 38.6234C11.9188 38.5522 12.1202 38.519 12.3223 38.5258C12.5244 38.5325 12.7232 38.5789 12.9073 38.6625C13.0914 38.746 13.2572 38.865 13.3953 39.0127C13.5335 39.1603 13.6411 39.3337 13.7122 39.523L24.218 67.481C24.3611 67.8632 24.3468 68.2866 24.1781 68.6583C24.0095 69.03 23.7003 69.3196 23.3185 69.4636L13.5187 73.146C13.3453 73.2115 13.1616 73.2451 12.9763 73.2452ZM12.2716 39.1402C12.1604 39.1404 12.0502 39.1605 11.9462 39.1998L2.14644 42.8822C1.91729 42.9686 1.73178 43.1424 1.63059 43.3654C1.5294 43.5884 1.5208 43.8425 1.60666 44.0718L12.1125 72.0298C12.1551 72.1434 12.2197 72.2474 12.3026 72.336C12.3855 72.4246 12.485 72.496 12.5955 72.5461C12.7059 72.5962 12.8252 72.6241 12.9464 72.6281C13.0677 72.6321 13.1885 72.6123 13.3021 72.5696L23.1018 68.8872C23.3309 68.8008 23.5164 68.627 23.6176 68.4039C23.7188 68.1809 23.7274 67.9269 23.6416 67.6975L13.1358 39.7395C13.0696 39.5637 12.9514 39.4123 12.7971 39.3052C12.6427 39.1982 12.4595 39.1406 12.2716 39.1402Z" fill="white"/>
<path d="M193.057 76.9763C198.328 76.9763 202.602 72.7029 202.602 67.4313C202.602 62.1597 198.328 57.8862 193.057 57.8862C187.785 57.8862 183.511 62.1597 183.511 67.4313C183.511 72.7029 187.785 76.9763 193.057 76.9763Z" fill="white"/>
<path d="M150.652 110.991C151.103 111.166 151.587 111.239 152.069 111.207C152.552 111.174 153.021 111.037 153.444 110.803C153.868 110.569 154.235 110.246 154.52 109.855C154.805 109.464 155 109.016 155.093 108.541L181.338 91.9827L176.561 86.6045L152.254 104.583C151.446 104.48 150.629 104.677 149.957 105.136C149.285 105.596 148.804 106.286 148.607 107.076C148.409 107.865 148.509 108.7 148.885 109.422C149.262 110.144 149.891 110.702 150.652 110.991Z" fill="#FFB8B8"/>
<path d="M175.859 96.3851C175.627 96.3855 175.398 96.3276 175.194 96.2166C174.99 96.1055 174.817 95.945 174.691 95.7498L171.652 91.0269C171.46 90.7287 171.39 90.3685 171.455 90.0201C171.521 89.6718 171.718 89.3619 172.005 89.1542L182.175 81.8036C182.669 81.4469 183.229 81.1928 183.822 81.0563C184.416 80.9198 185.03 80.9037 185.63 81.009C186.23 81.1143 186.802 81.3388 187.314 81.6692C187.825 81.9996 188.265 82.4293 188.608 82.9327C188.95 83.4362 189.188 84.0032 189.308 84.6003C189.427 85.1974 189.426 85.8123 189.304 86.4088C189.181 87.0053 188.94 87.5712 188.596 88.073C188.251 88.5749 187.809 89.0024 187.296 89.3304L176.602 96.1675C176.381 96.3098 176.122 96.3853 175.859 96.3851Z" fill="white"/>
<path d="M180.399 178.847L176.625 178.846L174.829 164.286L180.4 164.286L180.399 178.847Z" fill="#FFB8B8"/>
<path d="M173.928 177.768H181.209V182.351H169.345C169.345 181.749 169.463 181.153 169.694 180.597C169.924 180.041 170.262 179.536 170.687 179.11C171.113 178.684 171.618 178.347 172.174 178.116C172.73 177.886 173.327 177.768 173.928 177.768Z" fill="white"/>
<path d="M198.022 176.025L194.388 177.045L188.723 163.512L194.087 162.006L198.022 176.025Z" fill="#FFB8B8"/>
<path d="M191.5 176.735L198.509 174.768L199.748 179.181L188.326 182.387C188.163 181.808 188.116 181.202 188.188 180.604C188.259 180.006 188.448 179.429 188.743 178.904C189.037 178.379 189.433 177.917 189.906 177.545C190.379 177.173 190.921 176.898 191.5 176.735Z" fill="white"/>
<path d="M208.193 153.68L193.538 136.384L202.431 125.594C202.561 125.436 202.725 125.309 202.91 125.221C203.096 125.134 203.299 125.089 203.504 125.09C203.709 125.09 203.911 125.137 204.096 125.225C204.281 125.313 204.444 125.441 204.574 125.6L218.03 142.115L208.193 153.68Z" fill="#8AFF63"/>
<path d="M194.129 136.513C194.345 136.124 194.613 135.767 194.925 135.45L203.414 126.845C203.746 126.506 204.194 126.305 204.669 126.281C205.638 126.236 207.229 126.334 207.672 127.398L196.213 136.774L194.129 136.513Z" fill="#F2F2F2"/>
<path d="M208.702 157.339C208.048 157.32 207.413 157.119 206.868 156.758L206.827 156.717L193.405 136.189L195.632 135.974L207.569 126.663C207.719 126.546 207.893 126.461 208.078 126.413C208.263 126.366 208.456 126.357 208.645 126.388C208.833 126.419 209.013 126.489 209.174 126.593C209.334 126.696 209.472 126.832 209.577 126.992L222.625 146.74C222.825 147.045 222.897 147.417 222.826 147.774C222.755 148.132 222.545 148.448 222.244 148.652L209.618 157.166C209.326 157.282 209.015 157.341 208.702 157.339Z" fill="#8AFF63"/>
<path d="M203.955 143.297C203.829 143.297 203.705 143.267 203.593 143.207C203.481 143.148 203.386 143.062 203.316 142.958L201.774 140.667C201.66 140.498 201.618 140.29 201.657 140.09C201.696 139.89 201.813 139.713 201.982 139.599L209.893 134.273C210.062 134.16 210.27 134.118 210.47 134.157C210.67 134.196 210.847 134.313 210.961 134.482L212.503 136.772C212.617 136.942 212.659 137.149 212.62 137.35C212.581 137.55 212.464 137.727 212.294 137.841L204.384 143.166C204.257 143.252 204.108 143.297 203.955 143.297Z" fill="white"/>
<path d="M174.232 176.645C173.811 176.643 173.406 176.484 173.096 176.199C172.786 175.914 172.594 175.523 172.557 175.104C171.886 167.472 168.516 129.01 168.146 121.243C167.735 112.613 174.917 98.9596 174.99 98.8228L175.04 98.729L178.59 99.1725V99.5854L181.969 99.9829L188.508 100.616L190.38 123.499L191.208 139.018L198.985 170.715C199.074 171.066 199.02 171.437 198.837 171.749C198.653 172.061 198.354 172.288 198.004 172.382L191.236 174.228C190.884 174.322 190.509 174.275 190.191 174.096C189.874 173.917 189.64 173.62 189.538 173.27L183.166 150.883C183.135 150.775 183.065 150.682 182.97 150.621C182.876 150.56 182.762 150.536 182.65 150.554C182.539 150.571 182.438 150.628 182.366 150.715C182.294 150.802 182.256 150.912 182.26 151.024L182.934 172.853C182.937 173.077 182.895 173.3 182.809 173.507C182.723 173.714 182.596 173.901 182.436 174.058C180.884 175.515 176.785 176.293 174.479 176.627C174.397 176.639 174.315 176.645 174.232 176.645Z" fill="white"/>
<path d="M194.571 80.4841C193.497 79.3644 186.42 80.9031 184.848 82.5527L174.092 100.136L191.882 103.446L195.812 81.1047L194.571 80.4841Z" fill="#8AFF63"/>
<path d="M189.908 125.157C189.524 125.158 189.144 125.094 188.781 124.97C187.748 124.615 186.481 124.244 185.017 123.868C178.602 122.218 176.337 116.937 178.285 108.171L178.334 107.948C180.164 99.6325 183.612 91.7583 188.482 84.7743L189.236 83.6906C190.147 82.3832 191.422 81.3722 192.902 80.7834C194.383 80.1946 196.004 80.0539 197.563 80.3788C200.45 80.9742 202 81.8369 202.17 82.9431C202.504 85.1138 196.057 111.353 193.269 122.534C193.082 123.284 192.65 123.95 192.041 124.425C191.431 124.901 190.68 125.158 189.908 125.157Z" fill="white"/>
<path d="M167.809 121.788C167.642 121.788 167.475 121.762 167.315 121.711L165.236 121.046C165.021 120.978 164.823 120.865 164.654 120.715C164.485 120.565 164.349 120.382 164.255 120.176C164.162 119.971 164.112 119.749 164.109 119.523C164.106 119.297 164.15 119.073 164.238 118.866L175.271 92.9699C177.385 88.0299 181.081 83.9327 185.778 81.3227C185.846 81.2852 185.921 81.2621 185.998 81.2549C186.076 81.2477 186.154 81.2564 186.228 81.2806C186.295 81.3023 186.358 81.3379 186.411 81.3851C186.465 81.4324 186.507 81.4903 186.537 81.5552C187.835 84.4096 180.772 97.9183 175.098 108.773C172.192 114.33 169.682 119.131 169.397 120.499C169.321 120.864 169.121 121.191 168.832 121.426C168.543 121.661 168.182 121.789 167.809 121.788Z" fill="white"/>
<path d="M201.942 127.69C202.33 127.4 202.649 127.03 202.878 126.604C203.107 126.178 203.239 125.707 203.266 125.224C203.293 124.741 203.214 124.258 203.034 123.809C202.855 123.36 202.579 122.956 202.226 122.626L202.138 91.5938L195.044 92.784L197.364 122.928C196.848 123.558 196.581 124.355 196.613 125.169C196.645 125.982 196.974 126.756 197.538 127.342C198.103 127.929 198.863 128.289 199.674 128.353C200.486 128.417 201.293 128.181 201.942 127.69Z" fill="#FFB8B8"/>
<path d="M196.166 99.2923C195.814 99.2922 195.476 99.1584 195.219 98.9181C194.963 98.6778 194.807 98.3489 194.784 97.9981L193.959 85.4769C193.881 84.2721 194.284 83.0856 195.079 82.1776C195.875 81.2696 196.998 80.7143 198.203 80.6334C198.821 80.5926 199.442 80.6786 200.026 80.886C200.61 81.0933 201.145 81.4178 201.6 81.8394C202.054 82.261 202.417 82.7709 202.668 83.3379C202.918 83.9049 203.05 84.517 203.056 85.1368L203.168 97.8285C203.17 98.1951 203.028 98.5478 202.771 98.8097C202.515 99.0716 202.165 99.2214 201.799 99.2264L196.183 99.2923L196.166 99.2923Z" fill="white"/>
<path d="M191.09 77.4618C195.267 77.4618 198.652 74.076 198.652 69.8994C198.652 65.7227 195.267 62.3369 191.09 62.3369C186.913 62.3369 183.528 65.7227 183.528 69.8994C183.528 74.076 186.913 77.4618 191.09 77.4618Z" fill="#FFB8B8"/>
<path d="M197.378 75.1914C197.942 73.3965 198.46 71.28 197.344 69.7654C196.539 68.674 195.095 68.2515 193.741 68.1911C192.387 68.1306 191.028 68.3602 189.677 68.2527C188.325 68.1453 186.897 67.6119 186.211 66.4429C185.32 64.927 186.074 62.8391 187.505 61.8182C188.937 60.7974 190.827 60.6548 192.569 60.8926C194.773 61.1543 196.845 62.0811 198.509 63.5498C200.128 65.044 201.184 67.1979 201.136 69.4006C201.089 71.6032 199.854 73.7967 197.885 74.7857" fill="white"/>
<path d="M195.492 58.6664C193.682 58.1087 192.847 55.7152 193.657 54.0026C194.466 52.29 196.536 51.3932 198.415 51.6317C200.294 51.8703 201.95 53.0759 203.092 54.5872C204.235 56.0985 204.923 57.8999 205.498 59.7051C206.072 61.5104 206.55 63.3546 207.334 65.079C208.578 67.7284 210.498 70.0036 212.901 71.6759C215.303 73.3483 218.104 74.359 221.02 74.6063C222.292 74.6984 223.611 74.6325 224.77 74.1011C225.928 73.5696 226.9 72.4983 227.03 71.2302C227.689 75.7346 225.069 80.5216 220.919 82.3934C216.769 84.2652 211.446 83.061 208.506 79.5853C205.633 76.1887 205.188 71.3934 205.257 66.9451C205.276 65.7254 205.321 64.4825 204.984 63.3101C204.647 62.1376 203.85 61.0227 202.688 60.6504C201.751 60.3499 200.736 60.5665 199.775 60.7795C198.814 60.9925 197.793 61.1975 196.863 60.8764C195.933 60.5553 195.183 59.4973 195.558 58.5872" fill="white"/>
<path d="M225.412 182.896H144.125C144.043 182.896 143.965 182.863 143.907 182.805C143.85 182.748 143.817 182.669 143.817 182.588C143.817 182.506 143.85 182.428 143.907 182.37C143.965 182.312 144.043 182.28 144.125 182.28H225.412C225.494 182.28 225.572 182.312 225.63 182.37C225.687 182.428 225.72 182.506 225.72 182.588C225.72 182.669 225.687 182.748 225.63 182.805C225.572 182.863 225.494 182.896 225.412 182.896Z" fill="#CCCCCC"/>
</g>
<defs>
<clipPath id="clip0_245_748">
<rect width="227.131" height="182.896" fill="white"/>
</clipPath>
</defs>
</svg>
