<svg width="39" height="44" viewBox="0 0 39 44" fill="none" xmlns="http://www.w3.org/2000/svg">
<path d="M24.7481 8.19379C25.9171 8.19589 26.8637 9.14534 26.8618 10.3144C26.8596 11.4834 25.9101 12.4289 24.7411 12.4272L20.7704 12.4207C20.6974 12.4206 20.6248 12.4169 20.5537 12.4096L7.39157 12.388C5.43612 12.3849 3.84812 13.9678 3.84475 15.9232C3.8417 17.8787 5.4245 19.4667 7.37996 19.47L24.7266 19.4985L24.7266 19.5092L26.6504 19.4987C33.2352 19.4609 38.6088 24.7687 38.6525 31.3533C38.6958 37.9382 33.3926 43.3077 26.8076 43.3457L0.0290419 43.499L9.78486e-05 39.1132L26.6163 39.1569C30.784 39.1634 34.1653 35.7902 34.1687 31.6223C34.1717 27.4547 30.796 24.0701 26.6283 24.0631L24.7191 24.06L24.7191 24.0766L7.97402 24.0491C3.58829 24.0419 0.0386733 20.4804 0.0456404 16.0947C0.0528293 11.7088 3.61419 8.1592 8.00005 8.16634L24.7481 8.19379ZM27.9247 29.116C29.2535 29.1182 30.3291 30.1975 30.327 31.5262C30.3248 32.855 29.2456 33.9307 27.9168 33.9285L0.0164837 33.8828L0.0243719 29.0703L27.9247 29.116ZM25.1228 0.0410739C30.5237 0.0499267 34.8947 4.43547 34.886 9.83639C34.881 12.8736 33.4923 15.5853 31.317 17.3755C30.5829 16.2238 29.6365 15.222 28.5318 14.4236C29.9763 13.3944 30.921 11.7085 30.9242 9.79962C30.9292 6.65871 28.3869 4.10802 25.246 4.1028L0.0653642 4.06153L0.0720215 1.28056e-05L25.1228 0.0410739Z" fill="white"/>
</svg>
