<svg width="161" height="48" viewBox="0 0 161 48" fill="none" xmlns="http://www.w3.org/2000/svg">
<path d="M61.1613 20.8307C62.8621 20.8307 64.1849 20.5945 65.1297 20.122C66.6145 19.3796 67.3569 18.0433 67.3569 16.1131C67.3569 14.1695 66.5672 12.8602 64.988 12.1853C64.0971 11.8073 62.7743 11.6183 61.0196 11.6183H53.832V20.8307H61.1613ZM62.5179 34.558C64.988 34.558 66.7495 33.8426 67.8023 32.4119C68.4637 31.5075 68.7944 30.4142 68.7944 29.1319C68.7944 26.9722 67.8293 25.5009 65.8991 24.7181C64.8733 24.2996 63.5167 24.0904 61.8295 24.0904H53.832V34.558H62.5179ZM49.8838 8.25737H62.6596C66.1421 8.25737 68.6189 9.29671 70.0902 11.3754C70.9541 12.6037 71.386 14.021 71.386 15.6272C71.386 17.5034 70.8528 19.0422 69.7865 20.2435C69.2331 20.8779 68.4367 21.4583 67.3974 21.9847C68.9226 22.5651 70.0632 23.2198 70.8191 23.9487C72.1554 25.2445 72.8235 27.033 72.8235 29.3141C72.8235 31.2308 72.2229 32.9653 71.0216 34.5175C69.2263 36.8392 66.3715 38 62.4571 38H49.8838V8.25737ZM77.1564 16.4169H80.8615V38H77.1564V16.4169ZM77.1564 8.25737H80.8615V12.3877H77.1564V8.25737ZM86.1055 8.15613H89.6487V18.9477C90.445 17.9084 91.3966 17.1187 92.5035 16.5788C93.6103 16.0254 94.8116 15.7487 96.1074 15.7487C98.807 15.7487 100.994 16.6801 102.667 18.5428C104.355 20.392 105.198 23.1253 105.198 26.7427C105.198 30.1712 104.368 33.0193 102.708 35.2869C101.048 37.5546 98.7462 38.6884 95.8037 38.6884C94.157 38.6884 92.7667 38.2902 91.6329 37.4938C90.958 37.0214 90.2358 36.2655 89.4664 35.2262V38H86.1055V8.15613ZM95.581 35.4691C97.5517 35.4691 99.023 34.6863 99.9948 33.1205C100.98 31.5548 101.473 29.4896 101.473 26.925C101.473 24.6438 100.98 22.7541 99.9948 21.2559C99.023 19.7576 97.5854 19.0084 95.6822 19.0084C94.022 19.0084 92.5642 19.6226 91.3089 20.8509C90.0671 22.0792 89.4462 24.1039 89.4462 26.925C89.4462 28.9632 89.7027 30.6166 90.2156 31.8854C91.1739 34.2746 92.9624 35.4691 95.581 35.4691ZM109.572 8.25737H113.216V38H109.572V8.25737ZM118.703 16.4169H122.408V38H118.703V16.4169ZM118.703 8.25737H122.408V12.3877H118.703V8.25737ZM136.54 35.6514C138.957 35.6514 140.61 34.7403 141.501 32.918C142.405 31.0823 142.857 29.0441 142.857 26.8035C142.857 24.7788 142.534 23.1321 141.886 21.8633C140.86 19.8656 139.092 18.8667 136.581 18.8667C134.354 18.8667 132.734 19.7171 131.722 21.4178C130.709 23.1186 130.203 25.1702 130.203 27.5729C130.203 29.881 130.709 31.8045 131.722 33.3432C132.734 34.882 134.34 35.6514 136.54 35.6514ZM136.682 15.688C139.476 15.688 141.838 16.6193 143.769 18.482C145.699 20.3447 146.664 23.0848 146.664 26.7023C146.664 30.1982 145.814 33.0868 144.113 35.3679C142.412 37.6491 139.773 38.7896 136.196 38.7896C133.213 38.7896 130.844 37.784 129.09 35.7728C127.335 33.7482 126.458 31.0351 126.458 27.6336C126.458 23.9892 127.382 21.0871 129.231 18.9275C131.081 16.7678 133.564 15.688 136.682 15.688ZM151.888 33.5862H156.119V38H151.888V33.5862Z" fill="white"/>
<path d="M24.7104 2.5918C30.0362 2.59186 34.354 6.90954 34.354 12.2354C34.3539 15.2302 32.9874 17.9052 30.8452 19.6738C30.1196 18.5399 29.1854 17.5538 28.0952 16.7686C29.5179 15.7514 30.4467 14.0873 30.4468 12.2051C30.4468 9.10784 27.9356 6.59687 24.8384 6.59668H0.00830078V2.5918H24.7104Z" fill="#CEF17B"/>
<path fill-rule="evenodd" clip-rule="evenodd" d="M26.248 21.7768C32.7413 21.7289 38.0482 26.9535 38.1016 33.4467C38.1548 39.9398 32.9345 45.2424 26.4414 45.2905L0.0351562 45.4848L0 41.1606H26.2451C30.3549 41.1606 33.6839 37.829 33.6807 33.7192C33.6772 29.6093 30.3432 26.2769 26.2334 26.2768H22.8545V21.8012L26.248 21.7768Z" fill="white"/>
<path d="M24.3511 14.7947H7.24561C5.31726 14.7948 3.75439 16.3585 3.75439 18.2869C3.75451 20.2151 5.31734 21.778 7.24561 21.7781H24.3511V26.2927H7.83936C3.5146 26.2927 0.00842365 22.7864 0.00830078 18.4617C0.00830078 14.1368 3.51453 10.6306 7.83936 10.6306H24.3511V14.7947Z" fill="white"/>
<path d="M24.3536 10.631H20.4382C19.2852 10.631 18.3506 11.5657 18.3506 12.7186C18.3506 13.8715 19.2852 14.8062 20.4382 14.8062H24.3536C25.5066 14.8062 26.4412 13.8715 26.4412 12.7186C26.4412 11.5657 25.5066 10.631 24.3536 10.631Z" fill="white"/>
<path d="M0.00830078 31.2576H27.5202C28.8305 31.2576 29.8927 32.3198 29.8927 33.6301C29.8927 34.9404 28.8305 36.0026 27.5202 36.0026H0.00830078V31.2576Z" fill="#CEF17B"/>
</svg>
