<svg width="361" height="185" viewBox="0 0 361 185" fill="none" xmlns="http://www.w3.org/2000/svg">
<g clip-path="url(#clip0_292_201)">
<path d="M344.467 101.865L343.338 110.856L340.536 133.189H284.236C284.676 128.184 285.277 120.979 285.919 113.201C285.982 112.424 286.049 111.643 286.112 110.856C287.722 91.305 289.484 69.1807 289.484 69.1807L296.885 70.5595L311.246 73.2298L317.097 74.3173L332.767 77.2352C340.58 78.6868 345.954 89.999 344.467 101.865Z" fill="#F2F2F2"/>
<path d="M301.882 33.001L308.805 45.1164L295.499 54.5469L289.822 39.6547L301.882 33.001Z" fill="#FFB6B6"/>
<path d="M293.068 44.4633C302.54 44.4633 310.219 36.7843 310.219 27.3117C310.219 17.8392 302.54 10.1602 293.068 10.1602C283.595 10.1602 275.916 17.8392 275.916 27.3117C275.916 36.7843 283.595 44.4633 293.068 44.4633Z" fill="#FFB6B6"/>
<path d="M291.836 31.1457C290.474 29.073 291.009 27.9889 289.869 27.2271C289.869 27.2271 289.41 26.9206 286.126 26.7459C285.391 21.4546 284.473 20.8129 284.473 20.8129C283.416 20.0734 281.846 20.3136 280.869 20.766C278.804 21.7226 279.044 23.789 277.653 24.1844C275.732 24.7307 272.237 21.6512 271.893 18.1259C271.612 15.2502 273.464 12.4572 274.199 12.6049C274.928 12.7514 276.672 10.5244 277.614 10.5587C278.257 10.5822 280.886 9.43987 281.593 9.52918C282.365 9.62673 284.91 10.9553 285.017 10.6517C285.754 8.5425 285.537 7.95728 286.163 7.35388C287.271 6.28465 289.084 7.02923 291.929 7.42897C297.782 8.25143 298.803 6.32156 301.803 7.62964C303.318 8.29042 304.586 10.0725 307.06 13.6096C310.519 18.5561 312.249 21.0294 312.26 23.9142C312.271 26.8561 310.847 26.6694 310.221 31.0246C309.525 35.8728 311.005 38.0896 309.388 39.6647C308.138 40.882 305.598 41.171 304.264 40.1026C301.979 38.2735 304.969 33.8597 302.44 30.635C300.888 28.6555 297.767 27.7747 296.337 28.7532C294.72 29.8596 295.611 33.1069 294.474 33.4149C293.501 33.6786 292.074 31.5069 291.836 31.1457Z" fill="#2F2E41"/>
<path d="M331.79 98.6977C331.312 106.878 329.412 109.46 328.746 119.12C328.601 121.241 328.513 123.703 328.513 126.639C328.513 127.387 328.517 128.111 328.517 128.818C328.517 130.323 328.489 131.746 328.313 133.189C328.181 134.341 327.952 135.501 327.574 136.723H290.633C290.629 136.715 290.629 136.707 290.625 136.698C290.409 135.759 290.271 134.86 290.167 134C290.134 133.725 290.105 133.455 290.08 133.189C290.047 132.877 290.017 132.569 289.989 132.266C289.876 131.055 289.764 129.912 289.498 128.818C289.14 127.308 288.491 125.886 287.16 124.514C286.616 123.953 286.071 123.516 285.539 123.133C285.435 123.063 285.335 122.992 285.231 122.921C283.759 121.911 282.366 121.183 281.16 119.12C281.139 119.091 281.122 119.058 281.106 119.029C280.898 118.667 280.357 117.719 279.966 116.455C279.554 115.141 279.305 113.49 279.754 111.801C280.823 107.801 284.782 107.402 288.017 103.359C288.367 102.923 288.712 102.44 289.04 101.904C290.504 99.5251 290.899 97.4294 291.365 94.9383C291.44 94.5349 291.506 94.1357 291.56 93.749C291.602 93.4579 291.639 93.1709 291.669 92.8881C291.926 90.5136 291.801 88.4676 291.498 86.6379C290.508 80.6453 287.589 76.9359 289.652 71.5589C290.301 69.8707 291.22 68.6022 292.147 67.5169C294.109 65.2171 296.127 63.7242 295.777 60.7551C295.424 57.7609 293.153 57.3491 292.9 54.7334C292.77 53.4111 293.203 52.0179 294.014 50.6497V50.6457C296.609 46.2416 303.088 42.187 307.205 42.316C307.966 42.3369 308.64 42.5073 309.201 42.8358C311.235 44.0334 310.386 46.6492 313.501 50.3171C315.817 53.0409 318.437 54.1305 319.431 54.646C323.369 56.7006 326.571 62.7595 328.746 70.5068C328.763 70.5651 328.779 70.6232 328.796 70.6857C330.139 75.5387 331.088 81.0488 331.557 86.6379C331.757 89.0041 331.873 91.3828 331.898 93.7364C331.919 95.6161 331.878 97.2464 331.79 98.6977Z" fill="#87D800"/>
<path d="M304.127 126.723L303.375 128.819L302.901 130.133L301.803 133.189L300.53 136.724H292.35L293.723 133.189L294.359 131.542L295.415 128.819L297.187 124.244L304.127 126.723Z" fill="#FFB6B6"/>
<path d="M328.875 69.7915C328.854 70.0619 328.825 70.3612 328.796 70.6857C328.472 73.9876 327.706 79.8969 326.588 86.6379C325.997 90.1934 325.307 93.9819 324.529 97.7453C322.858 105.867 320.778 113.864 318.429 119.12C318.009 120.069 317.576 120.925 317.135 121.682C316.799 122.26 316.445 122.83 316.075 123.391C314.877 125.233 313.534 126.98 312.141 128.61C312.087 128.681 312.024 128.747 311.962 128.818C311.738 129.084 311.505 129.346 311.272 129.608C310.132 130.893 308.968 132.091 307.841 133.189C306.469 134.528 305.146 135.713 303.961 136.723H290.678L290.624 136.698L288.712 135.85C288.712 135.85 289.256 135.21 290.167 134C290.354 133.754 290.554 133.484 290.77 133.189C291.036 132.827 291.323 132.428 291.631 131.995C292.271 131.089 292.999 130.024 293.781 128.818C295.295 126.485 297.02 123.616 298.763 120.293C298.963 119.906 299.166 119.515 299.37 119.12C299.374 119.108 299.383 119.095 299.387 119.083C299.732 118.409 300.073 117.715 300.414 117.008C303.304 110.994 304.132 106.004 304.369 104.387C304.701 102.099 305.163 98.9013 305.038 95.3832C304.955 93.0629 304.618 90.6092 303.816 88.1724V88.1683C303.649 87.6568 303.462 87.1453 303.25 86.6379C302.871 85.7272 302.422 84.8289 301.89 83.9431C299.541 80.0425 297.632 79.8802 296.114 75.6301C295.665 74.3701 294.646 71.5258 294.958 68.5232V68.5191C294.995 68.149 295.058 67.7747 295.141 67.4003V67.3962C295.161 67.2923 295.191 67.1842 295.22 67.0803C295.457 66.1613 295.848 65.2504 296.442 64.3853C297.603 62.7055 299.187 61.7073 300.605 61.1127L300.609 61.1085C302.248 60.4266 303.662 60.281 303.936 60.256C310.012 59.7155 314.723 64.8221 317.298 67.6125C318.291 68.6895 319.202 69.5921 320.034 70.3279C326.509 76.1085 328.285 72.4155 328.746 70.5068C328.817 70.2116 328.854 69.958 328.875 69.7915Z" fill="#87D800"/>
<path d="M328.896 69.5757C328.896 69.5963 328.892 69.6666 328.875 69.7827C328.883 69.7204 328.888 69.6584 328.892 69.6003C328.892 69.588 328.892 69.5797 328.896 69.5757Z" fill="#87D800"/>
<path d="M295.869 157.325H72.9495C70.8784 157.325 69.1902 159.009 69.1902 161.08C69.1902 163.155 70.8784 164.84 72.9495 164.84H295.869C297.939 164.84 299.624 163.155 299.624 161.08C299.624 159.009 297.939 157.325 295.869 157.325Z" fill="#E6E6E6"/>
<path d="M246.398 176.738H122.415C120.344 176.738 118.66 178.422 118.66 180.493C118.66 182.564 120.344 184.252 122.415 184.252H246.398C248.469 184.252 250.158 182.564 250.158 180.493C250.158 178.422 248.469 176.738 246.398 176.738Z" fill="#E6E6E6"/>
<path d="M97.7546 33.7983L111.804 27.8857L117.83 40.2389L103.066 46.2648L97.7546 33.7983Z" fill="#FFB6B6"/>
<path opacity="0.1" d="M97.7546 33.7983L111.804 27.8857L117.83 40.2389L103.066 46.2648L97.7546 33.7983Z" fill="black"/>
<path d="M99.7523 29.0909L113.612 45.0597C113.612 45.0597 103.97 75.4906 94.329 78.2023C84.6875 80.914 66.911 94.171 66.911 94.171L44.615 79.7088L55.4617 63.7401C55.4617 63.7401 81.6745 27.8857 88.6043 27.8857C95.5342 27.8857 99.7523 29.0909 99.7523 29.0909Z" fill="#87D800"/>
<path d="M81.0264 133.189H48.7636L46.7238 130.463L38.3959 119.33L36.4797 116.769C36.4797 116.769 29.2486 103.512 30.7551 91.4598C32.2615 79.408 47.929 76.6963 47.929 76.6963H48.5738L67.7543 93.5508L66.6094 109.236L72.6835 119.33L81.0264 133.189Z" fill="#2F2E41"/>
<path d="M55.3711 133.189H46.7239V120.384L55.3711 133.189Z" fill="#2F2E41"/>
<path d="M241.88 113.75L240.804 119.33L238.135 133.189H184.507C184.926 130.083 185.498 125.612 186.11 120.785C186.17 120.303 186.233 119.818 186.293 119.33C187.827 107.196 189.505 93.4663 189.505 93.4663L196.556 94.322L210.235 95.9792L215.809 96.6541L230.735 98.4649C238.177 99.3657 243.296 106.386 241.88 113.75Z" fill="#F2F2F2"/>
<path d="M317.773 133.189H288.686C289.129 132.668 289.379 132.366 289.379 132.366L298.099 130.926L316.065 127.961C316.065 127.961 316.885 130.08 317.773 133.189Z" fill="#2F2E41"/>
<path d="M194.394 39.8252L207.043 57.7144L184.978 58.3734L182.61 41.5617L194.394 39.8252Z" fill="#A0616A"/>
<path opacity="0.1" d="M194.394 39.8252L207.043 57.7144L184.978 58.3734L182.61 41.5617L194.394 39.8252Z" fill="black"/>
<path d="M132.012 76.8901C130.389 72.2079 126.657 69.2501 123.678 70.2835C120.698 71.317 119.599 75.9497 121.223 80.6334C121.846 82.5132 122.911 84.2164 124.327 85.6006L131.455 105.352L140.652 101.81L132.649 82.7143C132.905 80.7499 132.686 78.7527 132.012 76.8901Z" fill="#A0616A"/>
<path d="M217.637 67.7748L217.619 86.0063L215.923 92.7403L212.434 106.591L209.894 119.33L208.002 128.821L207.327 132.21C206.818 132.551 206.312 132.876 205.806 133.189H161.735C159.231 131.686 157.83 130.517 157.83 130.517C157.83 130.517 158.523 129.866 159.315 128.821C160.653 127.055 162.271 124.163 161.28 121.4C161.072 120.821 161.018 120.116 161.081 119.33C161.485 114.141 166.926 105.368 166.926 105.368L165.799 92.3456L165.305 86.639L168.789 58.8141L180.145 52.2127L182.106 52.023L201.458 50.9775L209.457 51.4385L209.821 51.5379L217.637 67.7748Z" fill="#CCCCCC"/>
<path d="M218.496 133.189H208.855L208.43 128.82L208.421 128.732L211.151 128.546L218.252 128.061L218.376 130.676L218.472 132.682L218.496 133.189Z" fill="#FFB6B6"/>
<path d="M220.87 72.1822L224.92 95.9455L221.615 119.329L221.099 122.969L220.189 129.395L219.909 131.372L219.918 131.586L219.988 133.189H208.538L208.117 128.82L208.08 128.428L207.219 119.48L207.204 119.329L205.375 100.353L208.96 86.6384L209.225 85.629V85.626L210.785 62.1429L209.577 51.471L209.565 51.3716C209.589 51.3867 209.61 51.4017 209.634 51.4168C209.698 51.456 209.761 51.4951 209.821 51.5373C216.859 56.0026 221.054 63.8363 220.87 72.1822Z" fill="#CCCCCC"/>
<path d="M172.891 63.3674L168.488 58.8135C168.488 58.8135 159.063 63.0625 158.593 65.4198C158.123 67.7772 141.482 102.4 141.482 102.4L134.242 83.0633L124.818 89.3553C124.818 89.3553 132.38 119.377 139.452 120.786C146.524 122.195 170.226 85.2528 170.226 85.2528L172.891 63.3674Z" fill="#CCCCCC"/>
<path d="M351.664 119.121H8.79956C3.94657 119.121 0 123.071 0 127.924C0 132.777 3.94656 136.724 8.79956 136.724H351.664C356.517 136.724 360.468 132.777 360.468 127.924C360.468 123.071 356.517 119.121 351.664 119.121Z" fill="#E6E6E6"/>
<path d="M215.63 92.2946L214.964 123.402C214.899 126.413 212.439 128.82 209.428 128.82H152.205C149.264 128.82 146.836 126.522 146.676 123.585L144.975 92.4782C144.802 89.306 147.327 86.6387 150.504 86.6387H210.094C213.199 86.6387 215.697 89.1907 215.63 92.2946Z" fill="#3F3D56"/>
<path d="M123.253 41.3072C130.814 41.3072 136.944 35.1777 136.944 27.6165C136.944 20.0553 130.814 13.9258 123.253 13.9258C115.692 13.9258 109.562 20.0553 109.562 27.6165C109.562 35.1777 115.692 41.3072 123.253 41.3072Z" fill="#FFB6B6"/>
<path d="M100.355 63.4392L101.861 79.7092L112.105 120.987L103.255 124.089L88.303 79.1066L86.2378 61.0288L100.355 63.4392Z" fill="#FFB6B6"/>
<path d="M96.2798 92.2946L95.6132 123.402C95.5487 126.413 93.0891 128.82 90.0772 128.82H32.8545C29.9138 128.82 27.486 126.522 27.3254 123.585L25.6249 92.4782C25.4515 89.306 27.977 86.6387 31.1539 86.6387H90.7438C93.8484 86.6387 96.3463 89.1907 96.2798 92.2946Z" fill="#3F3D56"/>
<path d="M113.737 129.031C119.708 129.031 124.549 126.89 124.549 124.249C124.549 121.607 119.708 119.466 113.737 119.466C107.765 119.466 102.924 121.607 102.924 124.249C102.924 126.89 107.765 129.031 113.737 129.031Z" fill="#FFB6B6"/>
<path d="M79.1133 65.9271L85.2899 33.0086C85.2899 33.0086 102.464 30.5982 103.066 36.3229C103.669 42.0475 102.636 70.0246 102.636 70.0246L79.1133 65.9271Z" fill="#87D800"/>
<path d="M117.727 29.7697C117.727 29.7697 126.196 26.7471 129.768 25.1208C133.34 23.4945 140.438 34.8378 140.595 28.847C140.753 22.8562 138.301 20.344 138.301 20.344C138.301 20.344 137.689 7.23825 124.485 8.87678C124.485 8.87678 127.389 2.31985 117.856 1.30594C108.323 0.292028 93.4912 23.3134 94.8194 26.7538C96.1477 30.1942 97.74 33.0386 93.9715 36.7172C90.2031 40.3957 83.1467 61.1566 88.5155 66.7432C93.8844 72.3298 94.2367 74.7541 90.5582 78.2297C86.8797 81.7052 78.1847 89.2624 87.586 90.5744C96.9872 91.8863 86.7259 90.9064 93.7346 84.7415C100.743 78.5765 110.971 78.8283 107.152 68.9371C103.333 59.0459 109.968 44.8719 109.138 42.7216C108.308 40.5713 110.998 26.917 110.998 26.917C110.998 26.917 117.258 25.9972 117.727 29.7697Z" fill="#2F2E41"/>
<path d="M187.63 46.3003C195.861 46.3003 202.534 39.6279 202.534 31.397C202.534 23.1661 195.861 16.4937 187.63 16.4937C179.399 16.4937 172.727 23.1661 172.727 31.397C172.727 39.6279 179.399 46.3003 187.63 46.3003Z" fill="#A0616A"/>
<path d="M188.819 11.3601C188.388 11.6118 187.811 11.231 187.672 10.7512C187.534 10.2713 187.695 9.76191 187.855 9.2888L188.659 6.90713C189.229 5.218 189.835 3.46984 191.07 2.18419C192.934 0.243713 195.897 -0.249936 198.564 0.107696C201.988 0.566966 205.368 2.42154 206.96 5.48831C208.553 8.55508 207.875 12.8343 204.997 14.7477C209.098 19.4483 210.528 24.6869 210.302 30.9209C210.076 37.155 203.283 42.8924 198.852 47.284C197.863 46.6843 196.964 43.8736 197.508 42.8526C198.052 41.8315 197.272 40.6486 197.946 39.7081C198.62 38.7676 199.184 40.2652 198.502 39.33C198.073 38.7399 199.75 37.3823 199.111 37.0291C196.021 35.3208 194.993 31.4687 193.052 28.5188C190.711 24.9607 186.704 22.5511 182.463 22.1514C180.127 21.9312 177.66 22.33 175.745 23.6861C173.831 25.0423 172.591 27.4656 173.035 29.7695C171.885 28.602 171.313 26.891 171.529 25.2666C171.745 23.6421 172.744 22.14 174.159 21.3133C173.299 18.4683 174.036 15.1957 176.033 12.9941C178.029 10.7925 186.13 11.1675 189.045 11.7469L188.819 11.3601Z" fill="#2F2E41"/>
<path d="M189.272 22.2378C193.133 22.6546 195.921 25.9992 198.275 29.088C199.632 30.8683 201.054 32.8343 201.019 35.0725C200.985 37.3353 199.472 39.2762 198.749 41.4206C197.567 44.9259 198.719 49.0963 201.532 51.498C198.752 52.0255 195.747 49.9412 195.267 47.1527C194.709 43.9065 197.17 40.7734 196.878 37.4924C196.621 34.6018 194.343 32.3772 192.407 30.2159C190.47 28.0546 188.652 25.1866 189.542 22.4248L189.272 22.2378Z" fill="#2F2E41"/>
<path d="M246.996 121.005C243.171 123.18 241.194 126.917 242.578 129.35C243.963 131.784 248.186 131.993 252.011 129.816C253.551 128.968 254.866 127.763 255.845 126.302L271.933 116.881L267.351 109.425L251.977 119.505C250.221 119.6 248.513 120.114 246.996 121.005Z" fill="#FFB6B6"/>
<path d="M301.468 51.9158C300.987 51.7253 296.768 50.1278 292.917 52.237C288.493 54.6599 287.81 60.1908 287.57 62.1307C287.017 66.612 288.648 67.6164 288.992 72.1531C289.636 80.6408 291.335 70.958 288.622 74.8322C287.683 76.1733 278.094 96.9549 272.805 101.025C262.52 108.942 255.988 114.518 255.988 114.518L263.445 122.617C263.445 122.617 275.227 119.478 285.641 112.716C296.324 105.779 301.665 102.311 305.798 95.5264C306.154 94.9421 314.668 80.4824 310.096 64.4934C309.052 60.8464 307.141 54.1642 301.468 51.9158Z" fill="#87D800"/>
<path d="M339.971 92.2946L339.304 123.402C339.24 126.413 336.78 128.82 333.768 128.82H276.545C273.605 128.82 271.177 126.522 271.016 123.585L269.316 92.4782C269.142 89.306 271.668 86.6387 274.845 86.6387H334.435C337.539 86.6387 340.037 89.1907 339.971 92.2946Z" fill="#3F3D56"/>
</g>
<defs>
<clipPath id="clip0_292_201">
<rect width="360.468" height="184.252" fill="white"/>
</clipPath>
</defs>
</svg>
