<svg width="93" height="95" viewBox="0 0 93 95" fill="none" xmlns="http://www.w3.org/2000/svg">
<path d="M77.6582 41.9862C79.3202 42.1833 80.6633 42.9517 81.6876 44.2913C82.7119 45.6309 83.1255 47.1317 82.9284 48.7937L82.1414 54.7888C81.9443 56.4508 81.1759 57.7939 79.8363 58.8182C78.4967 59.8425 76.9959 60.2561 75.3339 60.059L60.8692 58.2332L66.501 71.688C67.137 73.2074 67.1322 74.7546 66.4866 76.3296C65.8411 77.9046 64.7586 79.0101 63.2393 79.646L57.6294 81.9942C56.1101 82.6301 54.5629 82.6253 52.9879 81.9798C51.4129 81.3342 50.3074 80.2518 49.6714 78.7324L44.0396 65.2776L35.1884 76.8628C34.1623 78.185 32.8144 78.9638 31.1446 79.1992C29.4747 79.4346 27.9787 79.0393 26.6565 78.0133L21.8336 74.3664C20.5114 73.3403 19.7326 71.9924 19.4972 70.3225C19.2618 68.6527 19.6571 67.1567 20.6831 65.8344L29.516 54.2054L15.033 52.3357C13.371 52.1386 12.0278 51.3703 11.0035 50.0307C9.97925 48.691 9.56566 47.1902 9.76275 45.5282L10.5498 39.5332C10.7468 37.8712 11.5152 36.528 12.8548 35.5038C14.1945 34.4795 15.6953 34.0659 17.3573 34.263L31.822 36.0888L26.1901 22.6339C25.5542 21.1146 25.559 19.5674 26.2045 17.9924C26.8501 16.4174 27.9325 15.3119 29.4519 14.6759L35.0617 12.3278C36.5811 11.6919 38.1282 11.6967 39.7032 12.3422C41.2783 12.9878 42.3837 14.0702 43.0197 15.5895L48.6515 29.0444L57.5028 17.4592C58.5288 16.1369 59.8768 15.3581 61.5466 15.1227C63.2164 14.8873 64.7124 15.2827 66.0347 16.3087L70.8575 19.9556C72.1798 20.9817 72.9586 22.3296 73.194 23.9994C73.4294 25.6693 73.034 27.1653 72.008 28.4875L63.1751 40.1166L77.6582 41.9862Z" fill="#CEF17B"/>
</svg>
